SplineFontDB: 3.2
FontName: RisingSun-SemiBold
FullName: Rising Sun SemiBold
FamilyName: Rising Sun SemiBold
Weight: Demi
Copyright: Copyright (c) 2012, The Raleway Project Authors (matt@pixelspread.com)
Version: 4.321
ItalicAngle: 0
UnderlinePosition: -125
UnderlineWidth: 50
Ascent: 800
Descent: 200
InvalidEm: 0
sfntRevision: 0x0004526e
LayerCount: 2
Layer: 0 1 "Back" 1
Layer: 1 1 "Fore" 0
XUID: [1021 158 994486733 8372586]
StyleMap: 0x0040
FSType: 0
OS2Version: 4
OS2_WeightWidthSlopeOnly: 0
OS2_UseTypoMetrics: 1
CreationTime: 1683072783
ModificationTime: 1710185686
PfmFamily: 81
TTFWeight: 600
TTFWidth: 5
LineGap: 21
VLineGap: 0
Panose: 0 0 0 0 0 0 0 0 0 0
OS2TypoAscent: 923
OS2TypoAOffset: 0
OS2TypoDescent: -213
OS2TypoDOffset: 0
OS2TypoLinegap: 21
OS2WinAscent: 944
OS2WinAOffset: 0
OS2WinDescent: 234
OS2WinDOffset: 0
HheadAscent: 923
HheadAOffset: 0
HheadDescent: -213
HheadDOffset: 0
OS2SubXSize: 650
OS2SubYSize: 600
OS2SubXOff: 0
OS2SubYOff: 75
OS2SupXSize: 650
OS2SupYSize: 600
OS2SupXOff: 0
OS2SupYOff: 350
OS2StrikeYSize: 50
OS2StrikeYPos: 300
OS2CapHeight: 710
OS2XHeight: 524
OS2Vendor: '    '
OS2CodePages: 2000019f.00000000
OS2UnicodeRanges: a00002ff.4000205b.00000000.00000000
Lookup: 1 0 0 "'aalt' Access All Alternates lookup 0" { "'aalt' Access All Alternates lookup 0 subtable"  } ['aalt' ('DFLT' <'dflt' > 'cyrl' <'BGR ' 'SRB ' 'dflt' > 'latn' <'AZE ' 'CAT ' 'CRT ' 'KAZ ' 'MOL ' 'ROM ' 'TAT ' 'TRK ' 'dflt' > ) ]
Lookup: 3 0 0 "'aalt' Access All Alternates lookup 1" { "'aalt' Access All Alternates lookup 1 subtable"  } ['aalt' ('DFLT' <'dflt' > 'cyrl' <'BGR ' 'SRB ' 'dflt' > 'latn' <'AZE ' 'CAT ' 'CRT ' 'KAZ ' 'MOL ' 'ROM ' 'TAT ' 'TRK ' 'dflt' > ) ]

StartChar: .notdef
Encoding: 65536 -1 0
Width: 608
GlyphClass: 1
Flags: W
LayerCount: 2
Fore
SplineSet
558 689 m 2,0,1
 558 699 558 699 553 704.5 c 128,-1,2
 548 710 548 710 540 710 c 2,3,-1
 69 710 l 2,4,5
 61 710 61 710 55.5 704 c 128,-1,6
 50 698 50 698 50 687 c 2,7,-1
 50 25 l 2,8,9
 50 12 50 12 55.5 6 c 128,-1,10
 61 0 61 0 77 0 c 2,11,-1
 525 0 l 2,12,13
 542 0 542 0 550 6.5 c 128,-1,14
 558 13 558 13 558 29 c 2,15,-1
 558 689 l 2,0,1
506 74 m 2,16,17
 506 61 506 61 499 55.5 c 128,-1,18
 492 50 492 50 478 50 c 2,19,-1
 125 50 l 2,20,21
 111 50 111 50 106.5 55 c 128,-1,22
 102 60 102 60 102 71 c 2,23,-1
 102 641 l 2,24,25
 102 650 102 650 106.5 655 c 128,-1,26
 111 660 111 660 118 660 c 2,27,-1
 491 660 l 2,28,29
 498 660 498 660 502 655 c 128,-1,30
 506 650 506 650 506 642 c 2,31,-1
 506 74 l 2,16,17
538 33 m 1,32,-1
 123 696 l 1,33,-1
 71 669 l 1,34,-1
 478 28 l 1,35,-1
 538 33 l 1,32,-1
EndSplineSet
EndChar

StartChar: exclam
Encoding: 33 33 4
Width: 302
GlyphClass: 1
Flags: W
LayerCount: 2
Fore
SplineSet
69 72 m 256,0,1
 69 55 69 55 75.5 40.5 c 128,-1,2
 82 26 82 26 93 14.5 c 128,-1,3
 104 3 104 3 119 -3.5 c 128,-1,4
 134 -10 134 -10 151 -10 c 256,5,6
 168 -10 168 -10 183 -3.5 c 128,-1,7
 198 3 198 3 209 14.5 c 128,-1,8
 220 26 220 26 226.5 40.5 c 128,-1,9
 233 55 233 55 233 72 c 256,10,11
 233 89 233 89 226.5 104 c 128,-1,12
 220 119 220 119 209 130.5 c 128,-1,13
 198 142 198 142 183 148 c 128,-1,14
 168 154 168 154 151 154 c 256,15,16
 134 154 134 154 119 148 c 128,-1,17
 104 142 104 142 93 130.5 c 128,-1,18
 82 119 82 119 75.5 104 c 128,-1,19
 69 89 69 89 69 72 c 256,0,1
190 264 m 1,20,-1
 215 520 l 1,21,-1
 215 717 l 1,22,-1
 87 717 l 1,23,-1
 87 520 l 1,24,-1
 112 264 l 1,25,-1
 190 264 l 1,20,-1
EndSplineSet
EndChar

StartChar: numbersign
Encoding: 35 35 6
Width: 718
GlyphClass: 1
Flags: W
LayerCount: 2
Fore
SplineSet
681 517 m 1,0,-1
 560 517 l 1,1,-1
 608 710 l 1,2,-1
 503 710 l 1,3,-1
 457 517 l 1,4,-1
 332 517 l 1,5,-1
 380 710 l 1,6,-1
 275 710 l 1,7,-1
 229 517 l 1,8,-1
 83 517 l 1,9,-1
 83 427 l 1,10,-1
 206 427 l 1,11,-1
 172 285 l 1,12,-1
 37 285 l 1,13,-1
 37 189 l 1,14,-1
 149 189 l 1,15,-1
 102 0 l 1,16,-1
 207 0 l 1,17,-1
 252 189 l 1,18,-1
 377 189 l 1,19,-1
 330 0 l 1,20,-1
 435 0 l 1,21,-1
 480 189 l 1,22,-1
 635 189 l 1,23,-1
 635 285 l 1,24,-1
 504 285 l 1,25,-1
 537 427 l 1,26,-1
 681 427 l 1,27,-1
 681 517 l 1,0,-1
276 285 m 1,28,-1
 309 427 l 1,29,-1
 434 427 l 1,30,-1
 400 285 l 1,31,-1
 276 285 l 1,28,-1
EndSplineSet
EndChar

StartChar: dollar
Encoding: 36 36 7
Width: 633
GlyphClass: 1
Flags: W
LayerCount: 2
Fore
SplineSet
287 -116 m 1,0,-1
 353 -116 l 1,1,-1
 353 61 l 1,2,-1
 287 61 l 1,3,-1
 287 -116 l 1,0,-1
344 75 m 1,4,-1
 344 641 l 1,5,-1
 296 631 l 1,6,-1
 296 77 l 1,7,-1
 344 75 l 1,4,-1
287 643 m 1,8,-1
 353 652 l 1,9,-1
 353 815 l 1,10,-1
 287 815 l 1,11,-1
 287 643 l 1,8,-1
568 636 m 1,12,13
 545 652 545 652 517.5 666 c 128,-1,14
 490 680 490 680 458.5 691 c 128,-1,15
 427 702 427 702 393 708.5 c 128,-1,16
 359 715 359 715 321 715 c 0,17,18
 268 715 268 715 220.5 701 c 128,-1,19
 173 687 173 687 137.5 658.5 c 128,-1,20
 102 630 102 630 82 589 c 128,-1,21
 62 548 62 548 62 493 c 0,22,23
 62 453 62 453 75 423 c 128,-1,24
 88 393 88 393 113 371 c 128,-1,25
 138 349 138 349 176.5 332.5 c 128,-1,26
 215 316 215 316 266 302 c 0,27,28
 309 290 309 290 343 280 c 128,-1,29
 377 270 377 270 401.5 257.5 c 128,-1,30
 426 245 426 245 439 228.5 c 128,-1,31
 452 212 452 212 452 188 c 0,32,33
 452 150 452 150 422 130.5 c 128,-1,34
 392 111 392 111 333 111 c 0,35,36
 293 111 293 111 254 121 c 128,-1,37
 215 131 215 131 182.5 145 c 128,-1,38
 150 159 150 159 126.5 174 c 128,-1,39
 103 189 103 189 93 199 c 1,40,-1
 34 85 l 1,41,42
 65 63 65 63 100 46 c 128,-1,43
 135 29 135 29 173 17 c 128,-1,44
 211 5 211 5 251 -1.5 c 128,-1,45
 291 -8 291 -8 331 -8 c 0,46,47
 384 -8 384 -8 431.5 3.5 c 128,-1,48
 479 15 479 15 515 40 c 128,-1,49
 551 65 551 65 572.5 105 c 128,-1,50
 594 145 594 145 594 201 c 0,51,52
 594 250 594 250 578 284 c 128,-1,53
 562 318 562 318 532 341.5 c 128,-1,54
 502 365 502 365 459.5 381.5 c 128,-1,55
 417 398 417 398 364 411 c 0,56,57
 323 422 323 422 292 430.5 c 128,-1,58
 261 439 261 439 240 450.5 c 128,-1,59
 219 462 219 462 209 477 c 128,-1,60
 199 492 199 492 199 515 c 0,61,62
 199 555 199 555 229 576.5 c 128,-1,63
 259 598 259 598 318 598 c 0,64,65
 350 598 350 598 381 590 c 128,-1,66
 412 582 412 582 438 571 c 128,-1,67
 464 560 464 560 483 548 c 128,-1,68
 502 536 502 536 509 528 c 1,69,-1
 568 636 l 1,12,13
EndSplineSet
EndChar

StartChar: percent
Encoding: 37 37 8
Width: 780
GlyphClass: 1
Flags: W
LayerCount: 2
Fore
SplineSet
199 418 m 256,0,1
 233 418 233 418 263 430 c 128,-1,2
 293 442 293 442 315 462 c 128,-1,3
 337 482 337 482 350 510 c 128,-1,4
 363 538 363 538 363 569 c 256,5,6
 363 600 363 600 350 628 c 128,-1,7
 337 656 337 656 315 676 c 128,-1,8
 293 696 293 696 263 708 c 128,-1,9
 233 720 233 720 199 720 c 256,10,11
 165 720 165 720 135.5 708 c 128,-1,12
 106 696 106 696 83.5 676 c 128,-1,13
 61 656 61 656 48 628 c 128,-1,14
 35 600 35 600 35 569 c 256,15,16
 35 538 35 538 48 510 c 128,-1,17
 61 482 61 482 83.5 462 c 128,-1,18
 106 442 106 442 135.5 430 c 128,-1,19
 165 418 165 418 199 418 c 256,0,1
199 483 m 256,20,21
 184 483 184 483 171 490 c 128,-1,22
 158 497 158 497 147.5 508.5 c 128,-1,23
 137 520 137 520 131.5 536 c 128,-1,24
 126 552 126 552 126 569 c 0,25,26
 126 587 126 587 131.5 602.5 c 128,-1,27
 137 618 137 618 147 629.5 c 128,-1,28
 157 641 157 641 170.5 648 c 128,-1,29
 184 655 184 655 199 655 c 256,30,31
 214 655 214 655 227 648.5 c 128,-1,32
 240 642 240 642 250 630 c 128,-1,33
 260 618 260 618 266 602.5 c 128,-1,34
 272 587 272 587 272 569 c 0,35,36
 272 552 272 552 266.5 536.5 c 128,-1,37
 261 521 261 521 251 509 c 128,-1,38
 241 497 241 497 227.5 490 c 128,-1,39
 214 483 214 483 199 483 c 256,20,21
581 -10 m 256,40,41
 615 -10 615 -10 645 2 c 128,-1,42
 675 14 675 14 697 34 c 128,-1,43
 719 54 719 54 732 82 c 128,-1,44
 745 110 745 110 745 141 c 256,45,46
 745 172 745 172 732 200 c 128,-1,47
 719 228 719 228 697 248 c 128,-1,48
 675 268 675 268 645 280 c 128,-1,49
 615 292 615 292 581 292 c 256,50,51
 547 292 547 292 517.5 280 c 128,-1,52
 488 268 488 268 465.5 248 c 128,-1,53
 443 228 443 228 430.5 200 c 128,-1,54
 418 172 418 172 418 141 c 256,55,56
 418 110 418 110 430.5 82 c 128,-1,57
 443 54 443 54 465.5 34 c 128,-1,58
 488 14 488 14 517.5 2 c 128,-1,59
 547 -10 547 -10 581 -10 c 256,40,41
581 55 m 256,60,61
 566 55 566 55 553 61.5 c 128,-1,62
 540 68 540 68 530 80 c 128,-1,63
 520 92 520 92 514 107.5 c 128,-1,64
 508 123 508 123 508 141 c 0,65,66
 508 158 508 158 514 173.5 c 128,-1,67
 520 189 520 189 529.5 201 c 128,-1,68
 539 213 539 213 552.5 220 c 128,-1,69
 566 227 566 227 581 227 c 256,70,71
 596 227 596 227 609.5 220 c 128,-1,72
 623 213 623 213 632.5 201.5 c 128,-1,73
 642 190 642 190 648 174 c 128,-1,74
 654 158 654 158 654 141 c 0,75,76
 654 123 654 123 648.5 107.5 c 128,-1,77
 643 92 643 92 633 80.5 c 128,-1,78
 623 69 623 69 609.5 62 c 128,-1,79
 596 55 596 55 581 55 c 256,60,61
148 -7 m 1,80,-1
 416 341 l 1,81,-1
 691 665 l 1,82,-1
 632 717 l 1,83,-1
 371 376 l 1,84,-1
 89 46 l 1,85,-1
 148 -7 l 1,80,-1
EndSplineSet
EndChar

StartChar: ampersand
Encoding: 38 38 9
Width: 708
GlyphClass: 1
Flags: W
LayerCount: 2
Fore
SplineSet
708 0 m 1,0,-1
 303 424 l 2,1,2
 274 455 274 455 255 474.5 c 128,-1,3
 236 494 236 494 225.5 508.5 c 128,-1,4
 215 523 215 523 210.5 533 c 128,-1,5
 206 543 206 543 206 554 c 0,6,7
 206 569 206 569 211.5 581.5 c 128,-1,8
 217 594 217 594 227 603.5 c 128,-1,9
 237 613 237 613 251 618.5 c 128,-1,10
 265 624 265 624 281 624 c 0,11,12
 312 624 312 624 331.5 606.5 c 128,-1,13
 351 589 351 589 351 562 c 0,14,15
 351 543 351 543 341.5 528 c 128,-1,16
 332 513 332 513 314 497.5 c 128,-1,17
 296 482 296 482 271 466 c 128,-1,18
 246 450 246 450 213 430 c 0,19,20
 182 410 182 410 151.5 387.5 c 128,-1,21
 121 365 121 365 96 337 c 128,-1,22
 71 309 71 309 56 275 c 128,-1,23
 41 241 41 241 41 199 c 256,24,25
 41 157 41 157 58 119 c 128,-1,26
 75 81 75 81 106 52.5 c 128,-1,27
 137 24 137 24 181 7 c 128,-1,28
 225 -10 225 -10 279 -10 c 0,29,30
 346 -10 346 -10 408 17 c 128,-1,31
 470 44 470 44 518 95 c 128,-1,32
 566 146 566 146 595 219.5 c 128,-1,33
 624 293 624 293 624 386 c 1,34,-1
 519 386 l 1,35,36
 519 320 519 320 500 265.5 c 128,-1,37
 481 211 481 211 449.5 172.5 c 128,-1,38
 418 134 418 134 377 112.5 c 128,-1,39
 336 91 336 91 292 91 c 0,40,41
 265 91 265 91 241.5 99.5 c 128,-1,42
 218 108 218 108 201 122.5 c 128,-1,43
 184 137 184 137 174.5 157 c 128,-1,44
 165 177 165 177 165 199 c 256,45,46
 165 221 165 221 174.5 240.5 c 128,-1,47
 184 260 184 260 201.5 278 c 128,-1,48
 219 296 219 296 243 313 c 128,-1,49
 267 330 267 330 294 347 c 0,50,51
 330 370 330 370 362 393 c 128,-1,52
 394 416 394 416 417.5 442 c 128,-1,53
 441 468 441 468 455 498 c 128,-1,54
 469 528 469 528 469 564 c 0,55,56
 469 602 469 602 453.5 631 c 128,-1,57
 438 660 438 660 412 679.5 c 128,-1,58
 386 699 386 699 352.5 709 c 128,-1,59
 319 719 319 719 281 719 c 0,60,61
 240 719 240 719 204.5 707 c 128,-1,62
 169 695 169 695 143.5 672.5 c 128,-1,63
 118 650 118 650 103 619 c 128,-1,64
 88 588 88 588 88 550 c 0,65,66
 88 527 88 527 94 506.5 c 128,-1,67
 100 486 100 486 113.5 464 c 128,-1,68
 127 442 127 442 149.5 415.5 c 128,-1,69
 172 389 172 389 203 355 c 2,70,-1
 538 0 l 1,71,-1
 708 0 l 1,0,-1
EndSplineSet
EndChar

StartChar: quotesingle
Encoding: 39 39 10
Width: 232
GlyphClass: 1
Flags: W
LayerCount: 2
Fore
SplineSet
114 504 m 1,0,-1
 207 722 l 1,1,-1
 95 722 l 1,2,-1
 55 504 l 1,3,-1
 114 504 l 1,0,-1
EndSplineSet
EndChar

StartChar: parenleft
Encoding: 40 40 11
Width: 307
GlyphClass: 1
Flags: W
LayerCount: 2
Fore
SplineSet
35 347 m 256,0,1
 35 296 35 296 46.5 245 c 128,-1,2
 58 194 58 194 78.5 144 c 128,-1,3
 99 94 99 94 126 44.5 c 128,-1,4
 153 -5 153 -5 184 -52 c 1,5,-1
 278 -4 l 1,6,7
 251 41 251 41 228.5 86.5 c 128,-1,8
 206 132 206 132 189.5 176 c 128,-1,9
 173 220 173 220 164 262 c 128,-1,10
 155 304 155 304 155 344 c 0,11,12
 155 395 155 395 169 450 c 128,-1,13
 183 505 183 505 202.5 555.5 c 128,-1,14
 222 606 222 606 243.5 648 c 128,-1,15
 265 690 265 690 282 714 c 1,16,-1
 183 755 l 1,17,18
 152 703 152 703 125 651.5 c 128,-1,19
 98 600 98 600 78 549.5 c 128,-1,20
 58 499 58 499 46.5 448.5 c 128,-1,21
 35 398 35 398 35 347 c 256,0,1
EndSplineSet
EndChar

StartChar: parenright
Encoding: 41 41 12
Width: 306
GlyphClass: 1
Flags: W
LayerCount: 2
Fore
SplineSet
271 347 m 256,0,1
 271 398 271 398 259.5 448.5 c 128,-1,2
 248 499 248 499 228 549.5 c 128,-1,3
 208 600 208 600 181.5 651.5 c 128,-1,4
 155 703 155 703 123 755 c 1,5,-1
 25 714 l 1,6,7
 41 690 41 690 62.5 648 c 128,-1,8
 84 606 84 606 103.5 555.5 c 128,-1,9
 123 505 123 505 137 450 c 128,-1,10
 151 395 151 395 151 344 c 0,11,12
 151 304 151 304 142 262 c 128,-1,13
 133 220 133 220 116.5 176 c 128,-1,14
 100 132 100 132 77.5 86.5 c 128,-1,15
 55 41 55 41 28 -4 c 1,16,-1
 122 -52 l 1,17,18
 154 -5 154 -5 181 44.5 c 128,-1,19
 208 94 208 94 228 144 c 128,-1,20
 248 194 248 194 259.5 245 c 128,-1,21
 271 296 271 296 271 347 c 256,0,1
EndSplineSet
EndChar

StartChar: asterisk
Encoding: 42 42 13
Width: 343
GlyphClass: 1
Flags: W
LayerCount: 2
Fore
SplineSet
126 489 m 1,0,-1
 172 563 l 1,1,-1
 217 489 l 1,2,-1
 267 522 l 1,3,-1
 221 593 l 1,4,-1
 291 614 l 1,5,-1
 273 670 l 1,6,-1
 201 640 l 1,7,-1
 206 717 l 1,8,-1
 137 717 l 1,9,-1
 142 640 l 1,10,-1
 70 670 l 1,11,-1
 52 614 l 1,12,-1
 122 593 l 1,13,-1
 76 522 l 1,14,-1
 126 489 l 1,0,-1
EndSplineSet
EndChar

StartChar: plus
Encoding: 43 43 14
Width: 421
GlyphClass: 1
Flags: W
LayerCount: 2
Fore
SplineSet
268 407 m 1,0,-1
 268 521 l 1,1,-1
 152 521 l 1,2,-1
 152 407 l 1,3,-1
 48 407 l 1,4,-1
 48 303 l 1,5,-1
 152 303 l 1,6,-1
 152 189 l 1,7,-1
 268 189 l 1,8,-1
 268 303 l 1,9,-1
 373 303 l 1,10,-1
 373 407 l 1,11,-1
 268 407 l 1,0,-1
EndSplineSet
EndChar

StartChar: comma
Encoding: 44 44 15
Width: 229
GlyphClass: 1
Flags: W
LayerCount: 2
Fore
SplineSet
76 -160 m 1,0,-1
 177 100 l 1,1,-1
 65 100 l 1,2,-1
 18 -160 l 1,3,-1
 76 -160 l 1,0,-1
EndSplineSet
EndChar

StartChar: hyphen
Encoding: 45 45 16
Width: 419
GlyphClass: 1
Flags: W
LayerCount: 2
Fore
SplineSet
361 216 m 1,0,-1
 361 332 l 1,1,-1
 58 332 l 1,2,-1
 58 216 l 1,3,-1
 361 216 l 1,0,-1
EndSplineSet
EndChar

StartChar: period
Encoding: 46 46 17
Width: 223
GlyphClass: 1
Flags: W
LayerCount: 2
Fore
SplineSet
40 61 m 256,0,1
 40 32 40 32 61 11 c 128,-1,2
 82 -10 82 -10 111 -10 c 256,3,4
 140 -10 140 -10 161 11 c 128,-1,5
 182 32 182 32 182 61 c 256,6,7
 182 90 182 90 161 111 c 128,-1,8
 140 132 140 132 111 132 c 256,9,10
 82 132 82 132 61 111 c 128,-1,11
 40 90 40 90 40 61 c 256,0,1
EndSplineSet
EndChar

StartChar: slash
Encoding: 47 47 18
Width: 691
GlyphClass: 1
Flags: W
LayerCount: 2
Fore
SplineSet
520 710 m 1,0,-1
 27 0 l 1,1,-1
 169 0 l 1,2,-1
 663 710 l 1,3,-1
 520 710 l 1,0,-1
EndSplineSet
Substitution2: "'frac' Diagonal Fractions lookup 21 subtable" fraction
Substitution2: "'aalt' Access All Alternates lookup 0 subtable" fraction
EndChar

StartChar: zero
Encoding: 48 48 19
Width: 700
GlyphClass: 1
Flags: W
LayerCount: 2
Fore
SplineSet
350 -10 m 0,0,1
 421 -9 421 -9 478 23 c 128,-1,2
 535 55 535 55 575 106 c 128,-1,3
 615 157 615 157 636 221 c 128,-1,4
 657 285 657 285 657 350 c 0,5,6
 657 408 657 408 637.5 471.5 c 128,-1,7
 618 535 618 535 579.5 588 c 128,-1,8
 541 641 541 641 483.5 675.5 c 128,-1,9
 426 710 426 710 350 710 c 0,10,11
 278 710 278 710 221.5 678 c 128,-1,12
 165 646 165 646 125 594.5 c 128,-1,13
 85 543 85 543 63.5 478.5 c 128,-1,14
 42 414 42 414 42 350 c 0,15,16
 42 290 42 290 61.5 227 c 128,-1,17
 81 164 81 164 120 111.5 c 128,-1,18
 159 59 159 59 216.5 25 c 128,-1,19
 274 -9 274 -9 350 -10 c 0,0,1
176 350 m 0,20,21
 176 388 176 388 186 430.5 c 128,-1,22
 196 473 196 473 217 509 c 128,-1,23
 238 545 238 545 271 568.5 c 128,-1,24
 304 592 304 592 350 592 c 0,25,26
 393 592 393 592 425.5 570 c 128,-1,27
 458 548 458 548 479.5 513 c 128,-1,28
 501 478 501 478 512.5 435.5 c 128,-1,29
 524 393 524 393 524 350 c 0,30,31
 524 312 524 312 513.5 269.5 c 128,-1,32
 503 227 503 227 482 191 c 128,-1,33
 461 155 461 155 428.5 131.5 c 128,-1,34
 396 108 396 108 350 108 c 0,35,36
 306 108 306 108 274 130 c 128,-1,37
 242 152 242 152 220 187 c 128,-1,38
 198 222 198 222 187.5 264.5 c 128,-1,39
 177 307 177 307 176 350 c 0,20,21
EndSplineSet
Substitution2: "'tnum' Tabular Numbers lookup 41 subtable" zero.tnum
Substitution2: "'frac' Diagonal Fractions lookup 22 subtable" zero.numr
Substitution2: "'dnom' Denominators lookup 20 subtable" zero.dnom
Substitution2: "'numr' Numerators lookup 19 subtable" zero.numr
Substitution2: "'sups' Superscript lookup 18 subtable" uni2070
Substitution2: "'sinf' Scientific Inferiors lookup 17 subtable" zero.subs
Substitution2: "'subs' Subscript lookup 16 subtable" uni2080
AlternateSubs2: "'aalt' Access All Alternates lookup 1 subtable" uni2080 zero.subs uni2070 zero.numr zero.dnom
EndChar

StartChar: one
Encoding: 49 49 20
Width: 430
GlyphClass: 1
Flags: W
LayerCount: 2
Fore
SplineSet
336 717 m 1,0,-1
 204 717 l 2,1,2
 203 716 203 716 188 700.5 c 128,-1,3
 173 685 173 685 149.5 667.5 c 128,-1,4
 126 650 126 650 98 635.5 c 128,-1,5
 70 621 70 621 43 621 c 1,6,-1
 43 502 l 1,7,8
 63 502 63 502 87.5 511 c 128,-1,9
 112 520 112 520 135 533.5 c 128,-1,10
 158 547 158 547 177 561.5 c 128,-1,11
 196 576 196 576 204 588 c 1,12,-1
 204 0 l 1,13,-1
 336 0 l 1,14,-1
 336 717 l 1,0,-1
EndSplineSet
Substitution2: "'tnum' Tabular Numbers lookup 41 subtable" one.tnum
Substitution2: "'frac' Diagonal Fractions lookup 22 subtable" one.numr
Substitution2: "'dnom' Denominators lookup 20 subtable" one.dnom
Substitution2: "'numr' Numerators lookup 19 subtable" one.numr
Substitution2: "'sups' Superscript lookup 18 subtable" onesuperior
Substitution2: "'sinf' Scientific Inferiors lookup 17 subtable" one.subs
Substitution2: "'subs' Subscript lookup 16 subtable" uni2081
AlternateSubs2: "'aalt' Access All Alternates lookup 1 subtable" uni2081 one.subs onesuperior one.numr one.dnom
EndChar

StartChar: two
Encoding: 50 50 21
Width: 606
GlyphClass: 1
Flags: W
LayerCount: 2
Fore
SplineSet
555 0 m 1,0,-1
 555 116 l 1,1,-1
 197 116 l 1,2,3
 202 136 202 136 211.5 154 c 128,-1,4
 221 172 221 172 239.5 191 c 128,-1,5
 258 210 258 210 290.5 231.5 c 128,-1,6
 323 253 323 253 376 281 c 0,7,8
 409 300 409 300 441 320 c 128,-1,9
 473 340 473 340 498 366.5 c 128,-1,10
 523 393 523 393 538.5 427.5 c 128,-1,11
 554 462 554 462 554 508 c 0,12,13
 554 553 554 553 538.5 592 c 128,-1,14
 523 631 523 631 493 659 c 128,-1,15
 463 687 463 687 418.5 703 c 128,-1,16
 374 719 374 719 316 719 c 0,17,18
 263 719 263 719 219 706 c 128,-1,19
 175 693 175 693 140.5 674.5 c 128,-1,20
 106 656 106 656 82 636 c 128,-1,21
 58 616 58 616 45 601 c 1,22,-1
 126 516 l 1,23,24
 139 530 139 530 157 545.5 c 128,-1,25
 175 561 175 561 197 573.5 c 128,-1,26
 219 586 219 586 245 594 c 128,-1,27
 271 602 271 602 300 602 c 0,28,29
 326 602 326 602 346 595 c 128,-1,30
 366 588 366 588 380 574.5 c 128,-1,31
 394 561 394 561 401 543 c 128,-1,32
 408 525 408 525 408 502 c 0,33,34
 408 463 408 463 387.5 435.5 c 128,-1,35
 367 408 367 408 335 386.5 c 128,-1,36
 303 365 303 365 264.5 346.5 c 128,-1,37
 226 328 226 328 191 307 c 0,38,39
 150 283 150 283 122 255 c 128,-1,40
 94 227 94 227 76 190.5 c 128,-1,41
 58 154 58 154 50 107.5 c 128,-1,42
 42 61 42 61 42 0 c 1,43,-1
 555 0 l 1,0,-1
EndSplineSet
Substitution2: "'tnum' Tabular Numbers lookup 41 subtable" two.tnum
Substitution2: "'frac' Diagonal Fractions lookup 22 subtable" two.numr
Substitution2: "'dnom' Denominators lookup 20 subtable" two.dnom
Substitution2: "'numr' Numerators lookup 19 subtable" two.numr
Substitution2: "'sups' Superscript lookup 18 subtable" twosuperior
Substitution2: "'sinf' Scientific Inferiors lookup 17 subtable" two.subs
Substitution2: "'subs' Subscript lookup 16 subtable" uni2082
AlternateSubs2: "'aalt' Access All Alternates lookup 1 subtable" uni2082 two.subs twosuperior two.numr two.dnom
EndChar

StartChar: three
Encoding: 51 51 22
Width: 585
GlyphClass: 1
Flags: W
LayerCount: 2
Fore
SplineSet
269 -7 m 0,0,1
 326 -7 326 -7 375.5 6 c 128,-1,2
 425 19 425 19 461 45 c 128,-1,3
 497 71 497 71 518 108 c 128,-1,4
 539 145 539 145 539 191 c 0,5,6
 539 225 539 225 528.5 255.5 c 128,-1,7
 518 286 518 286 498.5 310 c 128,-1,8
 479 334 479 334 451.5 350 c 128,-1,9
 424 366 424 366 390 372 c 1,10,11
 421 379 421 379 446 393 c 128,-1,12
 471 407 471 407 488.5 427.5 c 128,-1,13
 506 448 506 448 515.5 474.5 c 128,-1,14
 525 501 525 501 525 531 c 0,15,16
 525 572 525 572 507 606 c 128,-1,17
 489 640 489 640 457 665.5 c 128,-1,18
 425 691 425 691 380.5 705 c 128,-1,19
 336 719 336 719 282 719 c 0,20,21
 244 719 244 719 207.5 711.5 c 128,-1,22
 171 704 171 704 139.5 690.5 c 128,-1,23
 108 677 108 677 82 658 c 128,-1,24
 56 639 56 639 40 615 c 1,25,-1
 124 522 l 1,26,27
 144 559 144 559 182.5 583 c 128,-1,28
 221 607 221 607 274 607 c 0,29,30
 297 607 297 607 317.5 600.5 c 128,-1,31
 338 594 338 594 353.5 582.5 c 128,-1,32
 369 571 369 571 378 553.5 c 128,-1,33
 387 536 387 536 387 514 c 0,34,35
 387 465 387 465 343 440 c 128,-1,36
 299 415 299 415 224 415 c 2,37,-1
 189 415 l 1,38,-1
 189 318 l 1,39,-1
 222 318 l 2,40,41
 266 318 266 318 300.5 311 c 128,-1,42
 335 304 335 304 358 291 c 128,-1,43
 381 278 381 278 393.5 258 c 128,-1,44
 406 238 406 238 406 212 c 0,45,46
 406 188 406 188 395.5 169 c 128,-1,47
 385 150 385 150 366.5 137 c 128,-1,48
 348 124 348 124 322.5 117 c 128,-1,49
 297 110 297 110 265 110 c 0,50,51
 238 110 238 110 214.5 114.5 c 128,-1,52
 191 119 191 119 170.5 128.5 c 128,-1,53
 150 138 150 138 133.5 151 c 128,-1,54
 117 164 117 164 105 181 c 1,55,-1
 31 90 l 1,56,57
 50 66 50 66 75 48 c 128,-1,58
 100 30 100 30 131 18 c 128,-1,59
 162 6 162 6 196.5 -0.5 c 128,-1,60
 231 -7 231 -7 269 -7 c 0,0,1
EndSplineSet
Substitution2: "'tnum' Tabular Numbers lookup 41 subtable" three.tnum
Substitution2: "'frac' Diagonal Fractions lookup 22 subtable" three.numr
Substitution2: "'dnom' Denominators lookup 20 subtable" three.dnom
Substitution2: "'numr' Numerators lookup 19 subtable" three.numr
Substitution2: "'sups' Superscript lookup 18 subtable" threesuperior
Substitution2: "'sinf' Scientific Inferiors lookup 17 subtable" three.subs
Substitution2: "'subs' Subscript lookup 16 subtable" uni2083
AlternateSubs2: "'aalt' Access All Alternates lookup 1 subtable" uni2083 three.subs threesuperior three.numr three.dnom
EndChar

StartChar: four
Encoding: 52 52 23
Width: 585
GlyphClass: 1
Flags: W
LayerCount: 2
Fore
SplineSet
458 0 m 1,0,-1
 458 163 l 1,1,-1
 546 163 l 1,2,-1
 546 279 l 1,3,-1
 458 279 l 1,4,-1
 458 710 l 1,5,-1
 370 710 l 1,6,-1
 26 279 l 1,7,-1
 26 163 l 1,8,-1
 329 163 l 1,9,-1
 329 0 l 1,10,-1
 458 0 l 1,0,-1
344 516 m 1,11,-1
 344 279 l 1,12,-1
 156 279 l 1,13,-1
 344 516 l 1,11,-1
EndSplineSet
Substitution2: "'tnum' Tabular Numbers lookup 41 subtable" four.tnum
Substitution2: "'frac' Diagonal Fractions lookup 22 subtable" four.numr
Substitution2: "'dnom' Denominators lookup 20 subtable" four.dnom
Substitution2: "'numr' Numerators lookup 19 subtable" four.numr
Substitution2: "'sups' Superscript lookup 18 subtable" uni2074
Substitution2: "'sinf' Scientific Inferiors lookup 17 subtable" four.subs
Substitution2: "'subs' Subscript lookup 16 subtable" uni2084
AlternateSubs2: "'aalt' Access All Alternates lookup 1 subtable" uni2084 four.subs uni2074 four.numr four.dnom
EndChar

StartChar: five
Encoding: 53 53 24
Width: 568
GlyphClass: 1
Flags: W
LayerCount: 2
Fore
SplineSet
269 -10 m 0,0,1
 325 -10 325 -10 372.5 7.5 c 128,-1,2
 420 25 420 25 455 57 c 128,-1,3
 490 89 490 89 509.5 133 c 128,-1,4
 529 177 529 177 529 230 c 0,5,6
 529 281 529 281 511.5 322.5 c 128,-1,7
 494 364 494 364 462.5 394.5 c 128,-1,8
 431 425 431 425 388.5 441.5 c 128,-1,9
 346 458 346 458 296 458 c 0,10,11
 261 458 261 458 236.5 449.5 c 128,-1,12
 212 441 212 441 199 426 c 1,13,-1
 229 593 l 1,14,-1
 485 593 l 1,15,-1
 485 710 l 1,16,-1
 136 710 l 1,17,-1
 54 290 l 1,18,-1
 167 290 l 1,19,20
 185 317 185 317 214.5 332.5 c 128,-1,21
 244 348 244 348 278 348 c 0,22,23
 303 348 303 348 325 339.5 c 128,-1,24
 347 331 347 331 363 314.5 c 128,-1,25
 379 298 379 298 388 276 c 128,-1,26
 397 254 397 254 397 227 c 256,27,28
 397 200 397 200 387.5 177.5 c 128,-1,29
 378 155 378 155 361.5 138.5 c 128,-1,30
 345 122 345 122 321 113 c 128,-1,31
 297 104 297 104 270 104 c 0,32,33
 224 104 224 104 181.5 127.5 c 128,-1,34
 139 151 139 151 111 192 c 1,35,-1
 36 115 l 1,36,37
 69 57 69 57 130.5 23.5 c 128,-1,38
 192 -10 192 -10 269 -10 c 0,0,1
EndSplineSet
Substitution2: "'tnum' Tabular Numbers lookup 41 subtable" five.tnum
Substitution2: "'frac' Diagonal Fractions lookup 22 subtable" five.numr
Substitution2: "'dnom' Denominators lookup 20 subtable" five.dnom
Substitution2: "'numr' Numerators lookup 19 subtable" five.numr
Substitution2: "'sups' Superscript lookup 18 subtable" uni2075
Substitution2: "'sinf' Scientific Inferiors lookup 17 subtable" five.subs
Substitution2: "'subs' Subscript lookup 16 subtable" uni2085
AlternateSubs2: "'aalt' Access All Alternates lookup 1 subtable" uni2085 five.subs uni2075 five.numr five.dnom
EndChar

StartChar: six
Encoding: 54 54 25
Width: 607
GlyphClass: 1
Flags: W
LayerCount: 2
Fore
SplineSet
566 237 m 0,0,1
 566 186 566 186 546.5 140.5 c 128,-1,2
 527 95 527 95 491.5 61.5 c 128,-1,3
 456 28 456 28 409 9 c 128,-1,4
 362 -10 362 -10 307 -10 c 0,5,6
 247 -10 247 -10 199 12 c 128,-1,7
 151 34 151 34 117 75.5 c 128,-1,8
 83 117 83 117 64.5 177 c 128,-1,9
 46 237 46 237 46 314 c 0,10,11
 46 412 46 412 65.5 487 c 128,-1,12
 85 562 85 562 120.5 612.5 c 128,-1,13
 156 663 156 663 206.5 689 c 128,-1,14
 257 715 257 715 320 715 c 0,15,16
 388 715 388 715 444.5 686 c 128,-1,17
 501 657 501 657 539 601 c 1,18,-1
 465 521 l 1,19,20
 441 559 441 559 402.5 581.5 c 128,-1,21
 364 604 364 604 318 604 c 0,22,23
 284 604 284 604 256.5 589.5 c 128,-1,24
 229 575 229 575 209 548 c 128,-1,25
 189 521 189 521 178 481.5 c 128,-1,26
 167 442 167 442 166 392 c 1,27,28
 177 411 177 411 192 426 c 128,-1,29
 207 441 207 441 227 451.5 c 128,-1,30
 247 462 247 462 270 468 c 128,-1,31
 293 474 293 474 319 474 c 0,32,33
 371 474 371 474 416.5 455.5 c 128,-1,34
 462 437 462 437 495 405.5 c 128,-1,35
 528 374 528 374 547 330.5 c 128,-1,36
 566 287 566 287 566 237 c 0,0,1
308 99 m 0,37,38
 336 99 336 99 360.5 110 c 128,-1,39
 385 121 385 121 403 140 c 128,-1,40
 421 159 421 159 432 184 c 128,-1,41
 443 209 443 209 443 237 c 256,42,43
 443 265 443 265 432.5 289.5 c 128,-1,44
 422 314 422 314 403.5 332 c 128,-1,45
 385 350 385 350 360.5 360.5 c 128,-1,46
 336 371 336 371 308 371 c 256,47,48
 280 371 280 371 255.5 360.5 c 128,-1,49
 231 350 231 350 212.5 332 c 128,-1,50
 194 314 194 314 183 289.5 c 128,-1,51
 172 265 172 265 172 237 c 256,52,53
 172 209 172 209 183 184 c 128,-1,54
 194 159 194 159 212.5 140 c 128,-1,55
 231 121 231 121 256 110 c 128,-1,56
 281 99 281 99 308 99 c 0,37,38
EndSplineSet
Substitution2: "'tnum' Tabular Numbers lookup 41 subtable" six.tnum
Substitution2: "'frac' Diagonal Fractions lookup 22 subtable" six.numr
Substitution2: "'dnom' Denominators lookup 20 subtable" six.dnom
Substitution2: "'numr' Numerators lookup 19 subtable" six.numr
Substitution2: "'sups' Superscript lookup 18 subtable" uni2076
Substitution2: "'sinf' Scientific Inferiors lookup 17 subtable" six.subs
Substitution2: "'subs' Subscript lookup 16 subtable" uni2086
AlternateSubs2: "'aalt' Access All Alternates lookup 1 subtable" uni2086 six.subs uni2076 six.numr six.dnom
EndChar

StartChar: seven
Encoding: 55 55 26
Width: 560
GlyphClass: 1
Flags: W
LayerCount: 2
Fore
SplineSet
65 0 m 1,0,-1
 210 0 l 1,1,-1
 564 710 l 1,2,-1
 34 710 l 1,3,-1
 34 593 l 1,4,-1
 360 593 l 1,5,-1
 65 0 l 1,0,-1
EndSplineSet
Substitution2: "'tnum' Tabular Numbers lookup 41 subtable" seven.tnum
Substitution2: "'frac' Diagonal Fractions lookup 22 subtable" seven.numr
Substitution2: "'dnom' Denominators lookup 20 subtable" seven.dnom
Substitution2: "'numr' Numerators lookup 19 subtable" seven.numr
Substitution2: "'sups' Superscript lookup 18 subtable" uni2077
Substitution2: "'sinf' Scientific Inferiors lookup 17 subtable" seven.subs
Substitution2: "'subs' Subscript lookup 16 subtable" uni2087
AlternateSubs2: "'aalt' Access All Alternates lookup 1 subtable" uni2087 seven.subs uni2077 seven.numr seven.dnom
EndChar

StartChar: eight
Encoding: 56 56 27
Width: 603
GlyphClass: 1
Flags: W
LayerCount: 2
Fore
SplineSet
559 209 m 0,0,1
 559 240 559 240 549 266.5 c 128,-1,2
 539 293 539 293 523.5 314.5 c 128,-1,3
 508 336 508 336 487 352.5 c 128,-1,4
 466 369 466 369 444 380 c 1,5,6
 463 388 463 388 480 402.5 c 128,-1,7
 497 417 497 417 509.5 435 c 128,-1,8
 522 453 522 453 529.5 473.5 c 128,-1,9
 537 494 537 494 537 515 c 0,10,11
 537 563 537 563 515.5 599.5 c 128,-1,12
 494 636 494 636 460 660.5 c 128,-1,13
 426 685 426 685 384 697.5 c 128,-1,14
 342 710 342 710 301 710 c 0,15,16
 261 710 261 710 219.5 697.5 c 128,-1,17
 178 685 178 685 144 659.5 c 128,-1,18
 110 634 110 634 88.5 597.5 c 128,-1,19
 67 561 67 561 67 514 c 0,20,21
 67 492 67 492 74 471.5 c 128,-1,22
 81 451 81 451 93.5 433.5 c 128,-1,23
 106 416 106 416 123 402.5 c 128,-1,24
 140 389 140 389 158 380 c 1,25,26
 138 370 138 370 117.5 354 c 128,-1,27
 97 338 97 338 81 317 c 128,-1,28
 65 296 65 296 54.5 270 c 128,-1,29
 44 244 44 244 44 214 c 0,30,31
 44 165 44 165 64.5 124 c 128,-1,32
 85 83 85 83 119.5 53.5 c 128,-1,33
 154 24 154 24 200.5 7.5 c 128,-1,34
 247 -9 247 -9 300 -9 c 256,35,36
 353 -9 353 -9 400 6.5 c 128,-1,37
 447 22 447 22 482.5 50.5 c 128,-1,38
 518 79 518 79 538.5 119 c 128,-1,39
 559 159 559 159 559 209 c 0,0,1
428 217 m 0,40,41
 428 193 428 193 417.5 173 c 128,-1,42
 407 153 407 153 389.5 138.5 c 128,-1,43
 372 124 372 124 349.5 116 c 128,-1,44
 327 108 327 108 302 108 c 0,45,46
 278 108 278 108 255.5 116 c 128,-1,47
 233 124 233 124 215.5 137.5 c 128,-1,48
 198 151 198 151 186.5 171.5 c 128,-1,49
 175 192 175 192 175 216 c 0,50,51
 175 241 175 241 185.5 261.5 c 128,-1,52
 196 282 196 282 213.5 296.5 c 128,-1,53
 231 311 231 311 253.5 318.5 c 128,-1,54
 276 326 276 326 301 326 c 0,55,56
 325 326 325 326 348 319 c 128,-1,57
 371 312 371 312 388.5 298 c 128,-1,58
 406 284 406 284 417 263.5 c 128,-1,59
 428 243 428 243 428 217 c 0,40,41
197 511 m 0,60,61
 197 530 197 530 205.5 545.5 c 128,-1,62
 214 561 214 561 228 572.5 c 128,-1,63
 242 584 242 584 261 590 c 128,-1,64
 280 596 280 596 301 596 c 256,65,66
 322 596 322 596 341 590 c 128,-1,67
 360 584 360 584 374.5 573 c 128,-1,68
 389 562 389 562 397.5 546.5 c 128,-1,69
 406 531 406 531 406 512 c 0,70,71
 406 490 406 490 396.5 473.5 c 128,-1,72
 387 457 387 457 372 446 c 128,-1,73
 357 435 357 435 338.5 429 c 128,-1,74
 320 423 320 423 301 423 c 0,75,76
 283 423 283 423 264.5 428.5 c 128,-1,77
 246 434 246 434 231 445.5 c 128,-1,78
 216 457 216 457 206.5 473 c 128,-1,79
 197 489 197 489 197 511 c 0,60,61
EndSplineSet
Substitution2: "'tnum' Tabular Numbers lookup 41 subtable" eight.tnum
Substitution2: "'frac' Diagonal Fractions lookup 22 subtable" eight.numr
Substitution2: "'dnom' Denominators lookup 20 subtable" eight.dnom
Substitution2: "'numr' Numerators lookup 19 subtable" eight.numr
Substitution2: "'sups' Superscript lookup 18 subtable" uni2078
Substitution2: "'sinf' Scientific Inferiors lookup 17 subtable" eight.subs
Substitution2: "'subs' Subscript lookup 16 subtable" uni2088
AlternateSubs2: "'aalt' Access All Alternates lookup 1 subtable" uni2088 eight.subs uni2078 eight.numr eight.dnom
EndChar

StartChar: nine
Encoding: 57 57 28
Width: 607
GlyphClass: 1
Flags: W
LayerCount: 2
Fore
SplineSet
41 468 m 0,0,1
 41 520 41 520 60.5 565.5 c 128,-1,2
 80 611 80 611 115 644 c 128,-1,3
 150 677 150 677 197 696 c 128,-1,4
 244 715 244 715 300 715 c 0,5,6
 359 715 359 715 407.5 693 c 128,-1,7
 456 671 456 671 490 630 c 128,-1,8
 524 589 524 589 542.5 529 c 128,-1,9
 561 469 561 469 561 392 c 0,10,11
 561 294 561 294 541.5 219 c 128,-1,12
 522 144 522 144 486.5 93.5 c 128,-1,13
 451 43 451 43 400 16.5 c 128,-1,14
 349 -10 349 -10 287 -10 c 0,15,16
 219 -10 219 -10 162.5 19.5 c 128,-1,17
 106 49 106 49 68 105 c 1,18,-1
 142 185 l 1,19,20
 166 147 166 147 204.5 124.5 c 128,-1,21
 243 102 243 102 288 102 c 0,22,23
 323 102 323 102 350.5 116.5 c 128,-1,24
 378 131 378 131 398 158 c 128,-1,25
 418 185 418 185 429 224 c 128,-1,26
 440 263 440 263 441 314 c 1,27,28
 430 295 430 295 414.5 280 c 128,-1,29
 399 265 399 265 379.5 254 c 128,-1,30
 360 243 360 243 337 237.5 c 128,-1,31
 314 232 314 232 288 232 c 0,32,33
 236 232 236 232 190.5 250 c 128,-1,34
 145 268 145 268 112 300 c 128,-1,35
 79 332 79 332 60 375 c 128,-1,36
 41 418 41 418 41 468 c 0,0,1
299 607 m 0,37,38
 272 607 272 607 247 596 c 128,-1,39
 222 585 222 585 204 566 c 128,-1,40
 186 547 186 547 175 522 c 128,-1,41
 164 497 164 497 164 469 c 256,42,43
 164 441 164 441 175 416.5 c 128,-1,44
 186 392 186 392 204 374 c 128,-1,45
 222 356 222 356 247 345.5 c 128,-1,46
 272 335 272 335 300 335 c 256,47,48
 328 335 328 335 352.5 345.5 c 128,-1,49
 377 356 377 356 395.5 374 c 128,-1,50
 414 392 414 392 424.5 416.5 c 128,-1,51
 435 441 435 441 435 468 c 0,52,53
 435 497 435 497 424 521.5 c 128,-1,54
 413 546 413 546 394.5 565.5 c 128,-1,55
 376 585 376 585 351.5 596 c 128,-1,56
 327 607 327 607 299 607 c 0,37,38
EndSplineSet
Substitution2: "'tnum' Tabular Numbers lookup 41 subtable" nine.tnum
Substitution2: "'frac' Diagonal Fractions lookup 22 subtable" nine.numr
Substitution2: "'dnom' Denominators lookup 20 subtable" nine.dnom
Substitution2: "'numr' Numerators lookup 19 subtable" nine.numr
Substitution2: "'sups' Superscript lookup 18 subtable" uni2079
Substitution2: "'sinf' Scientific Inferiors lookup 17 subtable" nine.subs
Substitution2: "'subs' Subscript lookup 16 subtable" uni2089
AlternateSubs2: "'aalt' Access All Alternates lookup 1 subtable" uni2089 nine.subs uni2079 nine.numr nine.dnom
EndChar

StartChar: less
Encoding: 60 60 31
Width: 514
GlyphClass: 1
Flags: W
LayerCount: 2
Fore
SplineSet
32 224 m 1,0,-1
 454 -26 l 1,1,-1
 454 118 l 1,2,-1
 219 259 l 1,3,-1
 454 405 l 1,4,-1
 454 542 l 1,5,-1
 32 287 l 1,6,-1
 32 224 l 1,0,-1
EndSplineSet
EndChar

StartChar: equal
Encoding: 61 61 32
Width: 437
GlyphClass: 1
Flags: W
LayerCount: 2
Fore
SplineSet
374 148 m 1,0,-1
 374 232 l 1,1,-1
 62 232 l 1,2,-1
 62 148 l 1,3,-1
 374 148 l 1,0,-1
374 320 m 1,4,-1
 374 404 l 1,5,-1
 62 404 l 1,6,-1
 62 320 l 1,7,-1
 374 320 l 1,4,-1
EndSplineSet
EndChar

StartChar: greater
Encoding: 62 62 33
Width: 514
GlyphClass: 1
Flags: W
LayerCount: 2
Fore
SplineSet
482 287 m 1,0,-1
 61 542 l 1,1,-1
 61 405 l 1,2,-1
 295 259 l 1,3,-1
 61 118 l 1,4,-1
 61 -26 l 1,5,-1
 482 224 l 1,6,-1
 482 287 l 1,0,-1
EndSplineSet
EndChar

StartChar: question
Encoding: 63 63 34
Width: 485
GlyphClass: 1
Flags: W
LayerCount: 2
Fore
SplineSet
231 230 m 1,0,1
 231 257 231 257 241 274.5 c 128,-1,2
 251 292 251 292 267 306 c 128,-1,3
 283 320 283 320 303 331 c 128,-1,4
 323 342 323 342 342 354 c 0,5,6
 366 368 366 368 386 384 c 128,-1,7
 406 400 406 400 420 420 c 128,-1,8
 434 440 434 440 442 465 c 128,-1,9
 450 490 450 490 450 522 c 0,10,11
 450 574 450 574 432 611 c 128,-1,12
 414 648 414 648 384.5 672 c 128,-1,13
 355 696 355 696 318 707.5 c 128,-1,14
 281 719 281 719 243 719 c 0,15,16
 209 719 209 719 177 710.5 c 128,-1,17
 145 702 145 702 117.5 685.5 c 128,-1,18
 90 669 90 669 69 645 c 128,-1,19
 48 621 48 621 34 590 c 1,20,-1
 118 532 l 1,21,22
 126 546 126 546 137.5 561 c 128,-1,23
 149 576 149 576 164.5 587.5 c 128,-1,24
 180 599 180 599 198.5 606.5 c 128,-1,25
 217 614 217 614 239 614 c 0,26,27
 259 614 259 614 276.5 608 c 128,-1,28
 294 602 294 602 307.5 591 c 128,-1,29
 321 580 321 580 329 563 c 128,-1,30
 337 546 337 546 337 525 c 0,31,32
 337 496 337 496 322.5 474.5 c 128,-1,33
 308 453 308 453 287.5 437 c 128,-1,34
 267 421 267 421 244.5 409 c 128,-1,35
 222 397 222 397 206 387 c 0,36,37
 182 373 182 373 166 356 c 128,-1,38
 150 339 150 339 140.5 319 c 128,-1,39
 131 299 131 299 127.5 277 c 128,-1,40
 124 255 124 255 124 230 c 1,41,-1
 231 230 l 1,0,1
109 61 m 0,42,43
 109 32 109 32 130 11 c 128,-1,44
 151 -10 151 -10 180 -10 c 256,45,46
 209 -10 209 -10 230 11 c 128,-1,47
 251 32 251 32 251 61 c 0,48,49
 251 91 251 91 230 111.5 c 128,-1,50
 209 132 209 132 180 132 c 256,51,52
 151 132 151 132 130 111.5 c 128,-1,53
 109 91 109 91 109 61 c 0,42,43
EndSplineSet
EndChar

StartChar: at
Encoding: 64 64 35
Width: 845
GlyphClass: 1
Flags: W
LayerCount: 2
Fore
SplineSet
421 603 m 256,0,1
 347 603 347 603 278.5 578 c 128,-1,2
 210 553 210 553 157.5 505 c 128,-1,3
 105 457 105 457 73.5 388 c 128,-1,4
 42 319 42 319 42 230 c 0,5,6
 42 146 42 146 70.5 77 c 128,-1,7
 99 8 99 8 148.5 -41.5 c 128,-1,8
 198 -91 198 -91 264 -118.5 c 128,-1,9
 330 -146 330 -146 405 -146 c 0,10,11
 449 -146 449 -146 493 -136 c 128,-1,12
 537 -126 537 -126 579 -106 c 1,13,-1
 563 -56 l 1,14,15
 526 -72 526 -72 490 -83 c 128,-1,16
 454 -94 454 -94 407 -94 c 0,17,18
 337 -94 337 -94 280 -68.5 c 128,-1,19
 223 -43 223 -43 182.5 1 c 128,-1,20
 142 45 142 45 119.5 103.5 c 128,-1,21
 97 162 97 162 97 230 c 0,22,23
 97 299 97 299 121 358.5 c 128,-1,24
 145 418 145 418 187.5 460.5 c 128,-1,25
 230 503 230 503 289 527 c 128,-1,26
 348 551 348 551 418 551 c 0,27,28
 490 551 490 551 548.5 526 c 128,-1,29
 607 501 607 501 650 457 c 128,-1,30
 693 413 693 413 716.5 353.5 c 128,-1,31
 740 294 740 294 740 224 c 0,32,33
 740 203 740 203 737 172 c 128,-1,34
 734 141 734 141 724 112 c 128,-1,35
 714 83 714 83 697 62.5 c 128,-1,36
 680 42 680 42 653 42 c 0,37,38
 635 42 635 42 625.5 51.5 c 128,-1,39
 616 61 616 61 610.5 76.5 c 128,-1,40
 605 92 605 92 603.5 112 c 128,-1,41
 602 132 602 132 602 154 c 2,42,-1
 602 253 l 2,43,44
 602 287 602 287 598 323.5 c 128,-1,45
 594 360 594 360 576.5 391 c 128,-1,46
 559 422 559 422 522.5 441.5 c 128,-1,47
 486 461 486 461 422 461 c 0,48,49
 374 461 374 461 331 448.5 c 128,-1,50
 288 436 288 436 251 411 c 1,51,-1
 276 343 l 1,52,53
 301 363 301 363 335 375 c 128,-1,54
 369 387 369 387 410 387 c 0,55,56
 444 387 444 387 466.5 378 c 128,-1,57
 489 369 489 369 502 352.5 c 128,-1,58
 515 336 515 336 520 312.5 c 128,-1,59
 525 289 525 289 525 261 c 1,60,61
 510 268 510 268 480.5 275.5 c 128,-1,62
 451 283 451 283 410 283 c 0,63,64
 376 283 376 283 342.5 276 c 128,-1,65
 309 269 309 269 282.5 252 c 128,-1,66
 256 235 256 235 240 207 c 128,-1,67
 224 179 224 179 224 138 c 0,68,69
 224 76 224 76 263 37.5 c 128,-1,70
 302 -1 302 -1 377 -1 c 0,71,72
 427 -1 427 -1 471 17.5 c 128,-1,73
 515 36 515 36 546 67 c 1,74,75
 548 52 548 52 553 37 c 128,-1,76
 558 22 558 22 568.5 10.5 c 128,-1,77
 579 -1 579 -1 596.5 -8.5 c 128,-1,78
 614 -16 614 -16 640 -16 c 0,79,80
 695 -16 695 -16 725.5 13 c 128,-1,81
 756 42 756 42 771.5 81.5 c 128,-1,82
 787 121 787 121 790.5 161 c 128,-1,83
 794 201 794 201 794 222 c 0,84,85
 794 314 794 314 763.5 385 c 128,-1,86
 733 456 733 456 681.5 504.5 c 128,-1,87
 630 553 630 553 562.5 578 c 128,-1,88
 495 603 495 603 421 603 c 256,0,1
472 86 m 0,89,90
 452 76 452 76 428 71 c 128,-1,91
 404 66 404 66 384 66 c 0,92,93
 365 66 365 66 349.5 71 c 128,-1,94
 334 76 334 76 323.5 86 c 128,-1,95
 313 96 313 96 307 110 c 128,-1,96
 301 124 301 124 301 141 c 0,97,98
 301 163 301 163 309.5 178 c 128,-1,99
 318 193 318 193 332.5 202.5 c 128,-1,100
 347 212 347 212 367 216.5 c 128,-1,101
 387 221 387 221 410 221 c 0,102,103
 430 221 430 221 447.5 218.5 c 128,-1,104
 465 216 465 216 479.5 212.5 c 128,-1,105
 494 209 494 209 505.5 205.5 c 128,-1,106
 517 202 517 202 524 200 c 1,107,-1
 524 162 l 2,108,109
 524 151 524 151 521.5 140 c 128,-1,110
 519 129 519 129 512 119 c 128,-1,111
 505 109 505 109 495.5 100.5 c 128,-1,112
 486 92 486 92 472 86 c 0,89,90
EndSplineSet
EndChar

StartChar: A
Encoding: 65 65 36
Width: 673
GlyphClass: 1
Flags: W
LayerCount: 2
Fore
SplineSet
5 0 m 1,0,-1
 142 0 l 1,1,-1
 209 180 l 1,2,-1
 463 180 l 1,3,-1
 531 0 l 1,4,-1
 668 0 l 1,5,-1
 403 710 l 1,6,-1
 271 710 l 1,7,-1
 5 0 l 1,0,-1
231 274 m 1,8,-1
 337 571 l 1,9,-1
 439 274 l 1,10,-1
 231 274 l 1,8,-1
EndSplineSet
Substitution2: "Single Substitution lookup 45 subtable" ordfeminine
Substitution2: "'aalt' Access All Alternates lookup 0 subtable" ordfeminine
EndChar

StartChar: B
Encoding: 66 66 37
Width: 679
GlyphClass: 1
Flags: W
LayerCount: 2
Fore
SplineSet
644 183 m 0,0,1
 644 217 644 217 635 246.5 c 128,-1,2
 626 276 626 276 608.5 299 c 128,-1,3
 591 322 591 322 566.5 338.5 c 128,-1,4
 542 355 542 355 512 364 c 1,5,6
 562 386 562 386 588 431.5 c 128,-1,7
 614 477 614 477 614 529 c 0,8,9
 614 562 614 562 603 594.5 c 128,-1,10
 592 627 592 627 571 652.5 c 128,-1,11
 550 678 550 678 520 694 c 128,-1,12
 490 710 490 710 452 710 c 2,13,-1
 75 710 l 1,14,-1
 75 0 l 1,15,-1
 417 0 l 2,16,17
 464 0 464 0 505 12 c 128,-1,18
 546 24 546 24 577 47 c 128,-1,19
 608 70 608 70 626 104.5 c 128,-1,20
 644 139 644 139 644 183 c 0,0,1
510 208 m 256,21,22
 510 188 510 188 503 170.5 c 128,-1,23
 496 153 496 153 483.5 140.5 c 128,-1,24
 471 128 471 128 454 120 c 128,-1,25
 437 112 437 112 417 112 c 2,26,-1
 207 112 l 1,27,-1
 207 306 l 1,28,-1
 424 306 l 2,29,30
 443 306 443 306 458.5 298.5 c 128,-1,31
 474 291 474 291 485.5 277.5 c 128,-1,32
 497 264 497 264 503.5 246 c 128,-1,33
 510 228 510 228 510 208 c 256,21,22
402 597 m 2,34,35
 420 597 420 597 434.5 590.5 c 128,-1,36
 449 584 449 584 460 571.5 c 128,-1,37
 471 559 471 559 477 542 c 128,-1,38
 483 525 483 525 483 504 c 256,39,40
 483 483 483 483 476.5 465.5 c 128,-1,41
 470 448 470 448 458 436 c 128,-1,42
 446 424 446 424 430.5 417.5 c 128,-1,43
 415 411 415 411 396 411 c 2,44,-1
 207 411 l 1,45,-1
 207 597 l 1,46,-1
 402 597 l 2,34,35
EndSplineSet
EndChar

StartChar: C
Encoding: 67 67 38
Width: 686
GlyphClass: 1
Flags: W
LayerCount: 2
Fore
SplineSet
32 360 m 0,0,1
 32 293 32 293 57.5 227 c 128,-1,2
 83 161 83 161 128.5 109.5 c 128,-1,3
 174 58 174 58 236.5 26 c 128,-1,4
 299 -6 299 -6 375 -6 c 0,5,6
 417 -6 417 -6 462 5 c 128,-1,7
 507 16 507 16 546.5 37 c 128,-1,8
 586 58 586 58 617.5 88.5 c 128,-1,9
 649 119 649 119 666 159 c 1,10,-1
 557 222 l 1,11,12
 544 192 544 192 524 171.5 c 128,-1,13
 504 151 504 151 480 137.5 c 128,-1,14
 456 124 456 124 430 118 c 128,-1,15
 404 112 404 112 379 112 c 0,16,17
 332 112 332 112 292.5 132 c 128,-1,18
 253 152 253 152 225 185.5 c 128,-1,19
 197 219 197 219 181.5 263.5 c 128,-1,20
 166 308 166 308 166 356 c 0,21,22
 166 399 166 399 179.5 442 c 128,-1,23
 193 485 193 485 219 519.5 c 128,-1,24
 245 554 245 554 284.5 575 c 128,-1,25
 324 596 324 596 376 596 c 0,26,27
 400 596 400 596 426 591 c 128,-1,28
 452 586 452 586 475.5 573.5 c 128,-1,29
 499 561 499 561 519 540.5 c 128,-1,30
 539 520 539 520 553 489 c 1,31,-1
 655 559 l 1,32,33
 620 628 620 628 549 671 c 128,-1,34
 478 714 478 714 380 714 c 0,35,36
 298 714 298 714 233.5 683 c 128,-1,37
 169 652 169 652 124 601.5 c 128,-1,38
 79 551 79 551 55.5 488 c 128,-1,39
 32 425 32 425 32 360 c 0,0,1
EndSplineSet
EndChar

StartChar: D
Encoding: 68 68 39
Width: 716
GlyphClass: 1
Flags: W
LayerCount: 2
Fore
SplineSet
332 0 m 2,0,1
 411 0 411 0 476 25.5 c 128,-1,2
 541 51 541 51 586.5 97.5 c 128,-1,3
 632 144 632 144 656.5 209.5 c 128,-1,4
 681 275 681 275 681 356 c 0,5,6
 681 430 681 430 659 494.5 c 128,-1,7
 637 559 637 559 593.5 607 c 128,-1,8
 550 655 550 655 484.5 682.5 c 128,-1,9
 419 710 419 710 332 710 c 2,10,-1
 75 710 l 1,11,-1
 75 0 l 1,12,-1
 332 0 l 2,0,1
547 356 m 0,13,14
 547 305 547 305 533 261 c 128,-1,15
 519 217 519 217 492 185 c 128,-1,16
 465 153 465 153 425 134.5 c 128,-1,17
 385 116 385 116 332 116 c 2,18,-1
 207 116 l 1,19,-1
 207 594 l 1,20,-1
 332 594 l 2,21,22
 383 594 383 594 423 576.5 c 128,-1,23
 463 559 463 559 491 527.5 c 128,-1,24
 519 496 519 496 533 452 c 128,-1,25
 547 408 547 408 547 356 c 0,13,14
EndSplineSet
EndChar

StartChar: E
Encoding: 69 69 40
Width: 602
GlyphClass: 1
Flags: W
LayerCount: 2
Fore
SplineSet
207 116 m 1,0,-1
 207 308 l 1,1,-1
 510 308 l 1,2,-1
 510 416 l 1,3,-1
 207 416 l 1,4,-1
 207 594 l 1,5,-1
 558 594 l 1,6,-1
 558 710 l 1,7,-1
 75 710 l 1,8,-1
 75 0 l 1,9,-1
 567 0 l 1,10,-1
 567 116 l 1,11,-1
 207 116 l 1,0,-1
EndSplineSet
EndChar

StartChar: F
Encoding: 70 70 41
Width: 575
GlyphClass: 1
Flags: W
LayerCount: 2
Fore
SplineSet
207 0 m 1,0,-1
 207 296 l 1,1,-1
 494 296 l 1,2,-1
 494 405 l 1,3,-1
 207 405 l 1,4,-1
 207 594 l 1,5,-1
 552 594 l 1,6,-1
 552 710 l 1,7,-1
 75 710 l 1,8,-1
 75 0 l 1,9,-1
 207 0 l 1,0,-1
EndSplineSet
EndChar

StartChar: G
Encoding: 71 71 42
Width: 722
GlyphClass: 1
Flags: W
LayerCount: 2
Fore
SplineSet
374 -5 m 0,0,1
 416 -5 416 -5 454 1 c 128,-1,2
 492 7 492 7 528 21 c 128,-1,3
 564 35 564 35 598 57 c 128,-1,4
 632 79 632 79 664 112 c 1,5,-1
 664 373 l 1,6,-1
 361 373 l 1,7,-1
 363 261 l 1,8,-1
 530 261 l 1,9,-1
 530 163 l 1,10,11
 514 149 514 149 498.5 138.5 c 128,-1,12
 483 128 483 128 464.5 122 c 128,-1,13
 446 116 446 116 423.5 113.5 c 128,-1,14
 401 111 401 111 371 111 c 0,15,16
 321 111 321 111 283 133 c 128,-1,17
 245 155 245 155 219 190 c 128,-1,18
 193 225 193 225 180 268.5 c 128,-1,19
 167 312 167 312 167 355 c 0,20,21
 167 400 167 400 180.5 443.5 c 128,-1,22
 194 487 194 487 220 521.5 c 128,-1,23
 246 556 246 556 283.5 576.5 c 128,-1,24
 321 597 321 597 369 597 c 0,25,26
 405 597 405 597 433.5 585 c 128,-1,27
 462 573 462 573 483.5 555.5 c 128,-1,28
 505 538 505 538 520 518 c 128,-1,29
 535 498 535 498 544 483 c 1,30,-1
 648 566 l 1,31,32
 607 636 607 636 537.5 675.5 c 128,-1,33
 468 715 468 715 377 715 c 0,34,35
 299 715 299 715 235 685 c 128,-1,36
 171 655 171 655 126 605.5 c 128,-1,37
 81 556 81 556 57 491.5 c 128,-1,38
 33 427 33 427 33 357 c 0,39,40
 33 288 33 288 56.5 222.5 c 128,-1,41
 80 157 80 157 125 106.5 c 128,-1,42
 170 56 170 56 233 25.5 c 128,-1,43
 296 -5 296 -5 374 -5 c 0,0,1
EndSplineSet
Substitution2: "'ss11' Style Set 11 lookup 39 subtable" G.ss11
Substitution2: "'aalt' Access All Alternates lookup 0 subtable" G.ss11
EndChar

StartChar: H
Encoding: 72 72 43
Width: 745
GlyphClass: 1
Flags: W
LayerCount: 2
Fore
SplineSet
537 710 m 1,0,-1
 537 421 l 1,1,-1
 207 421 l 1,2,-1
 207 710 l 1,3,-1
 75 710 l 1,4,-1
 75 0 l 1,5,-1
 207 0 l 1,6,-1
 207 305 l 1,7,-1
 537 305 l 1,8,-1
 537 0 l 1,9,-1
 669 0 l 1,10,-1
 669 710 l 1,11,-1
 537 710 l 1,0,-1
EndSplineSet
EndChar

StartChar: I
Encoding: 73 73 44
Width: 283
GlyphClass: 1
Flags: W
LayerCount: 2
Fore
SplineSet
207 0 m 1,0,-1
 207 710 l 1,1,-1
 75 710 l 1,2,-1
 75 0 l 1,3,-1
 207 0 l 1,0,-1
EndSplineSet
EndChar

StartChar: J
Encoding: 74 74 45
Width: 551
GlyphClass: 2
Flags: W
LayerCount: 2
Fore
SplineSet
228 -8 m 0,0,1
 190 -8 190 -8 154.5 3 c 128,-1,2
 119 14 119 14 90 35 c 128,-1,3
 61 56 61 56 39 86 c 128,-1,4
 17 116 17 116 5 152 c 1,5,-1
 118 204 l 1,6,7
 125 184 125 184 135 167 c 128,-1,8
 145 150 145 150 158.5 137 c 128,-1,9
 172 124 172 124 189 117 c 128,-1,10
 206 110 206 110 229 110 c 0,11,12
 262 110 262 110 284.5 122 c 128,-1,13
 307 134 307 134 320.5 154 c 128,-1,14
 334 174 334 174 340 200 c 128,-1,15
 346 226 346 226 346 255 c 2,16,-1
 346 710 l 1,17,-1
 476 710 l 1,18,-1
 476 230 l 2,19,20
 476 176 476 176 457 132 c 128,-1,21
 438 88 438 88 404.5 57 c 128,-1,22
 371 26 371 26 326 9 c 128,-1,23
 281 -8 281 -8 228 -8 c 0,0,1
EndSplineSet
EndChar

StartChar: K
Encoding: 75 75 46
Width: 667
GlyphClass: 1
Flags: W
LayerCount: 2
Fore
SplineSet
207 0 m 1,0,-1
 207 212 l 1,1,-1
 302 310 l 1,2,-1
 526 0 l 1,3,-1
 676 0 l 1,4,-1
 385 395 l 1,5,-1
 660 710 l 1,6,-1
 513 710 l 1,7,-1
 207 366 l 1,8,-1
 207 709 l 1,9,-1
 75 709 l 1,10,-1
 75 0 l 1,11,-1
 207 0 l 1,0,-1
EndSplineSet
EndChar

StartChar: L
Encoding: 76 76 47
Width: 584
GlyphClass: 1
Flags: W
LayerCount: 2
Fore
SplineSet
574 0 m 1,0,-1
 574 116 l 1,1,-1
 207 116 l 1,2,-1
 207 710 l 1,3,-1
 75 710 l 1,4,-1
 75 0 l 1,5,-1
 574 0 l 1,0,-1
EndSplineSet
EndChar

StartChar: M
Encoding: 77 77 48
Width: 866
GlyphClass: 1
Flags: W
LayerCount: 2
Fore
SplineSet
791 0 m 1,0,-1
 791 710 l 1,1,-1
 649 710 l 1,2,-1
 433 300 l 1,3,-1
 218 710 l 1,4,-1
 75 710 l 1,5,-1
 75 0 l 1,6,-1
 207 0 l 1,7,-1
 207 475 l 1,8,-1
 396 119 l 1,9,-1
 471 119 l 1,10,-1
 659 475 l 1,11,-1
 659 0 l 1,12,-1
 791 0 l 1,0,-1
EndSplineSet
EndChar

StartChar: N
Encoding: 78 78 49
Width: 764
GlyphClass: 1
Flags: W
LayerCount: 2
Fore
SplineSet
577 0 m 1,0,-1
 688 0 l 1,1,-1
 688 709 l 1,2,-1
 556 709 l 1,3,-1
 556 233 l 1,4,-1
 182 710 l 1,5,-1
 75 710 l 1,6,-1
 75 0 l 1,7,-1
 207 0 l 1,8,-1
 207 466 l 1,9,-1
 577 0 l 1,0,-1
EndSplineSet
EndChar

StartChar: O
Encoding: 79 79 50
Width: 755
GlyphClass: 1
Flags: W
LayerCount: 2
Fore
SplineSet
376 -5 m 0,0,1
 451 -5 451 -5 514.5 24.5 c 128,-1,2
 578 54 578 54 624 103.5 c 128,-1,3
 670 153 670 153 696 218 c 128,-1,4
 722 283 722 283 722 353 c 0,5,6
 722 421 722 421 697.5 485.5 c 128,-1,7
 673 550 673 550 627.5 601 c 128,-1,8
 582 652 582 652 519 683.5 c 128,-1,9
 456 715 456 715 379 715 c 0,10,11
 304 715 304 715 240.5 685.5 c 128,-1,12
 177 656 177 656 130.5 606 c 128,-1,13
 84 556 84 556 58 491 c 128,-1,14
 32 426 32 426 32 355 c 0,15,16
 32 287 32 287 57 222 c 128,-1,17
 82 157 82 157 127 106.5 c 128,-1,18
 172 56 172 56 235.5 25.5 c 128,-1,19
 299 -5 299 -5 376 -5 c 0,0,1
166 355 m 0,20,21
 166 400 166 400 180 443.5 c 128,-1,22
 194 487 194 487 221 521 c 128,-1,23
 248 555 248 555 287 575.5 c 128,-1,24
 326 596 326 596 377 596 c 0,25,26
 426 596 426 596 465 576 c 128,-1,27
 504 556 504 556 531.5 523 c 128,-1,28
 559 490 559 490 573.5 446 c 128,-1,29
 588 402 588 402 588 355 c 0,30,31
 588 311 588 311 574.5 267.5 c 128,-1,32
 561 224 561 224 534 189.5 c 128,-1,33
 507 155 507 155 468 133.5 c 128,-1,34
 429 112 429 112 378 112 c 0,35,36
 328 112 328 112 288.5 132.5 c 128,-1,37
 249 153 249 153 222 186.5 c 128,-1,38
 195 220 195 220 180.5 264 c 128,-1,39
 166 308 166 308 166 355 c 0,20,21
EndSplineSet
Substitution2: "Single Substitution lookup 45 subtable" ordmasculine
Substitution2: "'aalt' Access All Alternates lookup 0 subtable" ordmasculine
EndChar

StartChar: P
Encoding: 80 80 51
Width: 623
GlyphClass: 1
Flags: W
LayerCount: 2
Fore
SplineSet
207 0 m 1,0,-1
 207 240 l 1,1,-1
 381 240 l 2,2,3
 430 240 430 240 470.5 259.5 c 128,-1,4
 511 279 511 279 539.5 312 c 128,-1,5
 568 345 568 345 584 387.5 c 128,-1,6
 600 430 600 430 600 475 c 0,7,8
 600 519 600 519 583 561 c 128,-1,9
 566 603 566 603 536.5 636 c 128,-1,10
 507 669 507 669 465.5 689.5 c 128,-1,11
 424 710 424 710 375 710 c 2,12,-1
 75 710 l 1,13,-1
 75 0 l 1,14,-1
 207 0 l 1,0,-1
207 594 m 1,15,-1
 367 594 l 2,16,17
 386 594 386 594 404 586 c 128,-1,18
 422 578 422 578 436 562.5 c 128,-1,19
 450 547 450 547 458 525 c 128,-1,20
 466 503 466 503 466 475 c 0,21,22
 466 449 466 449 459 427 c 128,-1,23
 452 405 452 405 439.5 389 c 128,-1,24
 427 373 427 373 410 364.5 c 128,-1,25
 393 356 393 356 373 356 c 2,26,-1
 207 356 l 1,27,-1
 207 594 l 1,15,-1
EndSplineSet
EndChar

StartChar: Q
Encoding: 81 81 52
Width: 754
GlyphClass: 1
Flags: W
LayerCount: 2
Fore
SplineSet
376 -5 m 0,0,1
 451 -5 451 -5 514.5 24.5 c 128,-1,2
 578 54 578 54 624 103.5 c 128,-1,3
 670 153 670 153 696 218 c 128,-1,4
 722 283 722 283 722 353 c 0,5,6
 722 421 722 421 697.5 485.5 c 128,-1,7
 673 550 673 550 627.5 601 c 128,-1,8
 582 652 582 652 519 683.5 c 128,-1,9
 456 715 456 715 379 715 c 0,10,11
 304 715 304 715 240.5 685.5 c 128,-1,12
 177 656 177 656 130.5 606 c 128,-1,13
 84 556 84 556 58 491 c 128,-1,14
 32 426 32 426 32 355 c 0,15,16
 32 287 32 287 57 222 c 128,-1,17
 82 157 82 157 127 107 c 128,-1,18
 172 57 172 57 235.5 26 c 128,-1,19
 299 -5 299 -5 376 -5 c 0,0,1
378 113 m 0,20,21
 328 113 328 113 288.5 133 c 128,-1,22
 249 153 249 153 222 186.5 c 128,-1,23
 195 220 195 220 180.5 264 c 128,-1,24
 166 308 166 308 166 355 c 0,25,26
 166 400 166 400 180 443.5 c 128,-1,27
 194 487 194 487 221 521 c 128,-1,28
 248 555 248 555 287 576 c 128,-1,29
 326 597 326 597 377 597 c 0,30,31
 426 597 426 597 465 577 c 128,-1,32
 504 557 504 557 531.5 523.5 c 128,-1,33
 559 490 559 490 573.5 446 c 128,-1,34
 588 402 588 402 588 355 c 0,35,36
 588 311 588 311 574.5 267.5 c 128,-1,37
 561 224 561 224 534 189.5 c 128,-1,38
 507 155 507 155 468 134 c 128,-1,39
 429 113 429 113 378 113 c 0,20,21
650 -28 m 1,40,-1
 727 50 l 1,41,-1
 457 325 l 1,42,-1
 379 249 l 1,43,-1
 650 -28 l 1,40,-1
EndSplineSet
EndChar

StartChar: R
Encoding: 82 82 53
Width: 664
GlyphClass: 1
Flags: W
LayerCount: 2
Fore
SplineSet
207 0 m 1,0,-1
 207 240 l 1,1,-1
 352 240 l 1,2,-1
 499 0 l 1,3,-1
 646 0 l 1,4,-1
 483 268 l 1,5,6
 513 280 513 280 537 300.5 c 128,-1,7
 561 321 561 321 578 348.5 c 128,-1,8
 595 376 595 376 604 408.5 c 128,-1,9
 613 441 613 441 613 475 c 0,10,11
 613 519 613 519 596 561 c 128,-1,12
 579 603 579 603 549.5 636 c 128,-1,13
 520 669 520 669 478.5 689.5 c 128,-1,14
 437 710 437 710 388 710 c 2,15,-1
 75 710 l 1,16,-1
 75 0 l 1,17,-1
 207 0 l 1,0,-1
207 594 m 1,18,-1
 380 594 l 2,19,20
 399 594 399 594 417 585 c 128,-1,21
 435 576 435 576 448.5 560 c 128,-1,22
 462 544 462 544 470.5 522.5 c 128,-1,23
 479 501 479 501 479 475 c 0,24,25
 479 451 479 451 472 429 c 128,-1,26
 465 407 465 407 452.5 391 c 128,-1,27
 440 375 440 375 423 365.5 c 128,-1,28
 406 356 406 356 386 356 c 2,29,-1
 207 356 l 1,30,-1
 207 594 l 1,18,-1
EndSplineSet
EndChar

StartChar: S
Encoding: 83 83 54
Width: 612
GlyphClass: 1
Flags: W
LayerCount: 2
Fore
SplineSet
556 636 m 1,0,1
 534 652 534 652 506 666 c 128,-1,2
 478 680 478 680 446.5 691 c 128,-1,3
 415 702 415 702 381 708.5 c 128,-1,4
 347 715 347 715 310 715 c 0,5,6
 256 715 256 715 209 701 c 128,-1,7
 162 687 162 687 126.5 658.5 c 128,-1,8
 91 630 91 630 71 589 c 128,-1,9
 51 548 51 548 51 493 c 0,10,11
 51 453 51 453 63.5 423 c 128,-1,12
 76 393 76 393 101.5 371 c 128,-1,13
 127 349 127 349 165 332.5 c 128,-1,14
 203 316 203 316 255 302 c 0,15,16
 297 290 297 290 331.5 280 c 128,-1,17
 366 270 366 270 390.5 257.5 c 128,-1,18
 415 245 415 245 428 228.5 c 128,-1,19
 441 212 441 212 441 188 c 0,20,21
 441 150 441 150 410.5 130.5 c 128,-1,22
 380 111 380 111 322 111 c 0,23,24
 282 111 282 111 243 121 c 128,-1,25
 204 131 204 131 171.5 145 c 128,-1,26
 139 159 139 159 115.5 174 c 128,-1,27
 92 189 92 189 82 199 c 1,28,-1
 23 85 l 1,29,30
 53 63 53 63 88.5 46 c 128,-1,31
 124 29 124 29 162 17 c 128,-1,32
 200 5 200 5 239.5 -1.5 c 128,-1,33
 279 -8 279 -8 320 -8 c 0,34,35
 373 -8 373 -8 420 3.5 c 128,-1,36
 467 15 467 15 503.5 40 c 128,-1,37
 540 65 540 65 561 105 c 128,-1,38
 582 145 582 145 582 201 c 0,39,40
 582 250 582 250 566.5 284 c 128,-1,41
 551 318 551 318 520.5 341.5 c 128,-1,42
 490 365 490 365 448 381.5 c 128,-1,43
 406 398 406 398 353 411 c 0,44,45
 312 422 312 422 281 430.5 c 128,-1,46
 250 439 250 439 229 450.5 c 128,-1,47
 208 462 208 462 198 477 c 128,-1,48
 188 492 188 492 188 515 c 0,49,50
 188 555 188 555 217.5 576.5 c 128,-1,51
 247 598 247 598 307 598 c 0,52,53
 339 598 339 598 370 590 c 128,-1,54
 401 582 401 582 426.5 571 c 128,-1,55
 452 560 452 560 471 548 c 128,-1,56
 490 536 490 536 498 528 c 1,57,-1
 556 636 l 1,0,1
EndSplineSet
EndChar

StartChar: T
Encoding: 84 84 55
Width: 618
GlyphClass: 1
Flags: W
LayerCount: 2
Fore
SplineSet
604 710 m 1,0,-1
 14 710 l 1,1,-1
 14 594 l 1,2,-1
 243 594 l 1,3,-1
 243 0 l 1,4,-1
 375 0 l 1,5,-1
 375 594 l 1,6,-1
 604 594 l 1,7,-1
 604 710 l 1,0,-1
EndSplineSet
EndChar

StartChar: U
Encoding: 85 85 56
Width: 750
GlyphClass: 1
Flags: W
LayerCount: 2
Fore
SplineSet
375 -5 m 0,0,1
 458 -5 458 -5 516.5 22.5 c 128,-1,2
 575 50 575 50 612.5 98.5 c 128,-1,3
 650 147 650 147 667.5 211.5 c 128,-1,4
 685 276 685 276 685 349 c 2,5,-1
 685 710 l 1,6,-1
 553 710 l 1,7,-1
 553 349 l 2,8,9
 553 304 553 304 544.5 261.5 c 128,-1,10
 536 219 536 219 515 186 c 128,-1,11
 494 153 494 153 460 132.5 c 128,-1,12
 426 112 426 112 375 112 c 256,13,14
 324 112 324 112 290.5 132 c 128,-1,15
 257 152 257 152 236.5 184.5 c 128,-1,16
 216 217 216 217 206.5 260 c 128,-1,17
 197 303 197 303 197 349 c 2,18,-1
 197 710 l 1,19,-1
 65 710 l 1,20,-1
 65 349 l 2,21,22
 65 280 65 280 81.5 215.5 c 128,-1,23
 98 151 98 151 135 102 c 128,-1,24
 172 53 172 53 231 24 c 128,-1,25
 290 -5 290 -5 375 -5 c 0,0,1
EndSplineSet
EndChar

StartChar: V
Encoding: 86 86 57
Width: 677
GlyphClass: 1
Flags: W
LayerCount: 2
Fore
SplineSet
3 710 m 1,0,-1
 275 0 l 1,1,-1
 402 0 l 1,2,-1
 673 710 l 1,3,-1
 534 710 l 1,4,-1
 339 158 l 1,5,-1
 142 710 l 1,6,-1
 3 710 l 1,0,-1
EndSplineSet
EndChar

StartChar: W
Encoding: 87 87 58
Width: 1095
GlyphClass: 1
Flags: W
LayerCount: 2
Fore
SplineSet
236 0 m 1,0,-1
 364 0 l 1,1,-1
 546 509 l 1,2,-1
 733 0 l 1,3,-1
 862 0 l 1,4,-1
 1083 710 l 1,5,-1
 944 710 l 1,6,-1
 788 181 l 1,7,-1
 610 710 l 1,8,-1
 484 710 l 1,9,-1
 311 180 l 1,10,-1
 153 710 l 1,11,-1
 16 710 l 1,12,-1
 236 0 l 1,0,-1
EndSplineSet
Substitution2: "'ss09' Style Set 9 lookup 37 subtable" W.ss09
Substitution2: "'aalt' Access All Alternates lookup 0 subtable" W.ss09
EndChar

StartChar: X
Encoding: 88 88 59
Width: 645
GlyphClass: 1
Flags: W
LayerCount: 2
Fore
SplineSet
-3 710 m 1,0,-1
 246 350 l 1,1,-1
 5 0 l 1,2,-1
 151 0 l 1,3,-1
 323 256 l 1,4,-1
 495 0 l 1,5,-1
 640 0 l 1,6,-1
 399 350 l 1,7,-1
 648 710 l 1,8,-1
 503 710 l 1,9,-1
 323 444 l 1,10,-1
 143 710 l 1,11,-1
 -3 710 l 1,0,-1
EndSplineSet
EndChar

StartChar: Y
Encoding: 89 89 60
Width: 659
GlyphClass: 1
Flags: W
LayerCount: 2
Fore
SplineSet
5 710 m 1,0,-1
 263 251 l 1,1,-1
 263 0 l 1,2,-1
 395 0 l 1,3,-1
 395 249 l 1,4,-1
 655 710 l 1,5,-1
 511 710 l 1,6,-1
 329 372 l 1,7,-1
 149 710 l 1,8,-1
 5 710 l 1,0,-1
EndSplineSet
EndChar

StartChar: Z
Encoding: 90 90 61
Width: 627
GlyphClass: 1
Flags: W
LayerCount: 2
Fore
SplineSet
30 0 m 1,0,-1
 593 0 l 1,1,-1
 593 116 l 1,2,-1
 200 116 l 1,3,-1
 591 610 l 1,4,-1
 591 710 l 1,5,-1
 41 710 l 1,6,-1
 41 594 l 1,7,-1
 434 594 l 1,8,-1
 30 100 l 1,9,-1
 30 0 l 1,0,-1
EndSplineSet
EndChar

StartChar: bracketleft
Encoding: 91 91 62
Width: 310
GlyphClass: 1
Flags: W
LayerCount: 2
Fore
SplineSet
264 -40 m 1,0,-1
 264 63 l 1,1,-1
 201 63 l 1,2,-1
 201 637 l 1,3,-1
 264 637 l 1,4,-1
 264 740 l 1,5,-1
 82 740 l 1,6,-1
 82 -40 l 1,7,-1
 264 -40 l 1,0,-1
EndSplineSet
EndChar

StartChar: backslash
Encoding: 92 92 63
Width: 632
GlyphClass: 1
Flags: W
LayerCount: 2
Fore
SplineSet
27 710 m 1,0,-1
 463 0 l 1,1,-1
 605 0 l 1,2,-1
 170 710 l 1,3,-1
 27 710 l 1,0,-1
EndSplineSet
EndChar

StartChar: bracketright
Encoding: 93 93 64
Width: 310
GlyphClass: 1
Flags: W
LayerCount: 2
Fore
SplineSet
228 -40 m 1,0,-1
 228 740 l 1,1,-1
 46 740 l 1,2,-1
 46 637 l 1,3,-1
 109 637 l 1,4,-1
 109 63 l 1,5,-1
 46 63 l 1,6,-1
 46 -40 l 1,7,-1
 228 -40 l 1,0,-1
EndSplineSet
EndChar

StartChar: asciicircum
Encoding: 94 94 65
Width: 582
GlyphClass: 1
Flags: W
LayerCount: 2
Fore
SplineSet
144 303 m 1,0,-1
 291 601 l 1,1,-1
 436 303 l 1,2,-1
 542 303 l 1,3,-1
 345 710 l 1,4,-1
 238 710 l 1,5,-1
 40 303 l 1,6,-1
 144 303 l 1,0,-1
EndSplineSet
EndChar

StartChar: underscore
Encoding: 95 95 66
Width: 478
GlyphClass: 1
Flags: W
LayerCount: 2
Fore
SplineSet
423 -116 m 1,0,-1
 423 0 l 1,1,-1
 55 0 l 1,2,-1
 55 -116 l 1,3,-1
 423 -116 l 1,0,-1
EndSplineSet
EndChar

StartChar: a
Encoding: 97 97 68
Width: 563
GlyphClass: 1
Flags: W
LayerCount: 2
Fore
SplineSet
507 0 m 1,0,-1
 507 317 l 2,1,2
 507 368 507 368 491.5 408 c 128,-1,3
 476 448 476 448 446 476 c 128,-1,4
 416 504 416 504 372.5 518.5 c 128,-1,5
 329 533 329 533 272 533 c 0,6,7
 210 533 210 533 156.5 515 c 128,-1,8
 103 497 103 497 55 465 c 1,9,-1
 94 384 l 1,10,11
 137 413 137 413 177 428 c 128,-1,12
 217 443 217 443 259 443 c 0,13,14
 289 443 289 443 311 435.5 c 128,-1,15
 333 428 333 428 348 414 c 128,-1,16
 363 400 363 400 370.5 379 c 128,-1,17
 378 358 378 358 378 332 c 2,18,-1
 378 300 l 1,19,20
 358 310 358 310 324.5 317 c 128,-1,21
 291 324 291 324 248 324 c 0,22,23
 204 324 204 324 164 313 c 128,-1,24
 124 302 124 302 93 280.5 c 128,-1,25
 62 259 62 259 44 227.5 c 128,-1,26
 26 196 26 196 26 155 c 0,27,28
 26 121 26 121 39.5 90.5 c 128,-1,29
 53 60 53 60 77 37.5 c 128,-1,30
 101 15 101 15 133.5 2.5 c 128,-1,31
 166 -10 166 -10 204 -10 c 0,32,33
 259 -10 259 -10 305.5 10.5 c 128,-1,34
 352 31 352 31 383 73 c 1,35,-1
 383 0 l 1,36,-1
 507 0 l 1,0,-1
357 130 m 0,37,38
 347 119 347 119 333.5 110 c 128,-1,39
 320 101 320 101 304.5 95.5 c 128,-1,40
 289 90 289 90 272.5 87 c 128,-1,41
 256 84 256 84 241 84 c 0,42,43
 222 84 222 84 205 90 c 128,-1,44
 188 96 188 96 175 107 c 128,-1,45
 162 118 162 118 155 133 c 128,-1,46
 148 148 148 148 148 166 c 0,47,48
 148 188 148 188 158.5 203.5 c 128,-1,49
 169 219 169 219 186 230 c 128,-1,50
 203 241 203 241 225 246 c 128,-1,51
 247 251 247 251 269 251 c 0,52,53
 295 251 295 251 323.5 246 c 128,-1,54
 352 241 352 241 378 230 c 1,55,-1
 378 169 l 2,56,57
 378 159 378 159 372.5 149.5 c 128,-1,58
 367 140 367 140 357 130 c 0,37,38
EndSplineSet
Substitution2: "Single Substitution lookup 45 subtable" ordfeminine
Substitution2: "'ss02' Style Set 2 lookup 30 subtable" a.ss02
Substitution2: "'ss01' Style Set 1 lookup 29 subtable" a.ss01
Substitution2: "'salt' Stylistic Alternatives lookup 28 subtable" a.ss01
AlternateSubs2: "'aalt' Access All Alternates lookup 1 subtable" ordfeminine a.ss01 a.ss02
EndChar

StartChar: b
Encoding: 98 98 69
Width: 633
GlyphClass: 1
Flags: W
LayerCount: 2
Fore
SplineSet
357 -10 m 0,0,1
 410 -10 410 -10 454.5 11 c 128,-1,2
 499 32 499 32 532 68.5 c 128,-1,3
 565 105 565 105 583.5 154.5 c 128,-1,4
 602 204 602 204 602 260 c 0,5,6
 602 315 602 315 585.5 364.5 c 128,-1,7
 569 414 569 414 538.5 451.5 c 128,-1,8
 508 489 508 489 466 511 c 128,-1,9
 424 533 424 533 372 533 c 0,10,11
 311 533 311 533 265.5 505.5 c 128,-1,12
 220 478 220 478 191 430 c 1,13,-1
 191 730 l 1,14,-1
 62 730 l 1,15,-1
 62 0 l 1,16,-1
 175 0 l 1,17,-1
 175 92 l 1,18,19
 188 68 188 68 206.5 49 c 128,-1,20
 225 30 225 30 248.5 17 c 128,-1,21
 272 4 272 4 299.5 -3 c 128,-1,22
 327 -10 327 -10 357 -10 c 0,0,1
321 100 m 0,23,24
 302 100 302 100 281.5 106.5 c 128,-1,25
 261 113 261 113 243 125 c 128,-1,26
 225 137 225 137 211 154 c 128,-1,27
 197 171 197 171 191 191 c 1,28,-1
 191 319 l 1,29,30
 201 341 201 341 215 360 c 128,-1,31
 229 379 229 379 247 393 c 128,-1,32
 265 407 265 407 286 415 c 128,-1,33
 307 423 307 423 329 423 c 0,34,35
 361 423 361 423 386.5 409.5 c 128,-1,36
 412 396 412 396 430.5 373.5 c 128,-1,37
 449 351 449 351 459.5 321.5 c 128,-1,38
 470 292 470 292 470 259 c 0,39,40
 470 227 470 227 459.5 198 c 128,-1,41
 449 169 449 169 429 147 c 128,-1,42
 409 125 409 125 381.5 112.5 c 128,-1,43
 354 100 354 100 321 100 c 0,23,24
EndSplineSet
EndChar

StartChar: c
Encoding: 99 99 70
Width: 563
GlyphClass: 1
Flags: W
LayerCount: 2
Fore
SplineSet
304 -10 m 0,0,1
 347 -10 347 -10 384.5 0 c 128,-1,2
 422 10 422 10 452 28 c 128,-1,3
 482 46 482 46 504.5 71.5 c 128,-1,4
 527 97 527 97 541 126 c 1,5,-1
 415 164 l 1,6,7
 409 151 409 151 397.5 139 c 128,-1,8
 386 127 386 127 371.5 118 c 128,-1,9
 357 109 357 109 339 104.5 c 128,-1,10
 321 100 321 100 303 100 c 0,11,12
 274 100 274 100 248 112 c 128,-1,13
 222 124 222 124 203 145.5 c 128,-1,14
 184 167 184 167 172.5 197 c 128,-1,15
 161 227 161 227 161 262 c 0,16,17
 161 298 161 298 172 327.5 c 128,-1,18
 183 357 183 357 202 378.5 c 128,-1,19
 221 400 221 400 247 411.5 c 128,-1,20
 273 423 273 423 302 423 c 0,21,22
 338 423 338 423 367 407 c 128,-1,23
 396 391 396 391 413 361 c 1,24,-1
 539 400 l 1,25,26
 508 460 508 460 448.5 496.5 c 128,-1,27
 389 533 389 533 304 533 c 0,28,29
 240 533 240 533 189.5 511 c 128,-1,30
 139 489 139 489 103 452 c 128,-1,31
 67 415 67 415 48 366 c 128,-1,32
 29 317 29 317 29 262 c 0,33,34
 29 208 29 208 48.5 158.5 c 128,-1,35
 68 109 68 109 103.5 71.5 c 128,-1,36
 139 34 139 34 190 12 c 128,-1,37
 241 -10 241 -10 304 -10 c 0,0,1
EndSplineSet
EndChar

StartChar: d
Encoding: 100 100 71
Width: 633
GlyphClass: 1
Flags: W
LayerCount: 2
Fore
SplineSet
571 0 m 1,0,-1
 571 730 l 1,1,-1
 443 730 l 1,2,-1
 443 430 l 1,3,4
 429 453 429 453 410.5 471.5 c 128,-1,5
 392 490 392 490 369 503.5 c 128,-1,6
 346 517 346 517 319.5 525 c 128,-1,7
 293 533 293 533 263 533 c 0,8,9
 213 533 213 533 170.5 512 c 128,-1,10
 128 491 128 491 96.5 454 c 128,-1,11
 65 417 65 417 47.5 367.5 c 128,-1,12
 30 318 30 318 30 262 c 0,13,14
 30 205 30 205 48.5 155.5 c 128,-1,15
 67 106 67 106 100 69 c 128,-1,16
 133 32 133 32 179 11 c 128,-1,17
 225 -10 225 -10 279 -10 c 0,18,19
 334 -10 334 -10 375 14.5 c 128,-1,20
 416 39 416 39 443 83 c 1,21,-1
 443 0 l 1,22,-1
 571 0 l 1,0,-1
443 191 m 1,23,24
 437 172 437 172 423 155 c 128,-1,25
 409 138 409 138 391 125.5 c 128,-1,26
 373 113 373 113 352.5 106.5 c 128,-1,27
 332 100 332 100 312 100 c 0,28,29
 280 100 280 100 253 112.5 c 128,-1,30
 226 125 226 125 206 146 c 128,-1,31
 186 167 186 167 174.5 196.5 c 128,-1,32
 163 226 163 226 163 259 c 0,33,34
 163 291 163 291 173.5 321 c 128,-1,35
 184 351 184 351 202.5 373.5 c 128,-1,36
 221 396 221 396 246.5 409.5 c 128,-1,37
 272 423 272 423 303 423 c 0,38,39
 324 423 324 423 345.5 415.5 c 128,-1,40
 367 408 367 408 385.5 394 c 128,-1,41
 404 380 404 380 419.5 361 c 128,-1,42
 435 342 435 342 443 319 c 1,43,-1
 443 191 l 1,23,24
EndSplineSet
Substitution2: "'ss03' Style Set 3 lookup 31 subtable" d.ss03
Substitution2: "'aalt' Access All Alternates lookup 0 subtable" d.ss03
EndChar

StartChar: e
Encoding: 101 101 72
Width: 598
GlyphClass: 1
Flags: W
LayerCount: 2
Fore
SplineSet
304 -10 m 0,0,1
 347 -10 347 -10 385 0 c 128,-1,2
 423 10 423 10 453.5 28.5 c 128,-1,3
 484 47 484 47 507.5 72 c 128,-1,4
 531 97 531 97 546 126 c 1,5,-1
 436 157 l 1,6,7
 429 141 429 141 416 127 c 128,-1,8
 403 113 403 113 386 104 c 128,-1,9
 369 95 369 95 349 89.5 c 128,-1,10
 329 84 329 84 308 84 c 0,11,12
 281 84 281 84 256.5 93.5 c 128,-1,13
 232 103 232 103 212.5 120.5 c 128,-1,14
 193 138 193 138 180.5 163.5 c 128,-1,15
 168 189 168 189 166 221 c 1,16,-1
 573 221 l 1,17,18
 575 228 575 228 575.5 240 c 128,-1,19
 576 252 576 252 576 264 c 0,20,21
 576 318 576 318 557.5 366.5 c 128,-1,22
 539 415 539 415 504 452 c 128,-1,23
 469 489 469 489 418.5 511 c 128,-1,24
 368 533 368 533 305 533 c 0,25,26
 241 533 241 533 190 511 c 128,-1,27
 139 489 139 489 103 451.5 c 128,-1,28
 67 414 67 414 48 364.5 c 128,-1,29
 29 315 29 315 29 259 c 0,30,31
 29 205 29 205 48.5 156 c 128,-1,32
 68 107 68 107 103.5 70 c 128,-1,33
 139 33 139 33 190 11.5 c 128,-1,34
 241 -10 241 -10 304 -10 c 0,0,1
162 303 m 1,35,36
 165 333 165 333 176.5 358 c 128,-1,37
 188 383 188 383 207 401 c 128,-1,38
 226 419 226 419 250.5 429 c 128,-1,39
 275 439 275 439 303 439 c 0,40,41
 332 439 332 439 356.5 429.5 c 128,-1,42
 381 420 381 420 400 402 c 128,-1,43
 419 384 419 384 431 358.5 c 128,-1,44
 443 333 443 333 446 303 c 1,45,-1
 162 303 l 1,35,36
EndSplineSet
EndChar

StartChar: f
Encoding: 102 102 73
Width: 367
GlyphClass: 1
Flags: W
LayerCount: 2
Fore
SplineSet
222 0 m 1,0,-1
 222 401 l 1,1,-1
 352 401 l 1,2,-1
 352 499 l 1,3,-1
 222 499 l 1,4,-1
 222 533 l 2,5,6
 222 581 222 581 240.5 606 c 128,-1,7
 259 631 259 631 295 631 c 0,8,9
 313 631 313 631 333 626 c 128,-1,10
 353 621 353 621 368 612 c 1,11,-1
 394 709 l 1,12,13
 364 724 364 724 331.5 732 c 128,-1,14
 299 740 299 740 267 740 c 0,15,16
 227 740 227 740 195 725 c 128,-1,17
 163 710 163 710 140.5 683 c 128,-1,18
 118 656 118 656 105.5 616.5 c 128,-1,19
 93 577 93 577 93 529 c 2,20,-1
 93 499 l 1,21,-1
 25 499 l 1,22,-1
 25 401 l 1,23,-1
 93 401 l 1,24,-1
 93 0 l 1,25,-1
 222 0 l 1,0,-1
EndSplineSet
EndChar

StartChar: g
Encoding: 103 103 74
Width: 633
GlyphClass: 1
Flags: W
LayerCount: 2
Fore
SplineSet
267 -4 m 0,0,1
 321 -4 321 -4 368.5 21 c 128,-1,2
 416 46 416 46 443 92 c 1,3,-1
 443 23 l 2,4,5
 443 -16 443 -16 430 -44 c 128,-1,6
 417 -72 417 -72 395.5 -90 c 128,-1,7
 374 -108 374 -108 345 -117 c 128,-1,8
 316 -126 316 -126 284 -126 c 0,9,10
 231 -126 231 -126 185.5 -104.5 c 128,-1,11
 140 -83 140 -83 110 -45 c 1,12,-1
 39 -114 l 1,13,14
 81 -165 81 -165 139.5 -194 c 128,-1,15
 198 -223 198 -223 284 -223 c 0,16,17
 346 -223 346 -223 399 -206 c 128,-1,18
 452 -189 452 -189 490 -158 c 128,-1,19
 528 -127 528 -127 549.5 -81.5 c 128,-1,20
 571 -36 571 -36 571 23 c 2,21,-1
 571 524 l 1,22,-1
 459 524 l 1,23,-1
 459 430 l 1,24,25
 444 453 444 453 425 472 c 128,-1,26
 406 491 406 491 382.5 504.5 c 128,-1,27
 359 518 359 518 332 525.5 c 128,-1,28
 305 533 305 533 274 533 c 0,29,30
 220 533 220 533 175.5 512 c 128,-1,31
 131 491 131 491 99 454.5 c 128,-1,32
 67 418 67 418 49 368 c 128,-1,33
 31 318 31 318 31 262 c 0,34,35
 31 208 31 208 48 160 c 128,-1,36
 65 112 65 112 96.5 75.5 c 128,-1,37
 128 39 128 39 171.5 17.5 c 128,-1,38
 215 -4 215 -4 267 -4 c 0,0,1
311 100 m 0,39,40
 280 100 280 100 252.5 112.5 c 128,-1,41
 225 125 225 125 205 146 c 128,-1,42
 185 167 185 167 173.5 196 c 128,-1,43
 162 225 162 225 162 258 c 0,44,45
 162 290 162 290 172.5 319.5 c 128,-1,46
 183 349 183 349 201 372 c 128,-1,47
 219 395 219 395 245 409 c 128,-1,48
 271 423 271 423 303 423 c 0,49,50
 324 423 324 423 345.5 415.5 c 128,-1,51
 367 408 367 408 385 394 c 128,-1,52
 403 380 403 380 418.5 361 c 128,-1,53
 434 342 434 342 443 319 c 1,54,-1
 443 191 l 1,55,56
 436 173 436 173 423 156 c 128,-1,57
 410 139 410 139 392 126.5 c 128,-1,58
 374 114 374 114 353.5 107 c 128,-1,59
 333 100 333 100 311 100 c 0,39,40
EndSplineSet
EndChar

StartChar: h
Encoding: 104 104 75
Width: 602
GlyphClass: 1
Flags: W
LayerCount: 2
Fore
SplineSet
545 326 m 2,0,1
 545 365 545 365 538 402.5 c 128,-1,2
 531 440 531 440 513 468.5 c 128,-1,3
 495 497 495 497 463 515 c 128,-1,4
 431 533 431 533 380 533 c 0,5,6
 320 533 320 533 270 505 c 128,-1,7
 220 477 220 477 191 425 c 1,8,-1
 191 730 l 1,9,-1
 62 730 l 1,10,-1
 62 0 l 1,11,-1
 191 0 l 1,12,-1
 191 307 l 1,13,14
 199 332 199 332 214 352.5 c 128,-1,15
 229 373 229 373 247.5 388 c 128,-1,16
 266 403 266 403 286.5 411 c 128,-1,17
 307 419 307 419 326 419 c 0,18,19
 369 419 369 419 392.5 388.5 c 128,-1,20
 416 358 416 358 416 294 c 2,21,-1
 416 0 l 1,22,-1
 545 0 l 1,23,-1
 545 326 l 2,0,1
EndSplineSet
EndChar

StartChar: k
Encoding: 107 107 78
Width: 556
GlyphClass: 1
Flags: W
LayerCount: 2
Fore
SplineSet
559 0 m 1,0,-1
 348 301 l 1,1,-1
 546 523 l 1,2,-1
 409 523 l 1,3,-1
 191 284 l 1,4,-1
 191 730 l 1,5,-1
 62 730 l 1,6,-1
 62 0 l 1,7,-1
 191 0 l 1,8,-1
 191 157 l 1,9,-1
 265 229 l 1,10,-1
 421 0 l 1,11,-1
 559 0 l 1,0,-1
EndSplineSet
EndChar

StartChar: l
Encoding: 108 108 79
Width: 314
GlyphClass: 1
Flags: W
LayerCount: 2
Fore
SplineSet
61 119 m 2,0,1
 61 58 61 58 95.5 25 c 128,-1,2
 130 -8 130 -8 191 -8 c 0,3,4
 220 -8 220 -8 255 -1 c 128,-1,5
 290 6 290 6 316 18 c 1,6,-1
 298 117 l 1,7,8
 286 111 286 111 269 107 c 128,-1,9
 252 103 252 103 234 103 c 0,10,11
 224 103 224 103 216 105.5 c 128,-1,12
 208 108 208 108 202 115 c 128,-1,13
 196 122 196 122 193 133.5 c 128,-1,14
 190 145 190 145 190 165 c 2,15,-1
 190 730 l 1,16,-1
 61 730 l 1,17,-1
 61 119 l 2,0,1
EndSplineSet
Substitution2: "'ss05' Style Set 5 lookup 33 subtable" l.ss05
Substitution2: "'aalt' Access All Alternates lookup 0 subtable" l.ss05
EndChar

StartChar: m
Encoding: 109 109 80
Width: 930
GlyphClass: 1
Flags: W
LayerCount: 2
Fore
SplineSet
873 326 m 2,0,1
 873 365 873 365 866.5 402 c 128,-1,2
 860 439 860 439 842.5 468.5 c 128,-1,3
 825 498 825 498 794.5 515.5 c 128,-1,4
 764 533 764 533 716 533 c 0,5,6
 653 533 653 533 603.5 504 c 128,-1,7
 554 475 554 475 522 420 c 1,8,9
 512 468 512 468 475.5 500.5 c 128,-1,10
 439 533 439 533 374 533 c 256,11,12
 309 533 309 533 259 505 c 128,-1,13
 209 477 209 477 178 425 c 1,14,-1
 178 524 l 1,15,-1
 62 524 l 1,16,-1
 62 0 l 1,17,-1
 191 0 l 1,18,-1
 191 307 l 1,19,20
 198 332 198 332 212 352.5 c 128,-1,21
 226 373 226 373 243 388 c 128,-1,22
 260 403 260 403 279.5 411 c 128,-1,23
 299 419 299 419 319 419 c 0,24,25
 359 419 359 419 381 389.5 c 128,-1,26
 403 360 403 360 403 294 c 2,27,-1
 403 0 l 1,28,-1
 532 0 l 1,29,-1
 532 306 l 1,30,31
 539 331 539 331 552.5 352 c 128,-1,32
 566 373 566 373 583 388 c 128,-1,33
 600 403 600 403 620 411 c 128,-1,34
 640 419 640 419 660 419 c 0,35,36
 700 419 700 419 722 388.5 c 128,-1,37
 744 358 744 358 744 294 c 2,38,-1
 744 0 l 1,39,-1
 873 0 l 1,40,-1
 873 326 l 2,0,1
EndSplineSet
EndChar

StartChar: n
Encoding: 110 110 81
Width: 602
GlyphClass: 1
Flags: W
LayerCount: 2
Fore
SplineSet
545 326 m 2,0,1
 545 365 545 365 538.5 402.5 c 128,-1,2
 532 440 532 440 514.5 469 c 128,-1,3
 497 498 497 498 466.5 515.5 c 128,-1,4
 436 533 436 533 388 533 c 0,5,6
 354 533 354 533 322.5 525.5 c 128,-1,7
 291 518 291 518 263.5 504 c 128,-1,8
 236 490 236 490 214.5 470 c 128,-1,9
 193 450 193 450 178 425 c 1,10,-1
 178 524 l 1,11,-1
 62 524 l 1,12,-1
 62 0 l 1,13,-1
 191 0 l 1,14,-1
 191 307 l 1,15,16
 198 332 198 332 213 352.5 c 128,-1,17
 228 373 228 373 247.5 387.5 c 128,-1,18
 267 402 267 402 288.5 410.5 c 128,-1,19
 310 419 310 419 331 419 c 0,20,21
 372 419 372 419 394 389.5 c 128,-1,22
 416 360 416 360 416 294 c 2,23,-1
 416 0 l 1,24,-1
 545 0 l 1,25,-1
 545 326 l 2,0,1
EndSplineSet
EndChar

StartChar: o
Encoding: 111 111 82
Width: 605
GlyphClass: 1
Flags: W
LayerCount: 2
Fore
SplineSet
302 -10 m 0,0,1
 366 -10 366 -10 416.5 12 c 128,-1,2
 467 34 467 34 502.5 71.5 c 128,-1,3
 538 109 538 109 557 158 c 128,-1,4
 576 207 576 207 576 261 c 0,5,6
 576 316 576 316 557 365 c 128,-1,7
 538 414 538 414 502.5 451.5 c 128,-1,8
 467 489 467 489 416.5 511 c 128,-1,9
 366 533 366 533 302 533 c 0,10,11
 239 533 239 533 188.5 511 c 128,-1,12
 138 489 138 489 102.5 451.5 c 128,-1,13
 67 414 67 414 48 365 c 128,-1,14
 29 316 29 316 29 261 c 0,15,16
 29 207 29 207 48 158 c 128,-1,17
 67 109 67 109 102 71.5 c 128,-1,18
 137 34 137 34 188 12 c 128,-1,19
 239 -10 239 -10 302 -10 c 0,0,1
161 261 m 256,20,21
 161 296 161 296 172 325.5 c 128,-1,22
 183 355 183 355 202 376.5 c 128,-1,23
 221 398 221 398 247 410.5 c 128,-1,24
 273 423 273 423 302 423 c 0,25,26
 332 423 332 423 357.5 411 c 128,-1,27
 383 399 383 399 402.5 377.5 c 128,-1,28
 422 356 422 356 433 326.5 c 128,-1,29
 444 297 444 297 444 262 c 256,30,31
 444 227 444 227 433 197 c 128,-1,32
 422 167 422 167 402.5 145.5 c 128,-1,33
 383 124 383 124 357.5 112 c 128,-1,34
 332 100 332 100 302 100 c 0,35,36
 273 100 273 100 247 112 c 128,-1,37
 221 124 221 124 202 145.5 c 128,-1,38
 183 167 183 167 172 196.5 c 128,-1,39
 161 226 161 226 161 261 c 256,20,21
EndSplineSet
Substitution2: "Single Substitution lookup 45 subtable" ordmasculine
Substitution2: "'aalt' Access All Alternates lookup 0 subtable" ordmasculine
EndChar

StartChar: p
Encoding: 112 112 83
Width: 633
GlyphClass: 1
Flags: W
LayerCount: 2
Fore
SplineSet
372 -10 m 0,0,1
 422 -10 422 -10 464.5 11.5 c 128,-1,2
 507 33 507 33 537.5 69.5 c 128,-1,3
 568 106 568 106 585 155.5 c 128,-1,4
 602 205 602 205 602 263 c 0,5,6
 602 318 602 318 583.5 367 c 128,-1,7
 565 416 565 416 532.5 453 c 128,-1,8
 500 490 500 490 455 511.5 c 128,-1,9
 410 533 410 533 357 533 c 0,10,11
 297 533 297 533 250.5 506 c 128,-1,12
 204 479 204 479 175 433 c 1,13,-1
 175 524 l 1,14,-1
 62 524 l 1,15,-1
 62 -213 l 1,16,-1
 191 -213 l 1,17,-1
 191 93 l 1,18,19
 204 70 204 70 222.5 51 c 128,-1,20
 241 32 241 32 264 18.5 c 128,-1,21
 287 5 287 5 314.5 -2.5 c 128,-1,22
 342 -10 342 -10 372 -10 c 0,0,1
329 100 m 0,23,24
 307 100 307 100 286.5 108 c 128,-1,25
 266 116 266 116 247.5 130 c 128,-1,26
 229 144 229 144 214.5 163.5 c 128,-1,27
 200 183 200 183 191 206 c 1,28,-1
 191 332 l 1,29,30
 197 352 197 352 211 368.5 c 128,-1,31
 225 385 225 385 243 397 c 128,-1,32
 261 409 261 409 281.5 416 c 128,-1,33
 302 423 302 423 321 423 c 0,34,35
 353 423 353 423 380.5 410.5 c 128,-1,36
 408 398 408 398 428 376.5 c 128,-1,37
 448 355 448 355 459 325.5 c 128,-1,38
 470 296 470 296 470 263 c 0,39,40
 470 231 470 231 460 201.5 c 128,-1,41
 450 172 450 172 431.5 149.5 c 128,-1,42
 413 127 413 127 387 113.5 c 128,-1,43
 361 100 361 100 329 100 c 0,23,24
EndSplineSet
EndChar

StartChar: q
Encoding: 113 113 84
Width: 633
GlyphClass: 1
Flags: W
LayerCount: 2
Fore
SplineSet
261 -10 m 0,0,1
 319 -10 319 -10 365.5 16 c 128,-1,2
 412 42 412 42 442 93 c 1,3,-1
 442 -213 l 1,4,-1
 571 -213 l 1,5,-1
 571 524 l 1,6,-1
 458 524 l 1,7,-1
 458 432 l 1,8,9
 443 455 443 455 424.5 473.5 c 128,-1,10
 406 492 406 492 383 505.5 c 128,-1,11
 360 519 360 519 333 526 c 128,-1,12
 306 533 306 533 276 533 c 0,13,14
 224 533 224 533 179 512 c 128,-1,15
 134 491 134 491 101 454.5 c 128,-1,16
 68 418 68 418 49.5 368.5 c 128,-1,17
 31 319 31 319 31 263 c 256,18,19
 31 207 31 207 48 157 c 128,-1,20
 65 107 65 107 95.5 70 c 128,-1,21
 126 33 126 33 168 11.5 c 128,-1,22
 210 -10 210 -10 261 -10 c 0,0,1
308 100 m 0,23,24
 276 100 276 100 249 112.5 c 128,-1,25
 222 125 222 125 203 146 c 128,-1,26
 184 167 184 167 173 196.5 c 128,-1,27
 162 226 162 226 162 259 c 0,28,29
 162 291 162 291 173 321 c 128,-1,30
 184 351 184 351 203 373.5 c 128,-1,31
 222 396 222 396 248 409.5 c 128,-1,32
 274 423 274 423 306 423 c 0,33,34
 328 423 328 423 349.5 414.5 c 128,-1,35
 371 406 371 406 390 392 c 128,-1,36
 409 378 409 378 423 358 c 128,-1,37
 437 338 437 338 442 316 c 1,38,-1
 442 188 l 1,39,40
 431 169 431 169 416.5 152.5 c 128,-1,41
 402 136 402 136 385.5 124.5 c 128,-1,42
 369 113 369 113 350 106.5 c 128,-1,43
 331 100 331 100 308 100 c 0,23,24
EndSplineSet
Substitution2: "'ss06' Style Set 6 lookup 34 subtable" q.ss06
Substitution2: "'aalt' Access All Alternates lookup 0 subtable" q.ss06
EndChar

StartChar: r
Encoding: 114 114 85
Width: 384
GlyphClass: 1
Flags: W
LayerCount: 2
Fore
SplineSet
370 529 m 1,0,1
 366 530 366 530 360 530 c 128,-1,2
 354 530 354 530 343 530 c 0,3,4
 294 528 294 528 251 496.5 c 128,-1,5
 208 465 208 465 181 411 c 1,6,-1
 181 524 l 1,7,-1
 62 524 l 1,8,-1
 62 0 l 1,9,-1
 191 0 l 1,10,-1
 191 318 l 1,11,12
 212 363 212 363 260.5 387 c 128,-1,13
 309 411 309 411 370 413 c 1,14,-1
 370 529 l 1,0,1
EndSplineSet
EndChar

StartChar: s
Encoding: 115 115 86
Width: 493
GlyphClass: 1
Flags: W
LayerCount: 2
Fore
SplineSet
254 -10 m 0,0,1
 301 -10 301 -10 340 1 c 128,-1,2
 379 12 379 12 406.5 33.5 c 128,-1,3
 434 55 434 55 448.5 85.5 c 128,-1,4
 463 116 463 116 463 155 c 0,5,6
 463 191 463 191 450 214.5 c 128,-1,7
 437 238 437 238 412 255.5 c 128,-1,8
 387 273 387 273 351.5 286 c 128,-1,9
 316 299 316 299 269 313 c 0,10,11
 244 321 244 321 226 327 c 128,-1,12
 208 333 208 333 195.5 340 c 128,-1,13
 183 347 183 347 177 357 c 128,-1,14
 171 367 171 367 171 381 c 0,15,16
 171 397 171 397 178.5 408 c 128,-1,17
 186 419 186 419 197.5 426 c 128,-1,18
 209 433 209 433 224 435.5 c 128,-1,19
 239 438 239 438 256 438 c 0,20,21
 294 438 294 438 330 423.5 c 128,-1,22
 366 409 366 409 405 377 c 1,23,-1
 458 460 l 1,24,25
 417 499 417 499 367.5 516 c 128,-1,26
 318 533 318 533 262 533 c 0,27,28
 214 533 214 533 175 521.5 c 128,-1,29
 136 510 136 510 108.5 488.5 c 128,-1,30
 81 467 81 467 66 436 c 128,-1,31
 51 405 51 405 51 366 c 0,32,33
 51 334 51 334 62 311 c 128,-1,34
 73 288 73 288 95 271 c 128,-1,35
 117 254 117 254 149.5 241 c 128,-1,36
 182 228 182 228 225 214 c 0,37,38
 252 206 252 206 273 200 c 128,-1,39
 294 194 294 194 308.5 187 c 128,-1,40
 323 180 323 180 330.5 170 c 128,-1,41
 338 160 338 160 338 145 c 0,42,43
 338 116 338 116 314 101.5 c 128,-1,44
 290 87 290 87 249 87 c 0,45,46
 205 87 205 87 160 105 c 128,-1,47
 115 123 115 123 69 161 c 1,48,-1
 22 77 l 1,49,50
 66 34 66 34 126 12 c 128,-1,51
 186 -10 186 -10 254 -10 c 0,0,1
EndSplineSet
EndChar

StartChar: t
Encoding: 116 116 87
Width: 380
GlyphClass: 1
Flags: W
LayerCount: 2
Fore
SplineSet
345 129 m 1,0,1
 339 126 339 126 331 122.5 c 128,-1,2
 323 119 323 119 313.5 116 c 128,-1,3
 304 113 304 113 293 111 c 128,-1,4
 282 109 282 109 272 109 c 0,5,6
 250 109 250 109 235.5 121 c 128,-1,7
 221 133 221 133 220 161 c 2,8,-1
 220 425 l 1,9,-1
 331 425 l 1,10,-1
 331 524 l 1,11,-1
 220 524 l 1,12,-1
 220 694 l 1,13,-1
 91 694 l 1,14,-1
 91 524 l 1,15,-1
 23 524 l 1,16,-1
 23 425 l 1,17,-1
 91 425 l 1,18,-1
 91 118 l 2,19,20
 91 84 91 84 102 60 c 128,-1,21
 113 36 113 36 131 21 c 128,-1,22
 149 6 149 6 173.5 -1.5 c 128,-1,23
 198 -9 198 -9 225 -9 c 0,24,25
 247 -9 247 -9 267.5 -5 c 128,-1,26
 288 -1 288 -1 307 4 c 128,-1,27
 326 9 326 9 342.5 15 c 128,-1,28
 359 21 359 21 371 27 c 1,29,-1
 345 129 l 1,0,1
EndSplineSet
Substitution2: "'ss07' Style Set 7 lookup 35 subtable" t.ss07
Substitution2: "'aalt' Access All Alternates lookup 0 subtable" t.ss07
EndChar

StartChar: u
Encoding: 117 117 88
Width: 606
GlyphClass: 1
Flags: W
LayerCount: 2
Fore
SplineSet
544 0 m 1,0,-1
 544 524 l 1,1,-1
 415 524 l 1,2,-1
 415 199 l 1,3,4
 404 176 404 176 389 157 c 128,-1,5
 374 138 374 138 356.5 125.5 c 128,-1,6
 339 113 339 113 319 106.5 c 128,-1,7
 299 100 299 100 279 100 c 0,8,9
 253 100 253 100 234.5 109.5 c 128,-1,10
 216 119 216 119 205.5 135.5 c 128,-1,11
 195 152 195 152 190.5 175 c 128,-1,12
 186 198 186 198 186 225 c 2,13,-1
 186 524 l 1,14,-1
 57 524 l 1,15,-1
 57 197 l 2,16,17
 57 151 57 151 66 112.5 c 128,-1,18
 75 74 75 74 95.5 47 c 128,-1,19
 116 20 116 20 149 5 c 128,-1,20
 182 -10 182 -10 230 -10 c 0,21,22
 259 -10 259 -10 286.5 -3.5 c 128,-1,23
 314 3 314 3 339 15.5 c 128,-1,24
 364 28 364 28 385 47.5 c 128,-1,25
 406 67 406 67 420 92 c 1,26,-1
 420 0 l 1,27,-1
 544 0 l 1,0,-1
EndSplineSet
Substitution2: "'ss08' Style Set 8 lookup 36 subtable" u.ss08
Substitution2: "'aalt' Access All Alternates lookup 0 subtable" u.ss08
EndChar

StartChar: v
Encoding: 118 118 89
Width: 549
GlyphClass: 1
Flags: W
LayerCount: 2
Fore
SplineSet
344 0 m 1,0,-1
 538 524 l 1,1,-1
 416 524 l 1,2,-1
 279 118 l 1,3,-1
 143 524 l 1,4,-1
 10 524 l 1,5,-1
 204 0 l 1,6,-1
 344 0 l 1,0,-1
EndSplineSet
EndChar

StartChar: w
Encoding: 119 119 90
Width: 865
GlyphClass: 1
Flags: W
LayerCount: 2
Fore
SplineSet
16 522 m 1,0,-1
 196 0 l 1,1,-1
 325 0 l 1,2,-1
 434 343 l 1,3,-1
 543 0 l 1,4,-1
 672 0 l 1,5,-1
 851 522 l 1,6,-1
 730 522 l 1,7,-1
 602 134 l 1,8,-1
 490 522 l 1,9,-1
 379 522 l 1,10,-1
 266 134 l 1,11,-1
 138 522 l 1,12,-1
 16 522 l 1,0,-1
EndSplineSet
Substitution2: "'ss09' Style Set 9 lookup 37 subtable" w.ss09
Substitution2: "'aalt' Access All Alternates lookup 0 subtable" w.ss09
EndChar

StartChar: x
Encoding: 120 120 91
Width: 529
GlyphClass: 1
Flags: W
LayerCount: 2
Fore
SplineSet
7 524 m 1,0,-1
 191 260 l 1,1,-1
 5 0 l 1,2,-1
 141 0 l 1,3,-1
 256 166 l 1,4,-1
 264 183 l 1,5,-1
 273 166 l 1,6,-1
 389 0 l 1,7,-1
 525 0 l 1,8,-1
 339 262 l 1,9,-1
 522 524 l 1,10,-1
 386 524 l 1,11,-1
 274 357 l 1,12,-1
 264 339 l 1,13,-1
 256 357 l 1,14,-1
 143 524 l 1,15,-1
 7 524 l 1,0,-1
EndSplineSet
EndChar

StartChar: y
Encoding: 121 121 92
Width: 550
GlyphClass: 1
Flags: W
LayerCount: 2
Fore
SplineSet
416 524 m 1,0,-1
 286 123 l 1,1,-1
 140 524 l 1,2,-1
 6 524 l 1,3,-1
 215 0 l 1,4,-1
 131 -213 l 1,5,-1
 279 -213 l 1,6,-1
 537 524 l 1,7,-1
 416 524 l 1,0,-1
EndSplineSet
Substitution2: "'ss10' Style Set 10 lookup 38 subtable" y.ss10
Substitution2: "'aalt' Access All Alternates lookup 0 subtable" y.ss10
EndChar

StartChar: z
Encoding: 122 122 93
Width: 493
GlyphClass: 1
Flags: W
LayerCount: 2
Fore
SplineSet
27 0 m 1,0,-1
 463 0 l 1,1,-1
 463 90 l 1,2,-1
 167 90 l 1,3,-1
 459 445 l 1,4,-1
 459 524 l 1,5,-1
 38 524 l 1,6,-1
 38 433 l 1,7,-1
 320 433 l 1,8,-1
 27 79 l 1,9,-1
 27 0 l 1,0,-1
EndSplineSet
EndChar

StartChar: braceleft
Encoding: 123 123 94
Width: 312
GlyphClass: 1
Flags: W
LayerCount: 2
Fore
SplineSet
262 637 m 1,0,-1
 262 740 l 1,1,-1
 114 740 l 2,2,3
 109 740 109 740 100 734.5 c 128,-1,4
 91 729 91 729 91 710 c 2,5,-1
 91 470 l 2,6,7
 91 461 91 461 87.5 449.5 c 128,-1,8
 84 438 84 438 77.5 428.5 c 128,-1,9
 71 419 71 419 62 412.5 c 128,-1,10
 53 406 53 406 42 406 c 1,11,-1
 42 316 l 1,12,13
 62 312 62 312 76.5 294 c 128,-1,14
 91 276 91 276 91 250 c 2,15,-1
 91 -1 l 2,16,17
 91 -19 91 -19 99 -25 c 128,-1,18
 107 -31 107 -31 114 -31 c 2,19,-1
 262 -31 l 1,20,-1
 262 72 l 1,21,-1
 207 72 l 1,22,-1
 207 291 l 2,23,24
 207 310 207 310 198 328 c 128,-1,25
 189 346 189 346 174 360 c 1,26,27
 190 374 190 374 198.5 391.5 c 128,-1,28
 207 409 207 409 207 429 c 2,29,-1
 207 637 l 1,30,-1
 262 637 l 1,0,-1
EndSplineSet
EndChar

StartChar: bar
Encoding: 124 124 95
Width: 269
GlyphClass: 1
Flags: W
LayerCount: 2
Fore
SplineSet
189 -130 m 1,0,-1
 189 775 l 1,1,-1
 80 775 l 1,2,-1
 80 -130 l 1,3,-1
 189 -130 l 1,0,-1
EndSplineSet
EndChar

StartChar: braceright
Encoding: 125 125 96
Width: 312
GlyphClass: 1
Flags: W
LayerCount: 2
Fore
SplineSet
105 637 m 1,0,-1
 105 429 l 2,1,2
 105 409 105 409 114 391.5 c 128,-1,3
 123 374 123 374 139 360 c 1,4,5
 123 346 123 346 114 328 c 128,-1,6
 105 310 105 310 105 291 c 2,7,-1
 105 72 l 1,8,-1
 50 72 l 1,9,-1
 50 -31 l 1,10,-1
 198 -31 l 2,11,12
 204 -31 204 -31 212.5 -25 c 128,-1,13
 221 -19 221 -19 221 -1 c 2,14,-1
 221 250 l 2,15,16
 221 276 221 276 235.5 294 c 128,-1,17
 250 312 250 312 270 316 c 1,18,-1
 270 406 l 1,19,20
 260 406 260 406 251 412.5 c 128,-1,21
 242 419 242 419 235 428.5 c 128,-1,22
 228 438 228 438 224.5 449.5 c 128,-1,23
 221 461 221 461 221 470 c 2,24,-1
 221 710 l 2,25,26
 221 729 221 729 212 734.5 c 128,-1,27
 203 740 203 740 198 740 c 2,28,-1
 50 740 l 1,29,-1
 50 637 l 1,30,-1
 105 637 l 1,0,-1
EndSplineSet
EndChar

StartChar: asciitilde
Encoding: 126 126 97
Width: 563
GlyphClass: 1
Flags: W
LayerCount: 2
Fore
SplineSet
57 229 m 1,0,-1
 129 229 l 1,1,2
 129 230 129 230 131 238 c 128,-1,3
 133 246 133 246 140 256 c 128,-1,4
 147 266 147 266 160 273.5 c 128,-1,5
 173 281 173 281 193 281 c 0,6,7
 214 281 214 281 233.5 273 c 128,-1,8
 253 265 253 265 274 255 c 128,-1,9
 295 245 295 245 318 237 c 128,-1,10
 341 229 341 229 367 229 c 0,11,12
 408 229 408 229 435 246.5 c 128,-1,13
 462 264 462 264 478 287 c 128,-1,14
 494 310 494 310 501 330.5 c 128,-1,15
 508 351 508 351 508 356 c 1,16,-1
 437 356 l 1,17,18
 437 354 437 354 434 345.5 c 128,-1,19
 431 337 431 337 423.5 328 c 128,-1,20
 416 319 416 319 402.5 311.5 c 128,-1,21
 389 304 389 304 368 304 c 0,22,23
 346 304 346 304 326 313 c 128,-1,24
 306 322 306 322 285.5 332 c 128,-1,25
 265 342 265 342 242.5 350.5 c 128,-1,26
 220 359 220 359 194 359 c 0,27,28
 155 359 155 359 129 342 c 128,-1,29
 103 325 103 325 87 302.5 c 128,-1,30
 71 280 71 280 64 258.5 c 128,-1,31
 57 237 57 237 57 229 c 1,0,-1
EndSplineSet
EndChar

StartChar: exclamdown
Encoding: 161 161 99
Width: 302
GlyphClass: 1
Flags: W
LayerCount: 2
Fore
SplineSet
233 447 m 256,0,1
 233 464 233 464 226.5 478.5 c 128,-1,2
 220 493 220 493 209 504.5 c 128,-1,3
 198 516 198 516 183 522.5 c 128,-1,4
 168 529 168 529 151 529 c 256,5,6
 134 529 134 529 119 522.5 c 128,-1,7
 104 516 104 516 93 504.5 c 128,-1,8
 82 493 82 493 75.5 478.5 c 128,-1,9
 69 464 69 464 69 447 c 256,10,11
 69 430 69 430 75.5 415 c 128,-1,12
 82 400 82 400 93 389 c 128,-1,13
 104 378 104 378 119 371.5 c 128,-1,14
 134 365 134 365 151 365 c 256,15,16
 168 365 168 365 183 371.5 c 128,-1,17
 198 378 198 378 209 389 c 128,-1,18
 220 400 220 400 226.5 415 c 128,-1,19
 233 430 233 430 233 447 c 256,0,1
112 255 m 1,20,-1
 87 -1 l 1,21,-1
 87 -198 l 1,22,-1
 215 -198 l 1,23,-1
 215 -1 l 1,24,-1
 190 255 l 1,25,-1
 112 255 l 1,20,-1
EndSplineSet
EndChar

StartChar: cent
Encoding: 162 162 100
Width: 589
GlyphClass: 1
Flags: W
LayerCount: 2
Fore
SplineSet
334 -120 m 1,0,-1
 334 -10 l 1,1,2
 360 -10 360 -10 392 -1.5 c 128,-1,3
 424 7 424 7 455 24 c 128,-1,4
 486 41 486 41 512 66.5 c 128,-1,5
 538 92 538 92 552 126 c 1,6,-1
 427 164 l 1,7,8
 423 152 423 152 413 141.5 c 128,-1,9
 403 131 403 131 390 123.5 c 128,-1,10
 377 116 377 116 362.5 110.5 c 128,-1,11
 348 105 348 105 334 103 c 1,12,-1
 334 419 l 1,13,14
 362 417 362 417 386 402 c 128,-1,15
 410 387 410 387 424 361 c 1,16,-1
 549 400 l 1,17,18
 517 462 517 462 461 496 c 128,-1,19
 405 530 405 530 334 532 c 1,20,-1
 334 645 l 1,21,-1
 276 645 l 1,22,-1
 276 532 l 1,23,24
 219 524 219 524 175 499 c 128,-1,25
 131 474 131 474 101 437.5 c 128,-1,26
 71 401 71 401 55.5 355 c 128,-1,27
 40 309 40 309 40 258 c 0,28,29
 40 210 40 210 57.5 164 c 128,-1,30
 75 118 75 118 106 81 c 128,-1,31
 137 44 137 44 181 19.5 c 128,-1,32
 225 -5 225 -5 276 -9 c 1,33,-1
 276 -120 l 1,34,-1
 334 -120 l 1,0,-1
172 258 m 0,35,36
 172 285 172 285 179 311 c 128,-1,37
 186 337 186 337 199.5 358.5 c 128,-1,38
 213 380 213 380 232.5 394.5 c 128,-1,39
 252 409 252 409 276 414 c 1,40,-1
 276 109 l 1,41,42
 253 116 253 116 233.5 130.5 c 128,-1,43
 214 145 214 145 200.5 165 c 128,-1,44
 187 185 187 185 179.5 209 c 128,-1,45
 172 233 172 233 172 258 c 0,35,36
EndSplineSet
EndChar

StartChar: sterling
Encoding: 163 163 101
Width: 542
GlyphClass: 1
Flags: W
LayerCount: 2
Fore
SplineSet
56 283 m 1,0,-1
 431 283 l 1,1,-1
 431 380 l 1,2,-1
 56 380 l 1,3,-1
 56 283 l 1,0,-1
80 -8 m 1,4,5
 111 1 111 1 145 7 c 128,-1,6
 179 13 179 13 206 13 c 0,7,8
 230 13 230 13 253 8.5 c 128,-1,9
 276 4 276 4 299 -1 c 128,-1,10
 322 -6 322 -6 344.5 -10.5 c 128,-1,11
 367 -15 367 -15 389 -15 c 0,12,13
 418 -15 418 -15 448.5 -7 c 128,-1,14
 479 1 479 1 504 15 c 1,15,-1
 472 111 l 1,16,17
 449 103 449 103 432 99 c 128,-1,18
 415 95 415 95 396 95 c 0,19,20
 379 95 379 95 362.5 98 c 128,-1,21
 346 101 346 101 329.5 103.5 c 128,-1,22
 313 106 313 106 295.5 109 c 128,-1,23
 278 112 278 112 260 112 c 256,24,25
 242 112 242 112 224 109 c 128,-1,26
 206 106 206 106 184 100 c 1,27,28
 208 124 208 124 224 146.5 c 128,-1,29
 240 169 240 169 250.5 190.5 c 128,-1,30
 261 212 261 212 266 233 c 128,-1,31
 271 254 271 254 271 277 c 0,32,33
 271 318 271 318 258.5 351.5 c 128,-1,34
 246 385 246 385 231 415 c 128,-1,35
 216 445 216 445 204 471.5 c 128,-1,36
 192 498 192 498 192 525 c 0,37,38
 192 544 192 544 198 559.5 c 128,-1,39
 204 575 204 575 216 586 c 128,-1,40
 228 597 228 597 244 603.5 c 128,-1,41
 260 610 260 610 278 610 c 0,42,43
 315 610 315 610 354 588 c 128,-1,44
 393 566 393 566 418 531 c 1,45,-1
 485 610 l 1,46,47
 449 659 449 659 395 687 c 128,-1,48
 341 715 341 715 280 715 c 0,49,50
 237 715 237 715 200 701 c 128,-1,51
 163 687 163 687 135.5 663 c 128,-1,52
 108 639 108 639 92 607 c 128,-1,53
 76 575 76 575 76 538 c 0,54,55
 76 503 76 503 89 471 c 128,-1,56
 102 439 102 439 117.5 407 c 128,-1,57
 133 375 133 375 146.5 342 c 128,-1,58
 160 309 160 309 160 272 c 0,59,60
 160 248 160 248 153 224 c 128,-1,61
 146 200 146 200 132.5 176.5 c 128,-1,62
 119 153 119 153 99 129.5 c 128,-1,63
 79 106 79 106 51 84 c 1,64,-1
 80 -8 l 1,4,5
EndSplineSet
EndChar

StartChar: currency
Encoding: 164 164 102
Width: 550
GlyphClass: 1
Flags: W
LayerCount: 2
Fore
SplineSet
99 566 m 1,0,-1
 46 513 l 1,1,-1
 115 443 l 1,2,3
 99 420 99 420 91.5 393.5 c 128,-1,4
 84 367 84 367 84 337 c 0,5,6
 84 308 84 308 92 281 c 128,-1,7
 100 254 100 254 116 231 c 1,8,-1
 46 161 l 1,9,-1
 94 113 l 1,10,-1
 167 182 l 1,11,12
 189 167 189 167 216.5 159 c 128,-1,13
 244 151 244 151 276 151 c 256,14,15
 308 151 308 151 335 159 c 128,-1,16
 362 167 362 167 383 181 c 1,17,-1
 456 113 l 1,18,-1
 504 161 l 1,19,-1
 435 230 l 1,20,21
 451 253 451 253 459 280.5 c 128,-1,22
 467 308 467 308 467 337 c 0,23,24
 467 367 467 367 459 394.5 c 128,-1,25
 451 422 451 422 436 445 c 1,26,-1
 504 513 l 1,27,-1
 451 566 l 1,28,-1
 381 495 l 1,29,30
 359 509 359 509 333 516.5 c 128,-1,31
 307 524 307 524 276 524 c 256,32,33
 245 524 245 524 218 516.5 c 128,-1,34
 191 509 191 509 169 494 c 1,35,-1
 99 566 l 1,0,-1
181 337 m 0,36,37
 181 360 181 360 188 379.5 c 128,-1,38
 195 399 195 399 208 412.5 c 128,-1,39
 221 426 221 426 238.5 434 c 128,-1,40
 256 442 256 442 276 442 c 256,41,42
 296 442 296 442 313.5 434.5 c 128,-1,43
 331 427 331 427 343.5 413 c 128,-1,44
 356 399 356 399 363.5 380 c 128,-1,45
 371 361 371 361 371 338 c 256,46,47
 371 315 371 315 363.5 295.5 c 128,-1,48
 356 276 356 276 343.5 262 c 128,-1,49
 331 248 331 248 313.5 240.5 c 128,-1,50
 296 233 296 233 276 233 c 256,51,52
 256 233 256 233 238.5 240.5 c 128,-1,53
 221 248 221 248 208 262 c 128,-1,54
 195 276 195 276 188 295.5 c 128,-1,55
 181 315 181 315 181 337 c 0,36,37
EndSplineSet
EndChar

StartChar: yen
Encoding: 165 165 103
Width: 709
GlyphClass: 1
Flags: W
LayerCount: 2
Fore
SplineSet
679 710 m 1,0,-1
 535 710 l 1,1,-1
 352 365 l 1,2,-1
 173 710 l 1,3,-1
 29 710 l 1,4,-1
 209 399 l 1,5,-1
 133 399 l 1,6,-1
 133 315 l 1,7,-1
 252 315 l 1,8,-1
 287 251 l 1,9,-1
 287 219 l 1,10,-1
 132 219 l 1,11,-1
 132 135 l 1,12,-1
 287 135 l 1,13,-1
 287 0 l 1,14,-1
 418 0 l 1,15,-1
 418 135 l 1,16,-1
 574 135 l 1,17,-1
 574 219 l 1,18,-1
 418 219 l 1,19,-1
 418 249 l 1,20,-1
 454 315 l 1,21,-1
 573 315 l 1,22,-1
 573 399 l 1,23,-1
 499 399 l 1,24,-1
 679 710 l 1,0,-1
EndSplineSet
EndChar

StartChar: brokenbar
Encoding: 166 166 104
Width: 272
GlyphClass: 1
Flags: W
LayerCount: 2
Fore
SplineSet
81 265 m 1,0,-1
 81 -130 l 1,1,-1
 191 -130 l 1,2,-1
 191 265 l 1,3,-1
 81 265 l 1,0,-1
81 775 m 1,4,-1
 81 380 l 1,5,-1
 191 380 l 1,6,-1
 191 775 l 1,7,-1
 81 775 l 1,4,-1
EndSplineSet
EndChar

StartChar: section
Encoding: 167 167 105
Width: 531
GlyphClass: 1
Flags: W
LayerCount: 2
Fore
SplineSet
453 213 m 1,0,1
 461 224 461 224 468 245.5 c 128,-1,2
 475 267 475 267 475 296 c 0,3,4
 475 343 475 343 455.5 374.5 c 128,-1,5
 436 406 436 406 405.5 425.5 c 128,-1,6
 375 445 375 445 336.5 454 c 128,-1,7
 298 463 298 463 261 463 c 0,8,9
 243 463 243 463 227 466 c 128,-1,10
 211 469 211 469 199 476.5 c 128,-1,11
 187 484 187 484 180.5 497 c 128,-1,12
 174 510 174 510 174 529 c 0,13,14
 174 545 174 545 180.5 558 c 128,-1,15
 187 571 187 571 199 581 c 128,-1,16
 211 591 211 591 227 595.5 c 128,-1,17
 243 600 243 600 261 600 c 0,18,19
 278 600 278 600 293.5 597 c 128,-1,20
 309 594 309 594 322 587 c 128,-1,21
 335 580 335 580 346 570 c 128,-1,22
 357 560 357 560 364 547 c 1,23,-1
 463 594 l 1,24,25
 451 612 451 612 432.5 633 c 128,-1,26
 414 654 414 654 388.5 672.5 c 128,-1,27
 363 691 363 691 329.5 703 c 128,-1,28
 296 715 296 715 253 715 c 256,29,30
 210 715 210 715 172 700 c 128,-1,31
 134 685 134 685 105.5 659 c 128,-1,32
 77 633 77 633 60 599 c 128,-1,33
 43 565 43 565 43 527 c 0,34,35
 43 488 43 488 56.5 459 c 128,-1,36
 70 430 70 430 85 416 c 1,37,38
 79 406 79 406 72.5 388 c 128,-1,39
 66 370 66 370 66 341 c 0,40,41
 66 303 66 303 80 272 c 128,-1,42
 94 241 94 241 120 218 c 128,-1,43
 146 195 146 195 184.5 181.5 c 128,-1,44
 223 168 223 168 272 164 c 0,45,46
 287 164 287 164 301.5 161.5 c 128,-1,47
 316 159 316 159 328 153 c 128,-1,48
 340 147 340 147 347.5 136 c 128,-1,49
 355 125 355 125 355 106 c 0,50,51
 355 89 355 89 347 75.5 c 128,-1,52
 339 62 339 62 326.5 53 c 128,-1,53
 314 44 314 44 297 39 c 128,-1,54
 280 34 280 34 263 34 c 0,55,56
 229 34 229 34 198.5 48 c 128,-1,57
 168 62 168 62 136 94 c 1,58,-1
 54 15 l 1,59,60
 66 1 66 1 86.5 -17 c 128,-1,61
 107 -35 107 -35 134.5 -51 c 128,-1,62
 162 -67 162 -67 195.5 -77.5 c 128,-1,63
 229 -88 229 -88 268 -88 c 0,64,65
 303 -88 303 -88 341.5 -77 c 128,-1,66
 380 -66 380 -66 413 -42 c 128,-1,67
 446 -18 446 -18 467.5 19.5 c 128,-1,68
 489 57 489 57 489 111 c 0,69,70
 489 149 489 149 479 174 c 128,-1,71
 469 199 469 199 453 213 c 1,0,1
191 324 m 0,72,73
 191 337 191 337 195.5 349.5 c 128,-1,74
 200 362 200 362 208 369 c 1,75,76
 216 365 216 365 232 362 c 128,-1,77
 248 359 248 359 266 359 c 0,78,79
 280 359 280 359 295.5 356 c 128,-1,80
 311 353 311 353 323.5 345.5 c 128,-1,81
 336 338 336 338 344.5 325 c 128,-1,82
 353 312 353 312 353 293 c 0,83,84
 353 280 353 280 348 266.5 c 128,-1,85
 343 253 343 253 334 246 c 1,86,87
 323 250 323 250 308 251.5 c 128,-1,88
 293 253 293 253 277 255 c 128,-1,89
 261 257 261 257 246 260.5 c 128,-1,90
 231 264 231 264 218.5 271 c 128,-1,91
 206 278 206 278 198.5 290.5 c 128,-1,92
 191 303 191 303 191 324 c 0,72,73
EndSplineSet
EndChar

StartChar: copyright
Encoding: 169 169 107
Width: 840
GlyphClass: 1
Flags: W
LayerCount: 2
Fore
SplineSet
417 -7 m 0,0,1
 499 -7 499 -7 569 20.5 c 128,-1,2
 639 48 639 48 689.5 96.5 c 128,-1,3
 740 145 740 145 768.5 211 c 128,-1,4
 797 277 797 277 797 355 c 0,5,6
 797 432 797 432 768.5 498 c 128,-1,7
 740 564 740 564 689.5 612 c 128,-1,8
 639 660 639 660 569 687.5 c 128,-1,9
 499 715 499 715 417 715 c 0,10,11
 337 715 337 715 268 687.5 c 128,-1,12
 199 660 199 660 149.5 612 c 128,-1,13
 100 564 100 564 71.5 498 c 128,-1,14
 43 432 43 432 43 355 c 0,15,16
 43 277 43 277 71.5 211 c 128,-1,17
 100 145 100 145 149.5 96.5 c 128,-1,18
 199 48 199 48 268 20.5 c 128,-1,19
 337 -7 337 -7 417 -7 c 0,0,1
417 45 m 0,20,21
 349 45 349 45 290.5 69 c 128,-1,22
 232 93 232 93 189.5 134.5 c 128,-1,23
 147 176 147 176 123 232.5 c 128,-1,24
 99 289 99 289 99 354 c 0,25,26
 99 420 99 420 123 476 c 128,-1,27
 147 532 147 532 190 574 c 128,-1,28
 233 616 233 616 291 639.5 c 128,-1,29
 349 663 349 663 417 663 c 0,30,31
 487 663 487 663 546.5 639.5 c 128,-1,32
 606 616 606 616 649 574 c 128,-1,33
 692 532 692 532 716.5 475.5 c 128,-1,34
 741 419 741 419 741 354 c 0,35,36
 741 285 741 285 716 228.5 c 128,-1,37
 691 172 691 172 647.5 131 c 128,-1,38
 604 90 604 90 545 67.5 c 128,-1,39
 486 45 486 45 417 45 c 0,20,21
426 121 m 0,40,41
 467 121 467 121 502 131.5 c 128,-1,42
 537 142 537 142 564.5 160 c 128,-1,43
 592 178 592 178 611.5 201 c 128,-1,44
 631 224 631 224 642 248 c 1,45,-1
 520 285 l 1,46,47
 513 272 513 272 502.5 261.5 c 128,-1,48
 492 251 492 251 479 243.5 c 128,-1,49
 466 236 466 236 452 232 c 128,-1,50
 438 228 438 228 424 228 c 0,51,52
 403 228 403 228 382.5 236.5 c 128,-1,53
 362 245 362 245 345 261 c 128,-1,54
 328 277 328 277 318 300.5 c 128,-1,55
 308 324 308 324 308 355 c 0,56,57
 308 380 308 380 315.5 403 c 128,-1,58
 323 426 323 426 338 443.5 c 128,-1,59
 353 461 353 461 374 471.5 c 128,-1,60
 395 482 395 482 423 482 c 0,61,62
 435 482 435 482 448.5 479 c 128,-1,63
 462 476 462 476 474 469.5 c 128,-1,64
 486 463 486 463 497.5 452.5 c 128,-1,65
 509 442 509 442 516 427 c 1,66,-1
 638 464 l 1,67,68
 612 522 612 522 556 555.5 c 128,-1,69
 500 589 500 589 423 589 c 0,70,71
 362 589 362 589 316.5 569 c 128,-1,72
 271 549 271 549 240.5 516 c 128,-1,73
 210 483 210 483 194.5 441 c 128,-1,74
 179 399 179 399 179 355 c 0,75,76
 179 305 179 305 197 262 c 128,-1,77
 215 219 215 219 247.5 187.5 c 128,-1,78
 280 156 280 156 325.5 138.5 c 128,-1,79
 371 121 371 121 426 121 c 0,40,41
EndSplineSet
EndChar

StartChar: ordfeminine
Encoding: 170 170 108
Width: 443
GlyphClass: 1
Flags: W
LayerCount: 2
Fore
SplineSet
161 340 m 0,0,1
 199 340 199 340 232.5 356.5 c 128,-1,2
 266 373 266 373 290 405 c 1,3,-1
 291 348 l 1,4,-1
 370 348 l 1,5,-1
 370 563 l 2,6,7
 370 637 370 637 327 675 c 128,-1,8
 284 713 284 713 207 713 c 0,9,10
 167 713 167 713 130.5 701.5 c 128,-1,11
 94 690 94 690 59 666 c 1,12,-1
 88 606 l 1,13,14
 117 626 117 626 143.5 636.5 c 128,-1,15
 170 647 170 647 198 647 c 0,16,17
 237 647 237 647 256 628 c 128,-1,18
 275 609 275 609 275 575 c 2,19,-1
 275 555 l 1,20,21
 258 563 258 563 236 567 c 128,-1,22
 214 571 214 571 190 571 c 0,23,24
 124 571 124 571 82.5 538.5 c 128,-1,25
 41 506 41 506 41 453 c 0,26,27
 41 429 41 429 50 408 c 128,-1,28
 59 387 59 387 75 372 c 128,-1,29
 91 357 91 357 113.5 348.5 c 128,-1,30
 136 340 136 340 161 340 c 0,0,1
189 409 m 0,31,32
 163 409 163 409 146.5 424.5 c 128,-1,33
 130 440 130 440 130 462 c 0,34,35
 130 486 130 486 151.5 501 c 128,-1,36
 173 516 173 516 207 516 c 0,37,38
 223 516 223 516 241.5 513 c 128,-1,39
 260 510 260 510 275 503 c 1,40,-1
 275 464 l 2,41,42
 275 457 275 457 271.5 450 c 128,-1,43
 268 443 268 443 261 438 c 0,44,45
 249 425 249 425 229.5 417 c 128,-1,46
 210 409 210 409 189 409 c 0,31,32
EndSplineSet
EndChar

StartChar: guillemotleft
Encoding: 171 171 109
Width: 643
GlyphClass: 1
Flags: W
LayerCount: 2
Fore
SplineSet
36 224 m 1,0,-1
 299 48 l 1,1,-1
 299 153 l 1,2,-1
 138 259 l 1,3,-1
 299 370 l 1,4,-1
 299 475 l 1,5,-1
 36 287 l 1,6,-1
 36 224 l 1,0,-1
322 224 m 1,7,-1
 584 48 l 1,8,-1
 584 153 l 1,9,-1
 424 259 l 1,10,-1
 584 370 l 1,11,-1
 584 475 l 1,12,-1
 322 287 l 1,13,-1
 322 224 l 1,7,-1
EndSplineSet
EndChar

StartChar: logicalnot
Encoding: 172 172 110
Width: 609
GlyphClass: 1
Flags: W
LayerCount: 2
Fore
SplineSet
60 397 m 1,0,-1
 60 281 l 1,1,-1
 434 281 l 1,2,-1
 434 108 l 1,3,-1
 544 108 l 1,4,-1
 544 397 l 1,5,-1
 60 397 l 1,0,-1
EndSplineSet
EndChar

StartChar: uni00AD
Encoding: 173 173 111
Width: 601
GlyphClass: 1
Flags: W
LayerCount: 2
Fore
SplineSet
542 216 m 1,0,-1
 542 332 l 1,1,-1
 58 332 l 1,2,-1
 58 216 l 1,3,-1
 542 216 l 1,0,-1
EndSplineSet
EndChar

StartChar: registered
Encoding: 174 174 112
Width: 840
GlyphClass: 1
Flags: W
LayerCount: 2
Fore
SplineSet
419 -7 m 0,0,1
 500 -7 500 -7 569 20.5 c 128,-1,2
 638 48 638 48 689 96.5 c 128,-1,3
 740 145 740 145 768.5 211 c 128,-1,4
 797 277 797 277 797 355 c 0,5,6
 797 432 797 432 768.5 498 c 128,-1,7
 740 564 740 564 689 612 c 128,-1,8
 638 660 638 660 569 687.5 c 128,-1,9
 500 715 500 715 419 715 c 0,10,11
 337 715 337 715 268.5 687.5 c 128,-1,12
 200 660 200 660 150 612 c 128,-1,13
 100 564 100 564 71.5 498 c 128,-1,14
 43 432 43 432 43 355 c 0,15,16
 43 277 43 277 71.5 211 c 128,-1,17
 100 145 100 145 150 96.5 c 128,-1,18
 200 48 200 48 268.5 20.5 c 128,-1,19
 337 -7 337 -7 419 -7 c 0,0,1
419 44 m 0,20,21
 350 44 350 44 291.5 68 c 128,-1,22
 233 92 233 92 191 134 c 128,-1,23
 149 176 149 176 125.5 233 c 128,-1,24
 102 290 102 290 102 355 c 256,25,26
 102 420 102 420 125.5 476 c 128,-1,27
 149 532 149 532 191 573.5 c 128,-1,28
 233 615 233 615 291.5 639 c 128,-1,29
 350 663 350 663 419 663 c 256,30,31
 488 663 488 663 546.5 639 c 128,-1,32
 605 615 605 615 648 573.5 c 128,-1,33
 691 532 691 532 715 475.5 c 128,-1,34
 739 419 739 419 739 353 c 0,35,36
 739 285 739 285 714.5 228.5 c 128,-1,37
 690 172 690 172 647 131 c 128,-1,38
 604 90 604 90 545 67 c 128,-1,39
 486 44 486 44 419 44 c 0,20,21
258 136 m 1,40,-1
 349 136 l 1,41,-1
 349 285 l 1,42,-1
 417 285 l 1,43,-1
 511 136 l 1,44,-1
 613 136 l 1,45,-1
 510 302 l 1,46,47
 528 309 528 309 543.5 322 c 128,-1,48
 559 335 559 335 569.5 352 c 128,-1,49
 580 369 580 369 586 389 c 128,-1,50
 592 409 592 409 592 430 c 0,51,52
 592 456 592 456 581.5 482.5 c 128,-1,53
 571 509 571 509 552.5 530 c 128,-1,54
 534 551 534 551 508.5 563.5 c 128,-1,55
 483 576 483 576 452 576 c 2,56,-1
 258 576 l 1,57,-1
 258 136 l 1,40,-1
349 362 m 1,58,-1
 349 497 l 1,59,-1
 442 497 l 2,60,61
 455 497 455 497 465.5 493 c 128,-1,62
 476 489 476 489 484 480.5 c 128,-1,63
 492 472 492 472 497 459.5 c 128,-1,64
 502 447 502 447 502 430 c 0,65,66
 502 414 502 414 498 401.5 c 128,-1,67
 494 389 494 389 486.5 380 c 128,-1,68
 479 371 479 371 468.5 366.5 c 128,-1,69
 458 362 458 362 445 362 c 2,70,-1
 349 362 l 1,58,-1
EndSplineSet
EndChar

StartChar: degree
Encoding: 176 176 114
Width: 283
GlyphClass: 1
Flags: W
LayerCount: 2
Fore
SplineSet
41 626 m 0,0,1
 41 581 41 581 69.5 551.5 c 128,-1,2
 98 522 98 522 142 522 c 256,3,4
 186 522 186 522 214.5 550.5 c 128,-1,5
 243 579 243 579 243 626 c 0,6,7
 243 668 243 668 214.5 696 c 128,-1,8
 186 724 186 724 142 724 c 256,9,10
 98 724 98 724 69.5 696 c 128,-1,11
 41 668 41 668 41 626 c 0,0,1
114 650 m 0,12,13
 120 655 120 655 126.5 658 c 128,-1,14
 133 661 133 661 142 661 c 0,15,16
 149 661 149 661 156.5 658 c 128,-1,17
 164 655 164 655 168 650 c 0,18,19
 173 645 173 645 176 638 c 128,-1,20
 179 631 179 631 179 623 c 0,21,22
 179 616 179 616 176 608.5 c 128,-1,23
 173 601 173 601 168 597 c 0,24,25
 164 591 164 591 156.5 588 c 128,-1,26
 149 585 149 585 141 585 c 256,27,28
 133 585 133 585 126.5 588 c 128,-1,29
 120 591 120 591 114 597 c 0,30,31
 110 601 110 601 107 608.5 c 128,-1,32
 104 616 104 616 104 623 c 0,33,34
 104 631 104 631 107 638 c 128,-1,35
 110 645 110 645 114 650 c 0,12,13
EndSplineSet
EndChar

StartChar: plusminus
Encoding: 177 177 115
Width: 472
GlyphClass: 1
Flags: W
LayerCount: 2
Fore
SplineSet
411 31 m 1,0,-1
 411 134 l 1,1,-1
 60 134 l 1,2,-1
 60 31 l 1,3,-1
 411 31 l 1,0,-1
294 427 m 1,4,-1
 294 555 l 1,5,-1
 178 555 l 1,6,-1
 178 427 l 1,7,-1
 60 427 l 1,8,-1
 60 324 l 1,9,-1
 178 324 l 1,10,-1
 178 196 l 1,11,-1
 294 196 l 1,12,-1
 294 324 l 1,13,-1
 411 324 l 1,14,-1
 411 427 l 1,15,-1
 294 427 l 1,4,-1
EndSplineSet
EndChar

StartChar: twosuperior
Encoding: 178 178 116
Width: 414
GlyphClass: 1
Flags: W
LayerCount: 2
Fore
SplineSet
376 390 m 1,0,-1
 376 466 l 1,1,-1
 143 466 l 1,2,3
 143 478 143 478 150 489.5 c 128,-1,4
 157 501 157 501 170 512 c 128,-1,5
 183 523 183 523 202.5 532.5 c 128,-1,6
 222 542 222 542 247 550 c 0,7,8
 267 556 267 556 290 565.5 c 128,-1,9
 313 575 313 575 333 590.5 c 128,-1,10
 353 606 353 606 366.5 629.5 c 128,-1,11
 380 653 380 653 380 686 c 0,12,13
 380 715 380 715 369.5 739 c 128,-1,14
 359 763 359 763 338.5 780 c 128,-1,15
 318 797 318 797 287.5 806 c 128,-1,16
 257 815 257 815 216 815 c 0,17,18
 181 815 181 815 150.5 808 c 128,-1,19
 120 801 120 801 96.5 791 c 128,-1,20
 73 781 73 781 57 768.5 c 128,-1,21
 41 756 41 756 34 746 c 1,22,-1
 83 691 l 1,23,24
 92 700 92 700 103.5 709.5 c 128,-1,25
 115 719 115 719 131 726.5 c 128,-1,26
 147 734 147 734 165.5 739 c 128,-1,27
 184 744 184 744 207 744 c 0,28,29
 248 744 248 744 271.5 727 c 128,-1,30
 295 710 295 710 295 683 c 0,31,32
 295 663 295 663 282.5 648.5 c 128,-1,33
 270 634 270 634 250.5 622.5 c 128,-1,34
 231 611 231 611 207 602 c 128,-1,35
 183 593 183 593 160 584 c 0,36,37
 124 569 124 569 99.5 551.5 c 128,-1,38
 75 534 75 534 59.5 511.5 c 128,-1,39
 44 489 44 489 37.5 459.5 c 128,-1,40
 31 430 31 430 31 390 c 1,41,-1
 376 390 l 1,0,-1
EndSplineSet
EndChar

StartChar: threesuperior
Encoding: 179 179 117
Width: 405
GlyphClass: 1
Flags: W
LayerCount: 2
Fore
SplineSet
195 384 m 0,0,1
 229 384 229 384 261 391.5 c 128,-1,2
 293 399 293 399 317.5 413 c 128,-1,3
 342 427 342 427 356.5 450 c 128,-1,4
 371 473 371 473 371 503 c 0,5,6
 371 543 371 543 345.5 573.5 c 128,-1,7
 320 604 320 604 274 611 c 1,8,9
 316 619 316 619 338.5 641.5 c 128,-1,10
 361 664 361 664 361 699 c 0,11,12
 361 724 361 724 348.5 745.5 c 128,-1,13
 336 767 336 767 314 782.5 c 128,-1,14
 292 798 292 798 261.5 806.5 c 128,-1,15
 231 815 231 815 195 815 c 0,16,17
 171 815 171 815 146 811 c 128,-1,18
 121 807 121 807 99 799.5 c 128,-1,19
 77 792 77 792 59 781 c 128,-1,20
 41 770 41 770 29 755 c 1,21,-1
 77 697 l 1,22,23
 94 718 94 718 122 732 c 128,-1,24
 150 746 150 746 191 746 c 0,25,26
 206 746 206 746 221.5 742.5 c 128,-1,27
 237 739 237 739 248.5 733 c 128,-1,28
 260 727 260 727 267.5 717 c 128,-1,29
 275 707 275 707 275 693 c 0,30,31
 275 666 275 666 245.5 654 c 128,-1,32
 216 642 216 642 156 642 c 2,33,-1
 133 642 l 1,34,-1
 133 573 l 1,35,-1
 157 573 l 2,36,37
 223 573 223 573 256 558.5 c 128,-1,38
 289 544 289 544 289 516 c 0,39,40
 289 487 289 487 260.5 473.5 c 128,-1,41
 232 460 232 460 191 460 c 0,42,43
 167 460 167 460 147 464.5 c 128,-1,44
 127 469 127 469 111.5 477.5 c 128,-1,45
 96 486 96 486 85.5 496.5 c 128,-1,46
 75 507 75 507 70 516 c 1,47,-1
 28 464 l 1,48,49
 42 425 42 425 87.5 404.5 c 128,-1,50
 133 384 133 384 195 384 c 0,0,1
EndSplineSet
EndChar

StartChar: uni00B5
Encoding: 181 181 119
Width: 660
GlyphClass: 1
Flags: W
LayerCount: 2
Fore
SplineSet
77 -212 m 1,0,-1
 206 -212 l 1,1,-1
 198 51 l 1,2,3
 201 41 201 41 208.5 30 c 128,-1,4
 216 19 216 19 227 10.5 c 128,-1,5
 238 2 238 2 254 -4 c 128,-1,6
 270 -10 270 -10 290 -10 c 0,7,8
 317 -10 317 -10 342.5 0 c 128,-1,9
 368 10 368 10 390 26 c 128,-1,10
 412 42 412 42 429 61.5 c 128,-1,11
 446 81 446 81 455 100 c 1,12,-1
 466 0 l 1,13,-1
 564 0 l 1,14,-1
 564 524 l 1,15,-1
 436 524 l 1,16,-1
 436 199 l 1,17,18
 424 174 424 174 408.5 155.5 c 128,-1,19
 393 137 393 137 375 124.5 c 128,-1,20
 357 112 357 112 337 106 c 128,-1,21
 317 100 317 100 298 100 c 0,22,23
 251 100 251 100 228.5 131 c 128,-1,24
 206 162 206 162 206 225 c 2,25,-1
 206 524 l 1,26,-1
 77 524 l 1,27,-1
 77 -212 l 1,0,-1
EndSplineSet
EndChar

StartChar: paragraph
Encoding: 182 182 120
Width: 653
GlyphClass: 1
Flags: W
LayerCount: 2
Fore
SplineSet
35 457 m 0,0,1
 35 401 35 401 51 355.5 c 128,-1,2
 67 310 67 310 97.5 278 c 128,-1,3
 128 246 128 246 170.5 228 c 128,-1,4
 213 210 213 210 265 210 c 1,5,-1
 265 -80 l 1,6,-1
 375 -80 l 1,7,-1
 375 210 l 1,8,-1
 428 210 l 1,9,-1
 428 -80 l 1,10,-1
 537 -80 l 1,11,-1
 537 613 l 1,12,-1
 607 613 l 1,13,-1
 607 710 l 1,14,-1
 317 710 l 2,15,16
 182 710 182 710 108.5 644 c 128,-1,17
 35 578 35 578 35 457 c 0,0,1
142 460 m 0,18,19
 142 528 142 528 174 569 c 128,-1,20
 206 610 206 610 265 613 c 1,21,-1
 265 306 l 1,22,23
 240 308 240 308 218 319 c 128,-1,24
 196 330 196 330 179 349.5 c 128,-1,25
 162 369 162 369 152 396.5 c 128,-1,26
 142 424 142 424 142 460 c 0,18,19
428 306 m 1,27,-1
 375 306 l 1,28,-1
 375 613 l 1,29,-1
 428 613 l 1,30,-1
 428 306 l 1,27,-1
EndSplineSet
EndChar

StartChar: onesuperior
Encoding: 185 185 123
Width: 296
GlyphClass: 1
Flags: W
LayerCount: 2
Fore
SplineSet
204 467 m 1,0,-1
 204 815 l 1,1,-1
 127 815 l 1,2,3
 127 814 127 814 118 805 c 128,-1,4
 109 796 109 796 95 785.5 c 128,-1,5
 81 775 81 775 64.5 766.5 c 128,-1,6
 48 758 48 758 32 758 c 1,7,-1
 32 681 l 1,8,9
 44 681 44 681 58.5 686.5 c 128,-1,10
 73 692 73 692 86.5 700 c 128,-1,11
 100 708 100 708 111 717 c 128,-1,12
 122 726 122 726 127 732 c 1,13,-1
 127 467 l 1,14,-1
 48 467 l 1,15,-1
 48 391 l 1,16,-1
 275 391 l 1,17,-1
 275 467 l 1,18,-1
 204 467 l 1,0,-1
EndSplineSet
EndChar

StartChar: ordmasculine
Encoding: 186 186 124
Width: 444
GlyphClass: 1
Flags: W
LayerCount: 2
Fore
SplineSet
222 340 m 256,0,1
 265 340 265 340 299.5 355 c 128,-1,2
 334 370 334 370 358 395.5 c 128,-1,3
 382 421 382 421 395 455 c 128,-1,4
 408 489 408 489 408 526 c 0,5,6
 408 564 408 564 395 597.5 c 128,-1,7
 382 631 382 631 358 657 c 128,-1,8
 334 683 334 683 299.5 698 c 128,-1,9
 265 713 265 713 222 713 c 256,10,11
 179 713 179 713 144.5 698 c 128,-1,12
 110 683 110 683 86 657 c 128,-1,13
 62 631 62 631 49 597.5 c 128,-1,14
 36 564 36 564 36 526 c 0,15,16
 36 489 36 489 49 455 c 128,-1,17
 62 421 62 421 86 395.5 c 128,-1,18
 110 370 110 370 144.5 355 c 128,-1,19
 179 340 179 340 222 340 c 256,0,1
133 525 m 0,20,21
 133 548 133 548 140 567.5 c 128,-1,22
 147 587 147 587 159 601 c 128,-1,23
 171 615 171 615 187 623 c 128,-1,24
 203 631 203 631 222 631 c 256,25,26
 241 631 241 631 257 623 c 128,-1,27
 273 615 273 615 285 601.5 c 128,-1,28
 297 588 297 588 304 568.5 c 128,-1,29
 311 549 311 549 311 526 c 0,30,31
 311 504 311 504 304 484.5 c 128,-1,32
 297 465 297 465 285 451 c 128,-1,33
 273 437 273 437 257 429 c 128,-1,34
 241 421 241 421 222 421 c 256,35,36
 203 421 203 421 187 429 c 128,-1,37
 171 437 171 437 159 450.5 c 128,-1,38
 147 464 147 464 140 483.5 c 128,-1,39
 133 503 133 503 133 525 c 0,20,21
EndSplineSet
EndChar

StartChar: guillemotright
Encoding: 187 187 125
Width: 643
GlyphClass: 1
Flags: W
LayerCount: 2
Fore
SplineSet
607 287 m 1,0,-1
 344 475 l 1,1,-1
 344 370 l 1,2,-1
 505 259 l 1,3,-1
 344 153 l 1,4,-1
 344 48 l 1,5,-1
 607 224 l 1,6,-1
 607 287 l 1,0,-1
321 287 m 1,7,-1
 59 475 l 1,8,-1
 59 370 l 1,9,-1
 219 259 l 1,10,-1
 59 153 l 1,11,-1
 59 48 l 1,12,-1
 321 224 l 1,13,-1
 321 287 l 1,7,-1
EndSplineSet
EndChar

StartChar: onehalf
Encoding: 189 189 127
Width: 904
GlyphClass: 1
Flags: W
LayerCount: 2
Fore
SplineSet
204 383 m 1,0,-1
 204 731 l 1,1,-1
 127 731 l 1,2,3
 127 730 127 730 118 721 c 128,-1,4
 109 712 109 712 95 701.5 c 128,-1,5
 81 691 81 691 64.5 682.5 c 128,-1,6
 48 674 48 674 32 674 c 1,7,-1
 32 597 l 1,8,9
 44 597 44 597 58.5 602.5 c 128,-1,10
 73 608 73 608 86.5 616 c 128,-1,11
 100 624 100 624 111 632.5 c 128,-1,12
 122 641 122 641 127 648 c 1,13,-1
 127 383 l 1,14,-1
 48 383 l 1,15,-1
 48 307 l 1,16,-1
 275 307 l 1,17,-1
 275 383 l 1,18,-1
 204 383 l 1,0,-1
152 -7 m 1,19,-1
 420 341 l 1,20,-1
 695 665 l 1,21,-1
 636 717 l 1,22,-1
 375 376 l 1,23,-1
 94 46 l 1,24,-1
 152 -7 l 1,19,-1
867 0 m 1,25,-1
 867 75 l 1,26,-1
 635 75 l 1,27,28
 635 87 635 87 641.5 99 c 128,-1,29
 648 111 648 111 661 121.5 c 128,-1,30
 674 132 674 132 693 142 c 128,-1,31
 712 152 712 152 736 160 c 0,32,33
 756 165 756 165 778 174.5 c 128,-1,34
 800 184 800 184 819.5 200 c 128,-1,35
 839 216 839 216 852.5 239 c 128,-1,36
 866 262 866 262 866 295 c 0,37,38
 866 324 866 324 855.5 348 c 128,-1,39
 845 372 845 372 825 389 c 128,-1,40
 805 406 805 406 775 415.5 c 128,-1,41
 745 425 745 425 705 425 c 0,42,43
 670 425 670 425 640.5 418 c 128,-1,44
 611 411 611 411 588 400.5 c 128,-1,45
 565 390 565 390 549.5 378 c 128,-1,46
 534 366 534 366 527 356 c 1,47,-1
 574 300 l 1,48,49
 583 309 583 309 594.5 318.5 c 128,-1,50
 606 328 606 328 621.5 336 c 128,-1,51
 637 344 637 344 655.5 348.5 c 128,-1,52
 674 353 674 353 696 353 c 0,53,54
 736 353 736 353 759 336.5 c 128,-1,55
 782 320 782 320 782 292 c 0,56,57
 782 272 782 272 769.5 257.5 c 128,-1,58
 757 243 757 243 738 232 c 128,-1,59
 719 221 719 221 695.5 212 c 128,-1,60
 672 203 672 203 650 194 c 0,61,62
 615 178 615 178 590.5 160.5 c 128,-1,63
 566 143 566 143 551 120.5 c 128,-1,64
 536 98 536 98 529.5 68.5 c 128,-1,65
 523 39 523 39 523 0 c 1,66,-1
 867 0 l 1,25,-1
EndSplineSet
EndChar

StartChar: questiondown
Encoding: 191 191 129
Width: 479
GlyphClass: 1
Flags: W
LayerCount: 2
Fore
SplineSet
250 276 m 1,0,1
 250 250 250 250 240 232 c 128,-1,2
 230 214 230 214 214 200 c 128,-1,3
 198 186 198 186 178 175 c 128,-1,4
 158 164 158 164 139 152 c 0,5,6
 115 138 115 138 95 122 c 128,-1,7
 75 106 75 106 61 86 c 128,-1,8
 47 66 47 66 39 41 c 128,-1,9
 31 16 31 16 31 -16 c 0,10,11
 31 -68 31 -68 49 -105 c 128,-1,12
 67 -142 67 -142 96.5 -166 c 128,-1,13
 126 -190 126 -190 163 -201.5 c 128,-1,14
 200 -213 200 -213 238 -213 c 0,15,16
 272 -213 272 -213 304 -204.5 c 128,-1,17
 336 -196 336 -196 363.5 -179.5 c 128,-1,18
 391 -163 391 -163 412.5 -139 c 128,-1,19
 434 -115 434 -115 447 -84 c 1,20,-1
 363 -26 l 1,21,22
 355 -40 355 -40 343.5 -55 c 128,-1,23
 332 -70 332 -70 316.5 -81.5 c 128,-1,24
 301 -93 301 -93 282.5 -100.5 c 128,-1,25
 264 -108 264 -108 242 -108 c 0,26,27
 222 -108 222 -108 204.5 -102 c 128,-1,28
 187 -96 187 -96 173.5 -85 c 128,-1,29
 160 -74 160 -74 152 -57 c 128,-1,30
 144 -40 144 -40 144 -19 c 0,31,32
 144 10 144 10 158.5 31.5 c 128,-1,33
 173 53 173 53 194 69 c 128,-1,34
 215 85 215 85 237 97 c 128,-1,35
 259 109 259 109 275 119 c 0,36,37
 299 133 299 133 315 150 c 128,-1,38
 331 167 331 167 340.5 187 c 128,-1,39
 350 207 350 207 353.5 229 c 128,-1,40
 357 251 357 251 357 276 c 1,41,-1
 250 276 l 1,0,1
372 445 m 0,42,43
 372 474 372 474 351 495 c 128,-1,44
 330 516 330 516 301 516 c 256,45,46
 272 516 272 516 251 495 c 128,-1,47
 230 474 230 474 230 445 c 0,48,49
 230 415 230 415 251 394.5 c 128,-1,50
 272 374 272 374 301 374 c 256,51,52
 330 374 330 374 351 394.5 c 128,-1,53
 372 415 372 415 372 445 c 0,42,43
EndSplineSet
EndChar

StartChar: AE
Encoding: 198 198 136
Width: 965
GlyphClass: 1
Flags: W
LayerCount: 2
Fore
SplineSet
-25 0 m 1,0,-1
 116 0 l 1,1,-1
 224 180 l 1,2,-1
 454 180 l 1,3,-1
 454 0 l 1,4,-1
 931 0 l 1,5,-1
 931 116 l 1,6,-1
 585 116 l 1,7,-1
 585 304 l 1,8,-1
 868 304 l 1,9,-1
 868 420 l 1,10,-1
 585 420 l 1,11,-1
 585 594 l 1,12,-1
 922 594 l 1,13,-1
 922 710 l 1,14,-1
 419 710 l 1,15,-1
 -25 0 l 1,0,-1
281 296 m 1,16,-1
 444 561 l 1,17,-1
 444 296 l 1,18,-1
 281 296 l 1,16,-1
EndSplineSet
EndChar

StartChar: Idieresis
Encoding: 207 207 145
Width: 283
GlyphClass: 1
Flags: W
LayerCount: 2
Fore
SplineSet
207 0 m 1,0,-1
 207 710 l 1,1,-1
 75 710 l 1,2,-1
 75 0 l 1,3,-1
 207 0 l 1,0,-1
11 851 m 256,4,5
 11 822 11 822 27.5 801 c 128,-1,6
 44 780 44 780 66 780 c 0,7,8
 89 780 89 780 105.5 801 c 128,-1,9
 122 822 122 822 122 851 c 256,10,11
 122 880 122 880 105.5 901 c 128,-1,12
 89 922 89 922 67 922 c 0,13,14
 44 922 44 922 27.5 901 c 128,-1,15
 11 880 11 880 11 851 c 256,4,5
160 851 m 256,16,17
 160 822 160 822 176.5 801 c 128,-1,18
 193 780 193 780 216 780 c 256,19,20
 239 780 239 780 255 801 c 128,-1,21
 271 822 271 822 271 851 c 256,22,23
 271 880 271 880 255 901 c 128,-1,24
 239 922 239 922 216 922 c 256,25,26
 193 922 193 922 176.5 901 c 128,-1,27
 160 880 160 880 160 851 c 256,16,17
EndSplineSet
EndChar

StartChar: Eth
Encoding: 208 208 146
Width: 721
GlyphClass: 1
Flags: W
LayerCount: 2
Fore
SplineSet
355 309 m 1,0,-1
 355 405 l 1,1,-1
 32 405 l 1,2,-1
 32 309 l 1,3,-1
 355 309 l 1,0,-1
337 0 m 2,4,5
 417 0 417 0 481.5 25.5 c 128,-1,6
 546 51 546 51 591.5 97.5 c 128,-1,7
 637 144 637 144 661.5 209.5 c 128,-1,8
 686 275 686 275 686 356 c 0,9,10
 686 430 686 430 664.5 494.5 c 128,-1,11
 643 559 643 559 599 607 c 128,-1,12
 555 655 555 655 490 682.5 c 128,-1,13
 425 710 425 710 337 710 c 2,14,-1
 81 710 l 1,15,-1
 81 0 l 1,16,-1
 337 0 l 2,4,5
553 356 m 0,17,18
 553 305 553 305 538.5 261 c 128,-1,19
 524 217 524 217 497 185 c 128,-1,20
 470 153 470 153 430 134.5 c 128,-1,21
 390 116 390 116 337 116 c 2,22,-1
 213 116 l 1,23,-1
 213 594 l 1,24,-1
 337 594 l 2,25,26
 389 594 389 594 429 576.5 c 128,-1,27
 469 559 469 559 496.5 527.5 c 128,-1,28
 524 496 524 496 538.5 452 c 128,-1,29
 553 408 553 408 553 356 c 0,17,18
EndSplineSet
EndChar

StartChar: multiply
Encoding: 215 215 153
Width: 475
GlyphClass: 1
Flags: W
LayerCount: 2
Fore
SplineSet
318 275 m 1,0,-1
 418 375 l 1,1,-1
 338 456 l 1,2,-1
 238 356 l 1,3,-1
 138 456 l 1,4,-1
 57 375 l 1,5,-1
 156 275 l 1,6,-1
 53 171 l 1,7,-1
 133 90 l 1,8,-1
 237 195 l 1,9,-1
 342 90 l 1,10,-1
 423 171 l 1,11,-1
 318 275 l 1,0,-1
EndSplineSet
EndChar

StartChar: Thorn
Encoding: 222 222 160
Width: 604
GlyphClass: 1
Flags: W
LayerCount: 2
Fore
SplineSet
359 581 m 2,0,-1
 207 581 l 1,1,-1
 207 710 l 1,2,-1
 75 710 l 1,3,-1
 75 0 l 1,4,-1
 207 0 l 1,5,-1
 207 111 l 1,6,-1
 364 111 l 2,7,8
 414 111 414 111 454 130.5 c 128,-1,9
 494 150 494 150 523 183 c 128,-1,10
 552 216 552 216 567.5 258.5 c 128,-1,11
 583 301 583 301 583 346 c 0,12,13
 583 390 583 390 566.5 431.5 c 128,-1,14
 550 473 550 473 520 506.5 c 128,-1,15
 490 540 490 540 449 560.5 c 128,-1,16
 408 581 408 581 359 581 c 2,0,-1
358 227 m 2,17,-1
 207 227 l 1,18,-1
 207 465 l 1,19,-1
 352 465 l 2,20,21
 371 465 371 465 389.5 456 c 128,-1,22
 408 447 408 447 421.5 431 c 128,-1,23
 435 415 435 415 443 393.5 c 128,-1,24
 451 372 451 372 451 346 c 0,25,26
 451 322 451 322 444.5 300.5 c 128,-1,27
 438 279 438 279 425.5 263 c 128,-1,28
 413 247 413 247 395.5 237 c 128,-1,29
 378 227 378 227 358 227 c 2,17,-1
EndSplineSet
EndChar

StartChar: germandbls
Encoding: 223 223 161
Width: 557
GlyphClass: 1
Flags: W
LayerCount: 2
Fore
SplineSet
246 -6 m 1,0,1
 303 -5 303 -5 354 8 c 128,-1,2
 405 21 405 21 444 46.5 c 128,-1,3
 483 72 483 72 505.5 112.5 c 128,-1,4
 528 153 528 153 528 210 c 0,5,6
 528 282 528 282 491.5 333.5 c 128,-1,7
 455 385 455 385 389 402 c 1,8,9
 407 409 407 409 423 423 c 128,-1,10
 439 437 439 437 451 456.5 c 128,-1,11
 463 476 463 476 470 500 c 128,-1,12
 477 524 477 524 477 550 c 0,13,14
 477 588 477 588 462 618 c 128,-1,15
 447 648 447 648 421 669.5 c 128,-1,16
 395 691 395 691 359.5 702.5 c 128,-1,17
 324 714 324 714 282 714 c 0,18,19
 235 714 235 714 194.5 699.5 c 128,-1,20
 154 685 154 685 124.5 660 c 128,-1,21
 95 635 95 635 78.5 599.5 c 128,-1,22
 62 564 62 564 62 522 c 2,23,-1
 62 0 l 1,24,-1
 184 0 l 1,25,-1
 184 499 l 2,26,27
 184 518 184 518 188.5 536 c 128,-1,28
 193 554 193 554 203.5 569.5 c 128,-1,29
 214 585 214 585 231 594.5 c 128,-1,30
 248 604 248 604 273 604 c 0,31,32
 286 604 286 604 300 600.5 c 128,-1,33
 314 597 314 597 326.5 588 c 128,-1,34
 339 579 339 579 347 564.5 c 128,-1,35
 355 550 355 550 355 529 c 0,36,37
 355 512 355 512 349 497.5 c 128,-1,38
 343 483 343 483 333 473 c 128,-1,39
 323 463 323 463 308 457 c 128,-1,40
 293 451 293 451 274 451 c 2,41,-1
 255 451 l 1,42,-1
 255 335 l 1,43,-1
 276 335 l 2,44,45
 300 335 300 335 321 328 c 128,-1,46
 342 321 342 321 358.5 306.5 c 128,-1,47
 375 292 375 292 384.5 271 c 128,-1,48
 394 250 394 250 394 224 c 0,49,50
 394 195 394 195 383 174 c 128,-1,51
 372 153 372 153 352 139.5 c 128,-1,52
 332 126 332 126 305 119.5 c 128,-1,53
 278 113 278 113 246 112 c 1,54,-1
 246 -6 l 1,0,1
EndSplineSet
EndChar

StartChar: ae
Encoding: 230 230 168
Width: 937
GlyphClass: 1
Flags: W
LayerCount: 2
Fore
SplineSet
204 -10 m 0,0,1
 231 -10 231 -10 261.5 -3.5 c 128,-1,2
 292 3 292 3 320.5 15.5 c 128,-1,3
 349 28 349 28 375 49 c 128,-1,4
 401 70 401 70 418 99 c 1,5,6
 454 50 454 50 511 20 c 128,-1,7
 568 -10 568 -10 642 -10 c 0,8,9
 685 -10 685 -10 723 0 c 128,-1,10
 761 10 761 10 792 28.5 c 128,-1,11
 823 47 823 47 846.5 72 c 128,-1,12
 870 97 870 97 884 126 c 1,13,-1
 774 157 l 1,14,15
 768 141 768 141 754.5 127 c 128,-1,16
 741 113 741 113 724 104 c 128,-1,17
 707 95 707 95 687 89.5 c 128,-1,18
 667 84 667 84 647 84 c 0,19,20
 619 84 619 84 593 93.5 c 128,-1,21
 567 103 567 103 546.5 120.5 c 128,-1,22
 526 138 526 138 513.5 163.5 c 128,-1,23
 501 189 501 189 498 221 c 1,24,-1
 912 221 l 1,25,26
 913 228 913 228 914 240 c 128,-1,27
 915 252 915 252 915 262 c 0,28,29
 915 316 915 316 896 365.5 c 128,-1,30
 877 415 877 415 841.5 452 c 128,-1,31
 806 489 806 489 755 511 c 128,-1,32
 704 533 704 533 641 533 c 0,33,34
 582 533 582 533 534.5 512 c 128,-1,35
 487 491 487 491 454 456 c 1,36,37
 425 493 425 493 379 513 c 128,-1,38
 333 533 333 533 271 533 c 0,39,40
 213 533 213 533 159.5 516 c 128,-1,41
 106 499 106 499 54 465 c 1,42,-1
 94 384 l 1,43,44
 137 413 137 413 177 428 c 128,-1,45
 217 443 217 443 259 443 c 0,46,47
 313 443 313 443 342 419 c 128,-1,48
 371 395 371 395 376 350 c 1,49,50
 372 340 372 340 370.5 327.5 c 128,-1,51
 369 315 369 315 368 304 c 1,52,53
 343 313 343 313 312 318.5 c 128,-1,54
 281 324 281 324 248 324 c 0,55,56
 199 324 199 324 158 311.5 c 128,-1,57
 117 299 117 299 87.5 277 c 128,-1,58
 58 255 58 255 42 224 c 128,-1,59
 26 193 26 193 26 155 c 0,60,61
 26 121 26 121 39.5 90.5 c 128,-1,62
 53 60 53 60 77 37.5 c 128,-1,63
 101 15 101 15 133.5 2.5 c 128,-1,64
 166 -10 166 -10 204 -10 c 0,0,1
240 84 m 0,65,66
 221 84 221 84 203.5 90 c 128,-1,67
 186 96 186 96 173.5 107.5 c 128,-1,68
 161 119 161 119 154 134 c 128,-1,69
 147 149 147 149 147 166 c 0,70,71
 147 185 147 185 156 200.5 c 128,-1,72
 165 216 165 216 181 227 c 128,-1,73
 197 238 197 238 219.5 244.5 c 128,-1,74
 242 251 242 251 269 251 c 0,75,76
 293 251 293 251 319 246.5 c 128,-1,77
 345 242 345 242 368 234 c 1,78,79
 368 219 368 219 371 199.5 c 128,-1,80
 374 180 374 180 378 166 c 0,81,82
 378 157 378 157 372 147.5 c 128,-1,83
 366 138 366 138 357 130 c 0,84,85
 338 109 338 109 307 96.5 c 128,-1,86
 276 84 276 84 240 84 c 0,65,66
496 300 m 1,87,88
 498 331 498 331 509.5 357 c 128,-1,89
 521 383 521 383 540 401 c 128,-1,90
 559 419 559 419 584 429 c 128,-1,91
 609 439 609 439 639 439 c 0,92,93
 668 439 668 439 693.5 429 c 128,-1,94
 719 419 719 419 738 401 c 128,-1,95
 757 383 757 383 768.5 357 c 128,-1,96
 780 331 780 331 783 300 c 1,97,-1
 496 300 l 1,87,88
EndSplineSet
EndChar

StartChar: idieresis
Encoding: 239 239 177
Width: 252
GlyphClass: 1
Flags: W
LayerCount: 2
Fore
SplineSet
191 0 m 1,0,-1
 191 524 l 1,1,-1
 62 524 l 1,2,-1
 62 0 l 1,3,-1
 191 0 l 1,0,-1
4 665 m 256,4,5
 4 636 4 636 19 615 c 128,-1,6
 34 594 34 594 56 594 c 256,7,8
 78 594 78 594 93 615 c 128,-1,9
 108 636 108 636 108 665 c 256,10,11
 108 694 108 694 93 715 c 128,-1,12
 78 736 78 736 56 736 c 256,13,14
 34 736 34 736 19 715 c 128,-1,15
 4 694 4 694 4 665 c 256,4,5
143 665 m 256,16,17
 143 636 143 636 158.5 615 c 128,-1,18
 174 594 174 594 195 594 c 0,19,20
 217 594 217 594 232.5 615 c 128,-1,21
 248 636 248 636 248 665 c 256,22,23
 248 694 248 694 232.5 715 c 128,-1,24
 217 736 217 736 195 736 c 0,25,26
 174 736 174 736 158.5 715 c 128,-1,27
 143 694 143 694 143 665 c 256,16,17
EndSplineSet
EndChar

StartChar: eth
Encoding: 240 240 178
Width: 612
GlyphClass: 1
Flags: W
LayerCount: 2
Fore
SplineSet
579 290 m 0,0,1
 579 349 579 349 563.5 411.5 c 128,-1,2
 548 474 548 474 515.5 532.5 c 128,-1,3
 483 591 483 591 433.5 642.5 c 128,-1,4
 384 694 384 694 316 730 c 1,5,-1
 149 730 l 1,6,7
 222 692 222 692 274 651.5 c 128,-1,8
 326 611 326 611 361 569 c 128,-1,9
 396 527 396 527 416.5 482.5 c 128,-1,10
 437 438 437 438 447 391 c 1,11,12
 433 410 433 410 414 424.5 c 128,-1,13
 395 439 395 439 373 450 c 128,-1,14
 351 461 351 461 325.5 466.5 c 128,-1,15
 300 472 300 472 274 472 c 0,16,17
 223 472 223 472 179 453.5 c 128,-1,18
 135 435 135 435 102.5 402 c 128,-1,19
 70 369 70 369 51 326 c 128,-1,20
 32 283 32 283 32 233 c 0,21,22
 32 181 32 181 53 136.5 c 128,-1,23
 74 92 74 92 110 59.5 c 128,-1,24
 146 27 146 27 195.5 8.5 c 128,-1,25
 245 -10 245 -10 302 -10 c 0,26,27
 361 -10 361 -10 412 10.5 c 128,-1,28
 463 31 463 31 500 70 c 128,-1,29
 537 109 537 109 558 164.5 c 128,-1,30
 579 220 579 220 579 290 c 0,0,1
164 234 m 0,31,32
 164 262 164 262 175 286.5 c 128,-1,33
 186 311 186 311 205 329.5 c 128,-1,34
 224 348 224 348 250 358.5 c 128,-1,35
 276 369 276 369 306 369 c 256,36,37
 336 369 336 369 361.5 359 c 128,-1,38
 387 349 387 349 406 331.5 c 128,-1,39
 425 314 425 314 436 290 c 128,-1,40
 447 266 447 266 447 237 c 0,41,42
 447 209 447 209 436 184 c 128,-1,43
 425 159 425 159 406 140 c 128,-1,44
 387 121 387 121 361 110.5 c 128,-1,45
 335 100 335 100 304 100 c 0,46,47
 274 100 274 100 248.5 110 c 128,-1,48
 223 120 223 120 204.5 138 c 128,-1,49
 186 156 186 156 175 180.5 c 128,-1,50
 164 205 164 205 164 234 c 0,31,32
486 713 m 1,51,-1
 372 647 l 1,52,-1
 335 637 l 1,53,-1
 222 574 l 1,54,-1
 259 523 l 1,55,-1
 373 588 l 1,56,-1
 413 600 l 1,57,-1
 523 662 l 1,58,-1
 486 713 l 1,51,-1
EndSplineSet
EndChar

StartChar: divide
Encoding: 247 247 185
Width: 514
GlyphClass: 1
Flags: W
LayerCount: 2
Fore
SplineSet
459 245 m 1,0,-1
 459 348 l 1,1,-1
 55 348 l 1,2,-1
 55 245 l 1,3,-1
 459 245 l 1,0,-1
186 105 m 256,4,5
 186 76 186 76 207 55 c 128,-1,6
 228 34 228 34 257 34 c 256,7,8
 286 34 286 34 307 55 c 128,-1,9
 328 76 328 76 328 105 c 256,10,11
 328 134 328 134 307 155 c 128,-1,12
 286 176 286 176 257 176 c 256,13,14
 228 176 228 176 207 155 c 128,-1,15
 186 134 186 134 186 105 c 256,4,5
187 488 m 256,16,17
 187 459 187 459 208 437.5 c 128,-1,18
 229 416 229 416 258 416 c 256,19,20
 287 416 287 416 308 437.5 c 128,-1,21
 329 459 329 459 329 488 c 0,22,23
 329 518 329 518 308 538.5 c 128,-1,24
 287 559 287 559 258 559 c 256,25,26
 229 559 229 559 208 538 c 128,-1,27
 187 517 187 517 187 488 c 256,16,17
EndSplineSet
EndChar

StartChar: oslash
Encoding: 248 248 186
Width: 605
GlyphClass: 1
Flags: W
LayerCount: 2
Fore
SplineSet
302 -10 m 0,0,1
 366 -10 366 -10 416.5 12 c 128,-1,2
 467 34 467 34 502.5 71.5 c 128,-1,3
 538 109 538 109 557 158 c 128,-1,4
 576 207 576 207 576 261 c 0,5,6
 576 316 576 316 557 365 c 128,-1,7
 538 414 538 414 502.5 451.5 c 128,-1,8
 467 489 467 489 416.5 511 c 128,-1,9
 366 533 366 533 302 533 c 0,10,11
 239 533 239 533 188.5 511 c 128,-1,12
 138 489 138 489 102.5 451.5 c 128,-1,13
 67 414 67 414 48 365 c 128,-1,14
 29 316 29 316 29 261 c 0,15,16
 29 207 29 207 48 158 c 128,-1,17
 67 109 67 109 102 71.5 c 128,-1,18
 137 34 137 34 188 12 c 128,-1,19
 239 -10 239 -10 302 -10 c 0,0,1
302 100 m 0,20,21
 273 100 273 100 247 112 c 128,-1,22
 221 124 221 124 202 145.5 c 128,-1,23
 183 167 183 167 172 196.5 c 128,-1,24
 161 226 161 226 161 261 c 256,25,26
 161 296 161 296 172 325.5 c 128,-1,27
 183 355 183 355 202 376.5 c 128,-1,28
 221 398 221 398 247 410.5 c 128,-1,29
 273 423 273 423 302 423 c 0,30,31
 332 423 332 423 357.5 411 c 128,-1,32
 383 399 383 399 402.5 377.5 c 128,-1,33
 422 356 422 356 433 326.5 c 128,-1,34
 444 297 444 297 444 262 c 256,35,36
 444 227 444 227 433 197 c 128,-1,37
 422 167 422 167 402.5 145.5 c 128,-1,38
 383 124 383 124 357.5 112 c 128,-1,39
 332 100 332 100 302 100 c 0,20,21
130 -4 m 1,40,-1
 200 80 l 1,41,-1
 145 120 l 1,42,-1
 45 -4 l 1,43,-1
 130 -4 l 1,40,-1
452 412 m 1,44,-1
 397 440 l 1,45,-1
 161 126 l 1,46,-1
 210 91 l 1,47,-1
 452 412 l 1,44,-1
556 527 m 1,48,-1
 470 527 l 1,49,-1
 406 451 l 1,50,-1
 469 419 l 1,51,-1
 556 527 l 1,48,-1
EndSplineSet
EndChar

StartChar: thorn
Encoding: 254 254 192
Width: 601
GlyphClass: 1
Flags: W
LayerCount: 2
Fore
SplineSet
573 256 m 0,0,1
 573 307 573 307 555.5 357 c 128,-1,2
 538 407 538 407 504.5 447.5 c 128,-1,3
 471 488 471 488 424.5 513 c 128,-1,4
 378 538 378 538 319 538 c 0,5,6
 267 538 267 538 237.5 519 c 128,-1,7
 208 500 208 500 194 479 c 1,8,-1
 194 710 l 1,9,-1
 62 710 l 1,10,-1
 62 -213 l 1,11,-1
 194 -213 l 1,12,-1
 194 31 l 1,13,14
 199 21 199 21 209.5 11.5 c 128,-1,15
 220 2 220 2 235 -5.5 c 128,-1,16
 250 -13 250 -13 269 -18 c 128,-1,17
 288 -23 288 -23 311 -23 c 0,18,19
 365 -23 365 -23 412.5 0 c 128,-1,20
 460 23 460 23 495.5 61.5 c 128,-1,21
 531 100 531 100 552 150.5 c 128,-1,22
 573 201 573 201 573 256 c 0,0,1
441 258 m 256,23,24
 441 225 441 225 431 195 c 128,-1,25
 421 165 421 165 403.5 142 c 128,-1,26
 386 119 386 119 361 106 c 128,-1,27
 336 93 336 93 307 93 c 0,28,29
 287 93 287 93 267 100.5 c 128,-1,30
 247 108 247 108 231 119.5 c 128,-1,31
 215 131 215 131 204.5 146 c 128,-1,32
 194 161 194 161 194 175 c 2,33,-1
 194 337 l 1,34,35
 203 355 203 355 215 370.5 c 128,-1,36
 227 386 227 386 241 397 c 128,-1,37
 255 408 255 408 272.5 415 c 128,-1,38
 290 422 290 422 311 422 c 0,39,40
 341 422 341 422 365.5 409 c 128,-1,41
 390 396 390 396 406.5 373.5 c 128,-1,42
 423 351 423 351 432 321 c 128,-1,43
 441 291 441 291 441 258 c 256,23,24
EndSplineSet
EndChar

StartChar: Dcroat
Encoding: 272 272 210
Width: 721
GlyphClass: 1
Flags: W
LayerCount: 2
Fore
SplineSet
355 309 m 1,0,-1
 355 405 l 1,1,-1
 32 405 l 1,2,-1
 32 309 l 1,3,-1
 355 309 l 1,0,-1
337 0 m 2,4,5
 417 0 417 0 481.5 25.5 c 128,-1,6
 546 51 546 51 591.5 97.5 c 128,-1,7
 637 144 637 144 661.5 209.5 c 128,-1,8
 686 275 686 275 686 356 c 0,9,10
 686 430 686 430 664.5 494.5 c 128,-1,11
 643 559 643 559 599 607 c 128,-1,12
 555 655 555 655 490 682.5 c 128,-1,13
 425 710 425 710 337 710 c 2,14,-1
 81 710 l 1,15,-1
 81 0 l 1,16,-1
 337 0 l 2,4,5
553 356 m 0,17,18
 553 305 553 305 538.5 261 c 128,-1,19
 524 217 524 217 497 185 c 128,-1,20
 470 153 470 153 430 134.5 c 128,-1,21
 390 116 390 116 337 116 c 2,22,-1
 213 116 l 1,23,-1
 213 594 l 1,24,-1
 337 594 l 2,25,26
 389 594 389 594 429 576.5 c 128,-1,27
 469 559 469 559 496.5 527.5 c 128,-1,28
 524 496 524 496 538.5 452 c 128,-1,29
 553 408 553 408 553 356 c 0,17,18
EndSplineSet
EndChar

StartChar: dcroat
Encoding: 273 273 211
Width: 643
GlyphClass: 1
Flags: W
LayerCount: 2
Fore
SplineSet
635 598 m 1,0,-1
 635 675 l 1,1,-1
 342 675 l 1,2,-1
 342 598 l 1,3,-1
 635 598 l 1,0,-1
571 0 m 1,4,-1
 571 730 l 1,5,-1
 443 730 l 1,6,-1
 443 430 l 1,7,8
 429 453 429 453 410.5 471.5 c 128,-1,9
 392 490 392 490 369 503.5 c 128,-1,10
 346 517 346 517 319.5 525 c 128,-1,11
 293 533 293 533 263 533 c 0,12,13
 213 533 213 533 170.5 512 c 128,-1,14
 128 491 128 491 96.5 454 c 128,-1,15
 65 417 65 417 47.5 367.5 c 128,-1,16
 30 318 30 318 30 262 c 0,17,18
 30 205 30 205 48.5 155.5 c 128,-1,19
 67 106 67 106 100 69 c 128,-1,20
 133 32 133 32 179 11 c 128,-1,21
 225 -10 225 -10 279 -10 c 0,22,23
 334 -10 334 -10 375 14.5 c 128,-1,24
 416 39 416 39 443 83 c 1,25,-1
 443 0 l 1,26,-1
 571 0 l 1,4,-1
443 191 m 1,27,28
 437 172 437 172 423 155 c 128,-1,29
 409 138 409 138 391 125.5 c 128,-1,30
 373 113 373 113 352.5 106.5 c 128,-1,31
 332 100 332 100 312 100 c 0,32,33
 280 100 280 100 253 112.5 c 128,-1,34
 226 125 226 125 206 146 c 128,-1,35
 186 167 186 167 174.5 196.5 c 128,-1,36
 163 226 163 226 163 259 c 0,37,38
 163 291 163 291 173.5 321 c 128,-1,39
 184 351 184 351 202.5 373.5 c 128,-1,40
 221 396 221 396 246.5 409.5 c 128,-1,41
 272 423 272 423 303 423 c 0,42,43
 324 423 324 423 345.5 415.5 c 128,-1,44
 367 408 367 408 385.5 394 c 128,-1,45
 404 380 404 380 419.5 361 c 128,-1,46
 435 342 435 342 443 319 c 1,47,-1
 443 191 l 1,27,28
EndSplineSet
EndChar

StartChar: Hbar
Encoding: 294 294 232
Width: 753
GlyphClass: 1
Flags: W
LayerCount: 2
Fore
SplineSet
723 533 m 1,0,-1
 723 607 l 1,1,-1
 30 607 l 1,2,-1
 30 533 l 1,3,-1
 723 533 l 1,0,-1
541 710 m 1,4,-1
 541 421 l 1,5,-1
 212 421 l 1,6,-1
 212 710 l 1,7,-1
 80 710 l 1,8,-1
 80 0 l 1,9,-1
 212 0 l 1,10,-1
 212 305 l 1,11,-1
 541 305 l 1,12,-1
 541 0 l 1,13,-1
 673 0 l 1,14,-1
 673 710 l 1,15,-1
 541 710 l 1,4,-1
EndSplineSet
EndChar

StartChar: hbar
Encoding: 295 295 233
Width: 602
GlyphClass: 1
Flags: W
LayerCount: 2
Fore
SplineSet
310 598 m 1,0,-1
 310 675 l 1,1,-1
 16 675 l 1,2,-1
 16 598 l 1,3,-1
 310 598 l 1,0,-1
545 326 m 2,4,5
 545 365 545 365 538 402.5 c 128,-1,6
 531 440 531 440 513 468.5 c 128,-1,7
 495 497 495 497 463 515 c 128,-1,8
 431 533 431 533 380 533 c 0,9,10
 320 533 320 533 270 505 c 128,-1,11
 220 477 220 477 191 425 c 1,12,-1
 191 730 l 1,13,-1
 62 730 l 1,14,-1
 62 0 l 1,15,-1
 191 0 l 1,16,-1
 191 307 l 1,17,18
 199 332 199 332 214 352.5 c 128,-1,19
 229 373 229 373 247.5 388 c 128,-1,20
 266 403 266 403 286.5 411 c 128,-1,21
 307 419 307 419 326 419 c 0,22,23
 369 419 369 419 392.5 388.5 c 128,-1,24
 416 358 416 358 416 294 c 2,25,-1
 416 0 l 1,26,-1
 545 0 l 1,27,-1
 545 326 l 2,4,5
EndSplineSet
EndChar

StartChar: dotlessi
Encoding: 305 305 243
Width: 252
GlyphClass: 1
Flags: W
LayerCount: 2
Fore
SplineSet
191 0 m 1,0,-1
 191 524 l 1,1,-1
 62 524 l 1,2,-1
 62 0 l 1,3,-1
 191 0 l 1,0,-1
EndSplineSet
EndChar

StartChar: kgreenlandic
Encoding: 312 312 248
Width: 556
GlyphClass: 1
Flags: W
LayerCount: 2
Fore
SplineSet
559 0 m 1,0,-1
 348 301 l 1,1,-1
 546 523 l 1,2,-1
 407 523 l 1,3,-1
 191 282 l 1,4,-1
 191 524 l 1,5,-1
 62 524 l 1,6,-1
 62 0 l 1,7,-1
 191 0 l 1,8,-1
 191 157 l 1,9,-1
 266 230 l 1,10,-1
 421 0 l 1,11,-1
 559 0 l 1,0,-1
EndSplineSet
EndChar

StartChar: Lslash
Encoding: 321 321 257
Width: 593
GlyphClass: 1
Flags: W
LayerCount: 2
Fore
SplineSet
362 455 m 1,0,-1
 330 525 l 1,1,-1
 -1 311 l 1,2,-1
 32 241 l 1,3,-1
 362 455 l 1,0,-1
583 0 m 1,4,-1
 583 116 l 1,5,-1
 216 116 l 1,6,-1
 216 710 l 1,7,-1
 84 710 l 1,8,-1
 84 0 l 1,9,-1
 583 0 l 1,4,-1
EndSplineSet
EndChar

StartChar: lslash
Encoding: 322 322 258
Width: 340
GlyphClass: 1
Flags: W
LayerCount: 2
Fore
SplineSet
333 454 m 1,0,-1
 300 524 l 1,1,-1
 0 340 l 1,2,-1
 33 271 l 1,3,-1
 333 454 l 1,0,-1
85 119 m 2,4,5
 85 58 85 58 119 25 c 128,-1,6
 153 -8 153 -8 214 -8 c 0,7,8
 243 -8 243 -8 278 -1 c 128,-1,9
 313 6 313 6 340 18 c 1,10,-1
 322 117 l 1,11,12
 310 111 310 111 293 107 c 128,-1,13
 276 103 276 103 258 103 c 0,14,15
 248 103 248 103 240 105.5 c 128,-1,16
 232 108 232 108 226 115 c 128,-1,17
 220 122 220 122 217 133.5 c 128,-1,18
 214 145 214 145 214 165 c 2,19,-1
 214 730 l 1,20,-1
 85 730 l 1,21,-1
 85 119 l 2,4,5
EndSplineSet
EndChar

StartChar: Eng
Encoding: 330 330 265
Width: 751
GlyphClass: 1
Flags: W
LayerCount: 2
Fore
SplineSet
547 27 m 1,0,-1
 547 -15 l 2,1,2
 547 -30 547 -30 541.5 -42.5 c 128,-1,3
 536 -55 536 -55 526.5 -64 c 128,-1,4
 517 -73 517 -73 505 -78 c 128,-1,5
 493 -83 493 -83 480 -83 c 0,6,7
 463 -83 463 -83 447.5 -78 c 128,-1,8
 432 -73 432 -73 420 -61 c 1,9,-1
 364 -148 l 1,10,11
 391 -172 391 -172 424.5 -183.5 c 128,-1,12
 458 -195 458 -195 495 -195 c 256,13,14
 532 -195 532 -195 564.5 -182 c 128,-1,15
 597 -169 597 -169 622 -144.5 c 128,-1,16
 647 -120 647 -120 661 -86 c 128,-1,17
 675 -52 675 -52 675 -10 c 2,18,-1
 675 709 l 1,19,-1
 543 709 l 1,20,-1
 543 240 l 1,21,-1
 177 710 l 1,22,-1
 75 710 l 1,23,-1
 75 0 l 1,24,-1
 207 0 l 1,25,-1
 207 461 l 1,26,-1
 547 27 l 1,0,-1
EndSplineSet
EndChar

StartChar: eng
Encoding: 331 331 266
Width: 602
GlyphClass: 1
Flags: W
LayerCount: 2
Fore
SplineSet
365 -195 m 0,0,1
 402 -195 402 -195 434.5 -181 c 128,-1,2
 467 -167 467 -167 491.5 -142 c 128,-1,3
 516 -117 516 -117 530.5 -82 c 128,-1,4
 545 -47 545 -47 545 -5 c 2,5,-1
 545 326 l 2,6,7
 545 365 545 365 538.5 402.5 c 128,-1,8
 532 440 532 440 514.5 469 c 128,-1,9
 497 498 497 498 466.5 515.5 c 128,-1,10
 436 533 436 533 388 533 c 0,11,12
 354 533 354 533 322.5 525.5 c 128,-1,13
 291 518 291 518 263.5 504 c 128,-1,14
 236 490 236 490 214.5 470 c 128,-1,15
 193 450 193 450 178 425 c 1,16,-1
 178 524 l 1,17,-1
 62 524 l 1,18,-1
 62 0 l 1,19,-1
 191 0 l 1,20,-1
 191 307 l 1,21,22
 198 332 198 332 213 352.5 c 128,-1,23
 228 373 228 373 247.5 387.5 c 128,-1,24
 267 402 267 402 288.5 410.5 c 128,-1,25
 310 419 310 419 331 419 c 0,26,27
 372 419 372 419 394 389.5 c 128,-1,28
 416 360 416 360 416 294 c 2,29,-1
 416 -15 l 2,30,31
 416 -30 416 -30 411 -42.5 c 128,-1,32
 406 -55 406 -55 396.5 -64 c 128,-1,33
 387 -73 387 -73 375 -78 c 128,-1,34
 363 -83 363 -83 350 -83 c 0,35,36
 333 -83 333 -83 317 -78 c 128,-1,37
 301 -73 301 -73 289 -61 c 1,38,-1
 234 -148 l 1,39,40
 260 -172 260 -172 293.5 -183.5 c 128,-1,41
 327 -195 327 -195 365 -195 c 0,0,1
EndSplineSet
EndChar

StartChar: OE
Encoding: 338 338 273
Width: 1091
GlyphClass: 1
Flags: W
LayerCount: 2
Fore
SplineSet
710 116 m 1,0,-1
 710 304 l 1,1,-1
 993 304 l 1,2,-1
 993 420 l 1,3,-1
 710 420 l 1,4,-1
 710 594 l 1,5,-1
 1047 594 l 1,6,-1
 1047 710 l 1,7,-1
 578 710 l 1,8,-1
 578 600 l 1,9,10
 562 625 562 625 539.5 645.5 c 128,-1,11
 517 666 517 666 491 682 c 128,-1,12
 465 698 465 698 435 706.5 c 128,-1,13
 405 715 405 715 371 715 c 0,14,15
 298 715 298 715 236 685.5 c 128,-1,16
 174 656 174 656 128.5 606 c 128,-1,17
 83 556 83 556 57.5 491 c 128,-1,18
 32 426 32 426 32 355 c 0,19,20
 32 287 32 287 56.5 222 c 128,-1,21
 81 157 81 157 125.5 106.5 c 128,-1,22
 170 56 170 56 231.5 25.5 c 128,-1,23
 293 -5 293 -5 369 -5 c 0,24,25
 402 -5 402 -5 432 4 c 128,-1,26
 462 13 462 13 489 28 c 128,-1,27
 516 43 516 43 538.5 64.5 c 128,-1,28
 561 86 561 86 578 111 c 1,29,-1
 578 0 l 1,30,-1
 1056 0 l 1,31,-1
 1056 116 l 1,32,-1
 710 116 l 1,0,-1
370 113 m 0,33,34
 322 113 322 113 284.5 133 c 128,-1,35
 247 153 247 153 220.5 186.5 c 128,-1,36
 194 220 194 220 180 264 c 128,-1,37
 166 308 166 308 166 355 c 0,38,39
 166 400 166 400 179.5 443.5 c 128,-1,40
 193 487 193 487 219 521 c 128,-1,41
 245 555 245 555 282.5 576 c 128,-1,42
 320 597 320 597 369 597 c 0,43,44
 416 597 416 597 453.5 577 c 128,-1,45
 491 557 491 557 517.5 523.5 c 128,-1,46
 544 490 544 490 558 446.5 c 128,-1,47
 572 403 572 403 572 356 c 0,48,49
 572 311 572 311 559 267 c 128,-1,50
 546 223 546 223 520 189 c 128,-1,51
 494 155 494 155 456.5 134 c 128,-1,52
 419 113 419 113 370 113 c 0,33,34
EndSplineSet
EndChar

StartChar: oe
Encoding: 339 339 274
Width: 1013
GlyphClass: 1
Flags: W
LayerCount: 2
Fore
SplineSet
301 -10 m 0,0,1
 332 -10 332 -10 360.5 -2.5 c 128,-1,2
 389 5 389 5 415 20.5 c 128,-1,3
 441 36 441 36 464.5 59 c 128,-1,4
 488 82 488 82 510 111 c 1,5,6
 532 82 532 82 556 59.5 c 128,-1,7
 580 37 580 37 606.5 21.5 c 128,-1,8
 633 6 633 6 662 -2 c 128,-1,9
 691 -10 691 -10 724 -10 c 0,10,11
 764 -10 764 -10 800.5 -0.5 c 128,-1,12
 837 9 837 9 868.5 27 c 128,-1,13
 900 45 900 45 925 70 c 128,-1,14
 950 95 950 95 964 126 c 1,15,-1
 857 157 l 1,16,17
 851 141 851 141 838.5 127 c 128,-1,18
 826 113 826 113 808.5 103 c 128,-1,19
 791 93 791 93 770.5 87.5 c 128,-1,20
 750 82 750 82 729 82 c 0,21,22
 699 82 699 82 673 92.5 c 128,-1,23
 647 103 647 103 627.5 122 c 128,-1,24
 608 141 608 141 595.5 166 c 128,-1,25
 583 191 583 191 581 221 c 1,26,-1
 988 221 l 1,27,28
 990 228 990 228 990.5 240 c 128,-1,29
 991 252 991 252 991 262 c 0,30,31
 989 322 989 322 968.5 372 c 128,-1,32
 948 422 948 422 912 457.5 c 128,-1,33
 876 493 876 493 827 513 c 128,-1,34
 778 533 778 533 720 533 c 0,35,36
 651 533 651 533 598.5 501.5 c 128,-1,37
 546 470 546 470 509 407 c 1,38,39
 492 437 492 437 470 461 c 128,-1,40
 448 485 448 485 422 500.5 c 128,-1,41
 396 516 396 516 365.5 524.5 c 128,-1,42
 335 533 335 533 301 533 c 0,43,44
 242 533 242 533 192.5 512.5 c 128,-1,45
 143 492 143 492 106.5 455.5 c 128,-1,46
 70 419 70 419 49.5 369 c 128,-1,47
 29 319 29 319 29 261 c 0,48,49
 29 202 29 202 49.5 153 c 128,-1,50
 70 104 70 104 106 67.5 c 128,-1,51
 142 31 142 31 192 10.5 c 128,-1,52
 242 -10 242 -10 301 -10 c 0,0,1
302 100 m 0,53,54
 272 100 272 100 246 111.5 c 128,-1,55
 220 123 220 123 201.5 145 c 128,-1,56
 183 167 183 167 172 196 c 128,-1,57
 161 225 161 225 161 260 c 256,58,59
 161 295 161 295 172 325 c 128,-1,60
 183 355 183 355 202 376.5 c 128,-1,61
 221 398 221 398 247 410.5 c 128,-1,62
 273 423 273 423 303 423 c 256,63,64
 333 423 333 423 359 411 c 128,-1,65
 385 399 385 399 403.5 377 c 128,-1,66
 422 355 422 355 433 325.5 c 128,-1,67
 444 296 444 296 444 261 c 0,68,69
 444 227 444 227 433 197 c 128,-1,70
 422 167 422 167 403 145.5 c 128,-1,71
 384 124 384 124 358.5 112 c 128,-1,72
 333 100 333 100 302 100 c 0,53,54
577 300 m 1,73,74
 579 331 579 331 590.5 356.5 c 128,-1,75
 602 382 602 382 620.5 400.5 c 128,-1,76
 639 419 639 419 663.5 429 c 128,-1,77
 688 439 688 439 716 439 c 0,78,79
 745 439 745 439 770 429 c 128,-1,80
 795 419 795 419 814 400.5 c 128,-1,81
 833 382 833 382 845 356.5 c 128,-1,82
 857 331 857 331 860 300 c 1,83,-1
 577 300 l 1,73,74
EndSplineSet
EndChar

StartChar: Tbar
Encoding: 358 358 293
Width: 644
GlyphClass: 1
Flags: W
LayerCount: 2
Fore
SplineSet
570 293 m 1,0,-1
 570 367 l 1,1,-1
 73 367 l 1,2,-1
 73 293 l 1,3,-1
 570 293 l 1,0,-1
617 710 m 1,4,-1
 27 710 l 1,5,-1
 27 594 l 1,6,-1
 256 594 l 1,7,-1
 256 0 l 1,8,-1
 388 0 l 1,9,-1
 388 594 l 1,10,-1
 617 594 l 1,11,-1
 617 710 l 1,4,-1
EndSplineSet
EndChar

StartChar: tbar
Encoding: 359 359 294
Width: 381
GlyphClass: 1
Flags: W
LayerCount: 2
Fore
SplineSet
321 254 m 1,0,-1
 321 331 l 1,1,-1
 32 331 l 1,2,-1
 32 254 l 1,3,-1
 321 254 l 1,0,-1
346 129 m 1,4,5
 340 126 340 126 332 122.5 c 128,-1,6
 324 119 324 119 314.5 116 c 128,-1,7
 305 113 305 113 294 111 c 128,-1,8
 283 109 283 109 273 109 c 0,9,10
 251 109 251 109 236.5 121 c 128,-1,11
 222 133 222 133 221 161 c 2,12,-1
 221 425 l 1,13,-1
 332 425 l 1,14,-1
 332 524 l 1,15,-1
 221 524 l 1,16,-1
 221 694 l 1,17,-1
 92 694 l 1,18,-1
 92 524 l 1,19,-1
 24 524 l 1,20,-1
 24 425 l 1,21,-1
 92 425 l 1,22,-1
 92 118 l 2,23,24
 92 84 92 84 103 60 c 128,-1,25
 114 36 114 36 132 21 c 128,-1,26
 150 6 150 6 174.5 -1.5 c 128,-1,27
 199 -9 199 -9 226 -9 c 0,28,29
 248 -9 248 -9 268.5 -5 c 128,-1,30
 289 -1 289 -1 308 4 c 128,-1,31
 327 9 327 9 343.5 15 c 128,-1,32
 360 21 360 21 372 27 c 1,33,-1
 346 129 l 1,4,5
EndSplineSet
EndChar

StartChar: uni018F
Encoding: 399 399 318
Width: 745
GlyphClass: 1
Flags: W
LayerCount: 2
Fore
SplineSet
368 -5 m 0,0,1
 446 -5 446 -5 509 24.5 c 128,-1,2
 572 54 572 54 617.5 104.5 c 128,-1,3
 663 155 663 155 687.5 220.5 c 128,-1,4
 712 286 712 286 712 358 c 0,5,6
 712 427 712 427 687 491.5 c 128,-1,7
 662 556 662 556 617 605.5 c 128,-1,8
 572 655 572 655 509 685 c 128,-1,9
 446 715 446 715 370 715 c 0,10,11
 319 715 319 715 272 701.5 c 128,-1,12
 225 688 225 688 184.5 664 c 128,-1,13
 144 640 144 640 113 606 c 128,-1,14
 82 572 82 572 62 531 c 1,15,-1
 194 485 l 1,16,17
 202 510 202 510 219 530.5 c 128,-1,18
 236 551 236 551 259 565.5 c 128,-1,19
 282 580 282 580 309.5 588 c 128,-1,20
 337 596 337 596 366 596 c 0,21,22
 404 596 404 596 438.5 582.5 c 128,-1,23
 473 569 473 569 500 543 c 128,-1,24
 527 517 527 517 545 480.5 c 128,-1,25
 563 444 563 444 567 400 c 1,26,-1
 25 400 l 1,27,28
 23 390 23 390 22 375 c 128,-1,29
 21 360 21 360 21 345 c 0,30,31
 21 278 21 278 46.5 215.5 c 128,-1,32
 72 153 72 153 117.5 104 c 128,-1,33
 163 55 163 55 227 25 c 128,-1,34
 291 -5 291 -5 368 -5 c 0,0,1
371 112 m 0,35,36
 330 112 330 112 294.5 125.5 c 128,-1,37
 259 139 259 139 231 163.5 c 128,-1,38
 203 188 203 188 186 222 c 128,-1,39
 169 256 169 256 166 296 c 1,40,-1
 567 296 l 1,41,42
 563 255 563 255 546.5 221 c 128,-1,43
 530 187 530 187 504.5 163 c 128,-1,44
 479 139 479 139 444.5 125.5 c 128,-1,45
 410 112 410 112 371 112 c 0,35,36
EndSplineSet
EndChar

StartChar: florin
Encoding: 402 402 319
Width: 546
GlyphClass: 1
Flags: W
LayerCount: 2
Fore
SplineSet
161 -195 m 256,0,1
 198 -195 198 -195 230.5 -181.5 c 128,-1,2
 263 -168 263 -168 287.5 -144 c 128,-1,3
 312 -120 312 -120 326 -86 c 128,-1,4
 340 -52 340 -52 340 -12 c 2,5,-1
 340 364 l 1,6,-1
 470 364 l 1,7,-1
 470 463 l 1,8,-1
 340 463 l 1,9,-1
 340 533 l 2,10,11
 340 581 340 581 358.5 606 c 128,-1,12
 377 631 377 631 412 631 c 0,13,14
 430 631 430 631 450.5 626 c 128,-1,15
 471 621 471 621 486 612 c 1,16,-1
 512 709 l 1,17,18
 482 724 482 724 449 732 c 128,-1,19
 416 740 416 740 385 740 c 0,20,21
 345 740 345 740 313 725 c 128,-1,22
 281 710 281 710 258.5 683 c 128,-1,23
 236 656 236 656 224 616.5 c 128,-1,24
 212 577 212 577 212 529 c 2,25,-1
 212 463 l 1,26,-1
 143 463 l 1,27,-1
 143 364 l 1,28,-1
 212 364 l 1,29,-1
 212 -15 l 2,30,31
 212 -30 212 -30 206.5 -42.5 c 128,-1,32
 201 -55 201 -55 191.5 -64 c 128,-1,33
 182 -73 182 -73 170 -78 c 128,-1,34
 158 -83 158 -83 145 -83 c 0,35,36
 129 -83 129 -83 113 -78 c 128,-1,37
 97 -73 97 -73 85 -61 c 1,38,-1
 29 -148 l 1,39,40
 56 -172 56 -172 90 -183.5 c 128,-1,41
 124 -195 124 -195 161 -195 c 256,0,1
EndSplineSet
EndChar

StartChar: Aringacute
Encoding: 506 506 328
Width: 673
GlyphClass: 1
Flags: W
LayerCount: 2
Fore
SplineSet
5 0 m 1,0,-1
 142 0 l 1,1,-1
 209 180 l 1,2,-1
 463 180 l 1,3,-1
 531 0 l 1,4,-1
 668 0 l 1,5,-1
 403 710 l 1,6,-1
 271 710 l 1,7,-1
 5 0 l 1,0,-1
231 274 m 1,8,-1
 337 571 l 1,9,-1
 439 274 l 1,10,-1
 231 274 l 1,8,-1
233 762 m 0,11,12
 233 721 233 721 261.5 697 c 128,-1,13
 290 673 290 673 337 673 c 256,14,15
 384 673 384 673 412.5 697 c 128,-1,16
 441 721 441 721 441 762 c 0,17,18
 441 804 441 804 412.5 828.5 c 128,-1,19
 384 853 384 853 337 853 c 256,20,21
 290 853 290 853 261.5 828.5 c 128,-1,22
 233 804 233 804 233 762 c 0,11,12
337 806 m 256,23,24
 356 806 356 806 369 794 c 128,-1,25
 382 782 382 782 382 763 c 256,26,27
 382 744 382 744 368.5 731.5 c 128,-1,28
 355 719 355 719 337 719 c 0,29,30
 318 719 318 719 305.5 732 c 128,-1,31
 293 745 293 745 293 763 c 0,32,33
 293 782 293 782 305.5 794 c 128,-1,34
 318 806 318 806 337 806 c 256,23,24
494 968 m 1,35,-1
 374 968 l 1,36,-1
 303 821 l 1,37,-1
 368 821 l 1,38,-1
 494 968 l 1,35,-1
EndSplineSet
EndChar

StartChar: uni0237
Encoding: 567 567 370
Width: 252
GlyphClass: 1
Flags: W
LayerCount: 2
Fore
SplineSet
11 -195 m 0,0,1
 48 -195 48 -195 80.5 -181 c 128,-1,2
 113 -167 113 -167 137.5 -142 c 128,-1,3
 162 -117 162 -117 176.5 -82 c 128,-1,4
 191 -47 191 -47 191 -5 c 2,5,-1
 191 524 l 1,6,-1
 62 524 l 1,7,-1
 62 -15 l 2,8,9
 62 -30 62 -30 56.5 -42.5 c 128,-1,10
 51 -55 51 -55 42 -64 c 128,-1,11
 33 -73 33 -73 21 -78 c 128,-1,12
 9 -83 9 -83 -5 -83 c 0,13,14
 -21 -83 -21 -83 -37 -78 c 128,-1,15
 -53 -73 -53 -73 -65 -61 c 1,16,-1
 -121 -148 l 1,17,18
 -94 -172 -94 -172 -60.5 -183.5 c 128,-1,19
 -27 -195 -27 -195 11 -195 c 0,0,1
EndSplineSet
EndChar

StartChar: uni0259
Encoding: 601 601 371
Width: 598
GlyphClass: 1
Flags: W
LayerCount: 2
Fore
SplineSet
296 -10 m 0,0,1
 360 -10 360 -10 410.5 12 c 128,-1,2
 461 34 461 34 496 71 c 128,-1,3
 531 108 531 108 550 157.5 c 128,-1,4
 569 207 569 207 569 263 c 0,5,6
 569 318 569 318 549.5 366.5 c 128,-1,7
 530 415 530 415 494.5 452.5 c 128,-1,8
 459 490 459 490 408.5 511.5 c 128,-1,9
 358 533 358 533 295 533 c 0,10,11
 252 533 252 533 214 523 c 128,-1,12
 176 513 176 513 145 494.5 c 128,-1,13
 114 476 114 476 90.5 451.5 c 128,-1,14
 67 427 67 427 53 397 c 1,15,-1
 163 366 l 1,16,17
 169 382 169 382 182.5 395.5 c 128,-1,18
 196 409 196 409 213 418.5 c 128,-1,19
 230 428 230 428 250 433 c 128,-1,20
 270 438 270 438 290 438 c 0,21,22
 317 438 317 438 341.5 429 c 128,-1,23
 366 420 366 420 385.5 402.5 c 128,-1,24
 405 385 405 385 417.5 359.5 c 128,-1,25
 430 334 430 334 432 302 c 1,26,-1
 25 302 l 1,27,28
 24 295 24 295 23 283 c 128,-1,29
 22 271 22 271 22 261 c 0,30,31
 22 207 22 207 41 157.5 c 128,-1,32
 60 108 60 108 95.5 71 c 128,-1,33
 131 34 131 34 182 12 c 128,-1,34
 233 -10 233 -10 296 -10 c 0,0,1
298 84 m 256,35,36
 270 84 270 84 245 94 c 128,-1,37
 220 104 220 104 201 122 c 128,-1,38
 182 140 182 140 169.5 165.5 c 128,-1,39
 157 191 157 191 154 222 c 1,40,-1
 435 222 l 1,41,42
 433 192 433 192 421.5 166 c 128,-1,43
 410 140 410 140 392 122 c 128,-1,44
 374 104 374 104 350 94 c 128,-1,45
 326 84 326 84 298 84 c 256,35,36
EndSplineSet
EndChar

StartChar: uni02BE
Encoding: 702 702 376
Width: 157
GlyphClass: 1
Flags: W
LayerCount: 2
Fore
SplineSet
27 567 m 1,0,1
 73 567 73 567 101.5 591 c 128,-1,2
 130 615 130 615 130 656 c 0,3,4
 130 698 130 698 101.5 722.5 c 128,-1,5
 73 747 73 747 27 747 c 1,6,-1
 27 700 l 1,7,8
 45 700 45 700 58 688 c 128,-1,9
 71 676 71 676 71 657 c 256,10,11
 71 638 71 638 58 625.5 c 128,-1,12
 45 613 45 613 27 613 c 1,13,-1
 27 567 l 1,0,1
EndSplineSet
EndChar

StartChar: uni02BF
Encoding: 703 703 377
Width: 157
GlyphClass: 1
Flags: W
LayerCount: 2
Fore
SplineSet
130 613 m 1,0,1
 112 613 112 613 99 626 c 128,-1,2
 86 639 86 639 86 657 c 0,3,4
 86 676 86 676 99 688 c 128,-1,5
 112 700 112 700 130 700 c 1,6,-1
 130 747 l 1,7,8
 84 747 84 747 55.5 722.5 c 128,-1,9
 27 698 27 698 27 656 c 0,10,11
 27 615 27 615 55.5 591 c 128,-1,12
 84 567 84 567 130 567 c 1,13,-1
 130 613 l 1,0,1
EndSplineSet
EndChar

StartChar: uni02C8
Encoding: 712 712 380
Width: 272
GlyphClass: 1
Flags: W
LayerCount: 2
Fore
SplineSet
81 775 m 1,0,-1
 81 380 l 1,1,-1
 191 380 l 1,2,-1
 191 775 l 1,3,-1
 81 775 l 1,0,-1
EndSplineSet
EndChar

StartChar: uni02C9
Encoding: 713 713 381
Width: 417
GlyphClass: 1
Flags: W
LayerCount: 2
Fore
SplineSet
358 635 m 1,0,-1
 358 715 l 1,1,-1
 59 715 l 1,2,-1
 59 635 l 1,3,-1
 358 635 l 1,0,-1
EndSplineSet
EndChar

StartChar: uni02CA
Encoding: 714 714 382
Width: 232
GlyphClass: 1
Flags: W
LayerCount: 2
Fore
SplineSet
137 499 m 1,0,-1
 171 723 l 1,1,-1
 61 723 l 1,2,-1
 61 499 l 1,3,-1
 137 499 l 1,0,-1
EndSplineSet
EndChar

StartChar: uni02CB
Encoding: 715 715 383
Width: 232
GlyphClass: 1
Flags: W
LayerCount: 2
Fore
SplineSet
171 499 m 1,0,-1
 171 723 l 1,1,-1
 61 723 l 1,2,-1
 95 499 l 1,3,-1
 171 499 l 1,0,-1
EndSplineSet
EndChar

StartChar: uni02CC
Encoding: 716 716 384
Width: 272
GlyphClass: 1
Flags: W
LayerCount: 2
Fore
SplineSet
81 265 m 1,0,-1
 81 -130 l 1,1,-1
 191 -130 l 1,2,-1
 191 265 l 1,3,-1
 81 265 l 1,0,-1
EndSplineSet
EndChar

StartChar: tilde
Encoding: 732 732 389
Width: 435
GlyphClass: 1
Flags: W
LayerCount: 2
Fore
SplineSet
282 605 m 0,0,1
 317 605 317 605 340 622 c 128,-1,2
 363 639 363 639 377 661 c 128,-1,3
 391 683 391 683 397 703 c 128,-1,4
 403 723 403 723 403 730 c 1,5,-1
 332 730 l 1,6,7
 332 729 332 729 330.5 721 c 128,-1,8
 329 713 329 713 323.5 704 c 128,-1,9
 318 695 318 695 307.5 687.5 c 128,-1,10
 297 680 297 680 278 680 c 0,11,12
 261 680 261 680 246.5 687 c 128,-1,13
 232 694 232 694 217.5 703 c 128,-1,14
 203 712 203 712 186 719 c 128,-1,15
 169 726 169 726 147 726 c 0,16,17
 114 726 114 726 92 710 c 128,-1,18
 70 694 70 694 56.5 673 c 128,-1,19
 43 652 43 652 37.5 631 c 128,-1,20
 32 610 32 610 32 601 c 1,21,-1
 104 601 l 1,22,23
 104 603 104 603 105 610.5 c 128,-1,24
 106 618 106 618 111 626.5 c 128,-1,25
 116 635 116 635 125.5 642 c 128,-1,26
 135 649 135 649 151 649 c 0,27,28
 168 649 168 649 182 642.5 c 128,-1,29
 196 636 196 636 211 627.5 c 128,-1,30
 226 619 226 619 243 612 c 128,-1,31
 260 605 260 605 282 605 c 0,0,1
EndSplineSet
EndChar

StartChar: gravecomb
Encoding: 768 768 391
Width: 253
GlyphClass: 1
Flags: W
LayerCount: 2
Fore
SplineSet
36 760 m 1,0,-1
 162 600 l 1,1,-1
 228 600 l 1,2,-1
 157 760 l 1,3,-1
 36 760 l 1,0,-1
EndSplineSet
EndChar

StartChar: acutecomb
Encoding: 769 769 392
Width: 253
GlyphClass: 1
Flags: W
LayerCount: 2
Fore
SplineSet
228 760 m 1,0,-1
 107 760 l 1,1,-1
 36 600 l 1,2,-1
 102 600 l 1,3,-1
 228 760 l 1,0,-1
EndSplineSet
EndChar

StartChar: uni0302
Encoding: 770 770 393
Width: 366
GlyphClass: 1
Flags: W
LayerCount: 2
Fore
SplineSet
24 600 m 1,0,-1
 90 600 l 1,1,-1
 180 686 l 1,2,-1
 270 600 l 1,3,-1
 336 600 l 1,4,-1
 241 748 l 1,5,-1
 119 748 l 1,6,-1
 24 600 l 1,0,-1
EndSplineSet
EndChar

StartChar: tildecomb
Encoding: 771 771 394
Width: 435
GlyphClass: 1
Flags: W
LayerCount: 2
Fore
SplineSet
282 621 m 0,0,1
 317 621 317 621 340 638 c 128,-1,2
 363 655 363 655 377 677 c 128,-1,3
 391 699 391 699 397 719 c 128,-1,4
 403 739 403 739 403 746 c 1,5,-1
 332 746 l 1,6,7
 332 745 332 745 330.5 737 c 128,-1,8
 329 729 329 729 323.5 720 c 128,-1,9
 318 711 318 711 307.5 703.5 c 128,-1,10
 297 696 297 696 278 696 c 0,11,12
 261 696 261 696 246.5 703 c 128,-1,13
 232 710 232 710 217.5 719 c 128,-1,14
 203 728 203 728 186 735 c 128,-1,15
 169 742 169 742 147 742 c 0,16,17
 114 742 114 742 92 726 c 128,-1,18
 70 710 70 710 56.5 689 c 128,-1,19
 43 668 43 668 37.5 647 c 128,-1,20
 32 626 32 626 32 617 c 1,21,-1
 104 617 l 1,22,23
 104 619 104 619 105 626.5 c 128,-1,24
 106 634 106 634 111 642.5 c 128,-1,25
 116 651 116 651 125.5 658 c 128,-1,26
 135 665 135 665 151 665 c 0,27,28
 168 665 168 665 182 658.5 c 128,-1,29
 196 652 196 652 211 643.5 c 128,-1,30
 226 635 226 635 243 628 c 128,-1,31
 260 621 260 621 282 621 c 0,0,1
EndSplineSet
EndChar

StartChar: uni0304
Encoding: 772 772 395
Width: 417
GlyphClass: 1
Flags: W
LayerCount: 2
Fore
SplineSet
358 635 m 1,0,-1
 358 715 l 1,1,-1
 59 715 l 1,2,-1
 59 635 l 1,3,-1
 358 635 l 1,0,-1
EndSplineSet
EndChar

StartChar: uni0306
Encoding: 774 774 396
Width: 325
GlyphClass: 1
Flags: W
LayerCount: 2
Fore
SplineSet
162 657 m 256,0,1
 139 657 139 657 121.5 679 c 128,-1,2
 104 701 104 701 104 730 c 1,3,-1
 34 730 l 1,4,5
 34 701 34 701 43.5 677.5 c 128,-1,6
 53 654 53 654 70.5 636 c 128,-1,7
 88 618 88 618 111.5 608.5 c 128,-1,8
 135 599 135 599 162 599 c 0,9,10
 190 599 190 599 213.5 608.5 c 128,-1,11
 237 618 237 618 254 636 c 128,-1,12
 271 654 271 654 281 677.5 c 128,-1,13
 291 701 291 701 291 730 c 1,14,-1
 222 730 l 1,15,16
 219 699 219 699 202 678 c 128,-1,17
 185 657 185 657 162 657 c 256,0,1
EndSplineSet
EndChar

StartChar: uni0307
Encoding: 775 775 397
Width: 216
GlyphClass: 1
Flags: W
LayerCount: 2
Fore
SplineSet
36 668 m 0,0,1
 36 639 36 639 57 618 c 128,-1,2
 78 597 78 597 108 597 c 0,3,4
 137 597 137 597 158 618 c 128,-1,5
 179 639 179 639 179 668 c 0,6,7
 179 698 179 698 158 719 c 128,-1,8
 137 740 137 740 108 740 c 0,9,10
 78 740 78 740 57 719 c 128,-1,11
 36 698 36 698 36 668 c 0,0,1
EndSplineSet
EndChar

StartChar: uni0308
Encoding: 776 776 398
Width: 447
GlyphClass: 1
Flags: W
LayerCount: 2
Fore
SplineSet
52 665 m 256,0,1
 52 636 52 636 73 615 c 128,-1,2
 94 594 94 594 124 594 c 0,3,4
 153 594 153 594 174 615 c 128,-1,5
 195 636 195 636 195 665 c 256,6,7
 195 694 195 694 174 715 c 128,-1,8
 153 736 153 736 124 736 c 0,9,10
 94 736 94 736 73 715 c 128,-1,11
 52 694 52 694 52 665 c 256,0,1
253 665 m 256,12,13
 253 636 253 636 274 615 c 128,-1,14
 295 594 295 594 325 594 c 0,15,16
 354 594 354 594 375 615 c 128,-1,17
 396 636 396 636 396 665 c 256,18,19
 396 694 396 694 375 715 c 128,-1,20
 354 736 354 736 325 736 c 0,21,22
 295 736 295 736 274 715 c 128,-1,23
 253 694 253 694 253 665 c 256,12,13
EndSplineSet
EndChar

StartChar: hookabovecomb
Encoding: 777 777 399
Width: 600
GlyphClass: 1
Flags: W
LayerCount: 2
Fore
SplineSet
256 688 m 1,0,1
 271 701 271 701 281 706.5 c 128,-1,2
 291 712 291 712 304 712 c 256,3,4
 317 712 317 712 324.5 704 c 128,-1,5
 332 696 332 696 332 684 c 0,6,7
 332 671 332 671 324.5 659.5 c 128,-1,8
 317 648 317 648 300 634 c 1,9,-1
 333 598 l 1,10,11
 366 625 366 625 381.5 648 c 128,-1,12
 397 671 397 671 397 700 c 0,13,14
 397 730 397 730 375.5 751.5 c 128,-1,15
 354 773 354 773 315 773 c 0,16,17
 288 773 288 773 264 762 c 128,-1,18
 240 751 240 751 216 728 c 1,19,-1
 256 688 l 1,0,1
EndSplineSet
EndChar

StartChar: uni030A
Encoding: 778 778 400
Width: 261
GlyphClass: 1
Flags: W
LayerCount: 2
Fore
SplineSet
27 656 m 0,0,1
 27 615 27 615 55.5 591 c 128,-1,2
 84 567 84 567 130 567 c 0,3,4
 177 567 177 567 205.5 591 c 128,-1,5
 234 615 234 615 234 656 c 0,6,7
 234 698 234 698 205.5 722.5 c 128,-1,8
 177 747 177 747 130 747 c 0,9,10
 84 747 84 747 55.5 722.5 c 128,-1,11
 27 698 27 698 27 656 c 0,0,1
130 700 m 0,12,13
 149 700 149 700 162 688 c 128,-1,14
 175 676 175 676 175 657 c 256,15,16
 175 638 175 638 162 625.5 c 128,-1,17
 149 613 149 613 130 613 c 0,18,19
 112 613 112 613 99 626 c 128,-1,20
 86 639 86 639 86 657 c 0,21,22
 86 676 86 676 99 688 c 128,-1,23
 112 700 112 700 130 700 c 0,12,13
EndSplineSet
EndChar

StartChar: uni030C
Encoding: 780 780 402
Width: 366
GlyphClass: 1
Flags: W
LayerCount: 2
Fore
SplineSet
24 748 m 1,0,-1
 119 600 l 1,1,-1
 241 600 l 1,2,-1
 336 748 l 1,3,-1
 270 748 l 1,4,-1
 180 662 l 1,5,-1
 90 748 l 1,6,-1
 24 748 l 1,0,-1
EndSplineSet
EndChar

StartChar: uni0311
Encoding: 785 785 404
Width: 325
GlyphClass: 1
Flags: W
LayerCount: 2
Fore
SplineSet
162 672 m 256,0,1
 185 672 185 672 202 651 c 128,-1,2
 219 630 219 630 222 599 c 1,3,-1
 291 599 l 1,4,5
 291 627 291 627 281 651 c 128,-1,6
 271 675 271 675 254 692.5 c 128,-1,7
 237 710 237 710 213.5 720 c 128,-1,8
 190 730 190 730 162 730 c 0,9,10
 135 730 135 730 111.5 720 c 128,-1,11
 88 710 88 710 70.5 692.5 c 128,-1,12
 53 675 53 675 43.5 651 c 128,-1,13
 34 627 34 627 34 599 c 1,14,-1
 104 599 l 1,15,16
 104 628 104 628 121.5 650 c 128,-1,17
 139 672 139 672 162 672 c 256,0,1
EndSplineSet
EndChar

StartChar: uni0312
Encoding: 786 786 405
Width: 197
GlyphClass: 1
Flags: W
LayerCount: 2
Fore
SplineSet
19 583 m 1,0,-1
 139 583 l 1,1,-1
 205 736 l 1,2,-1
 139 736 l 1,3,-1
 19 583 l 1,0,-1
EndSplineSet
EndChar

StartChar: uni031B
Encoding: 795 795 406
Width: 301
GlyphClass: 1
Flags: W
LayerCount: 2
Fore
SplineSet
50 484 m 1,0,1
 75 484 75 484 99 487.5 c 128,-1,2
 123 491 123 491 144 497.5 c 128,-1,3
 165 504 165 504 181.5 513 c 128,-1,4
 198 522 198 522 210 534 c 0,5,6
 224 548 224 548 231.5 563.5 c 128,-1,7
 239 579 239 579 243.5 595.5 c 128,-1,8
 248 612 248 612 249.5 628.5 c 128,-1,9
 251 645 251 645 251 661 c 1,10,-1
 157 661 l 1,11,12
 156 641 156 641 153.5 625.5 c 128,-1,13
 151 610 151 610 140 596 c 0,14,15
 128 584 128 584 107.5 578.5 c 128,-1,16
 87 573 87 573 52 573 c 1,17,-1
 50 484 l 1,0,1
EndSplineSet
EndChar

StartChar: dotbelowcomb
Encoding: 803 803 407
Width: 216
GlyphClass: 1
Flags: W
LayerCount: 2
Fore
SplineSet
37 -138 m 0,0,1
 37 -167 37 -167 58 -188 c 128,-1,2
 79 -209 79 -209 108 -209 c 256,3,4
 137 -209 137 -209 158 -188 c 128,-1,5
 179 -167 179 -167 179 -138 c 0,6,7
 179 -108 179 -108 158 -87 c 128,-1,8
 137 -66 137 -66 108 -66 c 256,9,10
 79 -66 79 -66 58 -87 c 128,-1,11
 37 -108 37 -108 37 -138 c 0,0,1
EndSplineSet
EndChar

StartChar: uni0324
Encoding: 804 804 408
Width: 447
GlyphClass: 1
Flags: W
LayerCount: 2
Fore
SplineSet
246 -139 m 256,0,1
 246 -168 246 -168 267 -189 c 128,-1,2
 288 -210 288 -210 318 -210 c 0,3,4
 347 -210 347 -210 368 -189 c 128,-1,5
 389 -168 389 -168 389 -139 c 256,6,7
 389 -110 389 -110 368 -89 c 128,-1,8
 347 -68 347 -68 318 -68 c 0,9,10
 288 -68 288 -68 267 -89 c 128,-1,11
 246 -110 246 -110 246 -139 c 256,0,1
57 -139 m 256,12,13
 57 -168 57 -168 78 -189 c 128,-1,14
 99 -210 99 -210 129 -210 c 0,15,16
 158 -210 158 -210 179 -189 c 128,-1,17
 200 -168 200 -168 200 -139 c 256,18,19
 200 -110 200 -110 179 -89 c 128,-1,20
 158 -68 158 -68 129 -68 c 0,21,22
 99 -68 99 -68 78 -89 c 128,-1,23
 57 -110 57 -110 57 -139 c 256,12,13
EndSplineSet
EndChar

StartChar: uni0326
Encoding: 806 806 409
Width: 197
GlyphClass: 1
Flags: W
LayerCount: 2
Fore
SplineSet
92 -261 m 1,0,-1
 181 -47 l 1,1,-1
 68 -47 l 1,2,-1
 33 -261 l 1,3,-1
 92 -261 l 1,0,-1
EndSplineSet
EndChar

StartChar: uni0327
Encoding: 807 807 410
Width: 322
GlyphClass: 1
Flags: W
LayerCount: 2
Fore
SplineSet
43 -179 m 0,0,1
 67 -192 67 -192 94.5 -195.5 c 128,-1,2
 122 -199 122 -199 149 -199 c 0,3,4
 169 -199 169 -199 191.5 -195 c 128,-1,5
 214 -191 214 -191 233 -181.5 c 128,-1,6
 252 -172 252 -172 264 -155.5 c 128,-1,7
 276 -139 276 -139 276 -112 c 0,8,9
 276 -75 276 -75 250 -59 c 128,-1,10
 224 -43 224 -43 191 -43 c 0,11,12
 183 -43 183 -43 174.5 -43.5 c 128,-1,13
 166 -44 166 -44 158 -47 c 1,14,-1
 194 7 l 1,15,16
 191 8 191 8 184 10.5 c 128,-1,17
 177 13 177 13 169 15 c 128,-1,18
 161 17 161 17 154 19.5 c 128,-1,19
 147 22 147 22 143 23 c 1,20,-1
 82 -95 l 1,21,22
 103 -91 103 -91 123.5 -87.5 c 128,-1,23
 144 -84 144 -84 164 -84 c 0,24,25
 181 -84 181 -84 198 -90 c 128,-1,26
 215 -96 215 -96 215 -117 c 0,27,28
 215 -128 215 -128 209 -134.5 c 128,-1,29
 203 -141 203 -141 194.5 -144.5 c 128,-1,30
 186 -148 186 -148 176.5 -149 c 128,-1,31
 167 -150 167 -150 158 -150 c 0,32,33
 138 -150 138 -150 112.5 -145.5 c 128,-1,34
 87 -141 87 -141 69 -131 c 1,35,36
 68 -134 68 -134 63.5 -141 c 128,-1,37
 59 -148 59 -148 54.5 -155.5 c 128,-1,38
 50 -163 50 -163 46.5 -170 c 128,-1,39
 43 -177 43 -177 43 -179 c 0,0,1
EndSplineSet
EndChar

StartChar: uni0328
Encoding: 808 808 411
Width: 286
GlyphClass: 1
Flags: W
LayerCount: 2
Fore
SplineSet
62 -110 m 0,0,1
 62 -125 62 -125 68.5 -139.5 c 128,-1,2
 75 -154 75 -154 90 -166 c 128,-1,3
 105 -178 105 -178 130 -187 c 128,-1,4
 155 -196 155 -196 193 -199 c 1,5,-1
 219 -125 l 1,6,7
 183 -124 183 -124 163.5 -115.5 c 128,-1,8
 144 -107 144 -107 144 -88 c 0,9,10
 144 -70 144 -70 162.5 -48.5 c 128,-1,11
 181 -27 181 -27 220 0 c 1,12,-1
 203 21 l 1,13,-1
 163 21 l 1,14,15
 111 -9 111 -9 86.5 -42.5 c 128,-1,16
 62 -76 62 -76 62 -110 c 0,0,1
EndSplineSet
EndChar

StartChar: uni032E
Encoding: 814 814 412
Width: 325
GlyphClass: 1
Flags: W
LayerCount: 2
Fore
SplineSet
162 -127 m 256,0,1
 139 -127 139 -127 121.5 -105 c 128,-1,2
 104 -83 104 -83 104 -53 c 1,3,-1
 34 -53 l 1,4,5
 34 -82 34 -82 43.5 -106 c 128,-1,6
 53 -130 53 -130 70.5 -147.5 c 128,-1,7
 88 -165 88 -165 111.5 -175 c 128,-1,8
 135 -185 135 -185 162 -185 c 0,9,10
 190 -185 190 -185 213.5 -175 c 128,-1,11
 237 -165 237 -165 254 -147.5 c 128,-1,12
 271 -130 271 -130 281 -106 c 128,-1,13
 291 -82 291 -82 291 -53 c 1,14,-1
 222 -53 l 1,15,16
 219 -85 219 -85 202 -106 c 128,-1,17
 185 -127 185 -127 162 -127 c 256,0,1
EndSplineSet
EndChar

StartChar: uni0331
Encoding: 817 817 413
Width: 417
GlyphClass: 1
Flags: W
LayerCount: 2
Fore
SplineSet
358 -161 m 1,0,-1
 358 -81 l 1,1,-1
 59 -81 l 1,2,-1
 59 -161 l 1,3,-1
 358 -161 l 1,0,-1
EndSplineSet
EndChar

StartChar: uni0335
Encoding: 821 821 414
Width: 388
GlyphClass: 1
Flags: W
LayerCount: 2
Fore
SplineSet
338 254 m 1,0,-1
 338 331 l 1,1,-1
 50 331 l 1,2,-1
 50 254 l 1,3,-1
 338 254 l 1,0,-1
EndSplineSet
EndChar

StartChar: tonos
Encoding: 900 900 416
Width: 200
GlyphClass: 1
Flags: W
LayerCount: 2
Fore
SplineSet
67 817 m 1,0,-1
 42 580 l 1,1,-1
 111 569 l 1,2,-1
 159 797 l 1,3,-1
 67 817 l 1,0,-1
EndSplineSet
EndChar

StartChar: dieresistonos
Encoding: 901 901 417
Width: 505
GlyphClass: 1
Flags: W
LayerCount: 2
Fore
SplineSet
27 652 m 0,0,1
 27 621 27 621 48.5 599.5 c 128,-1,2
 70 578 70 578 101 578 c 0,3,4
 133 578 133 578 153.5 599.5 c 128,-1,5
 174 621 174 621 174 652 c 0,6,7
 174 685 174 685 154 705.5 c 128,-1,8
 134 726 134 726 101 726 c 0,9,10
 70 726 70 726 48.5 705.5 c 128,-1,11
 27 685 27 685 27 652 c 0,0,1
331 652 m 0,12,13
 332 621 332 621 353.5 599.5 c 128,-1,14
 375 578 375 578 406 578 c 0,15,16
 438 578 438 578 458.5 599.5 c 128,-1,17
 479 621 479 621 479 652 c 0,18,19
 479 685 479 685 458.5 705.5 c 128,-1,20
 438 726 438 726 406 726 c 0,21,22
 375 726 375 726 353.5 705.5 c 128,-1,23
 332 685 332 685 331 652 c 0,12,13
233 825 m 1,24,-1
 207 588 l 1,25,-1
 276 578 l 1,26,-1
 325 806 l 1,27,-1
 233 825 l 1,24,-1
EndSplineSet
EndChar

StartChar: Alphatonos
Encoding: 902 902 418
Width: 673
GlyphClass: 1
Flags: W
LayerCount: 2
Fore
SplineSet
5 0 m 1,0,-1
 142 0 l 1,1,-1
 209 180 l 1,2,-1
 463 180 l 1,3,-1
 531 0 l 1,4,-1
 668 0 l 1,5,-1
 403 710 l 1,6,-1
 271 710 l 1,7,-1
 5 0 l 1,0,-1
231 274 m 1,8,-1
 337 571 l 1,9,-1
 439 274 l 1,10,-1
 231 274 l 1,8,-1
165 897 m 1,11,-1
 74 672 l 1,12,-1
 142 641 l 1,13,-1
 263 828 l 1,14,-1
 165 897 l 1,11,-1
EndSplineSet
EndChar

StartChar: Epsilontonos
Encoding: 904 904 420
Width: 677
GlyphClass: 1
Flags: W
LayerCount: 2
Fore
SplineSet
282 116 m 1,0,-1
 282 308 l 1,1,-1
 585 308 l 1,2,-1
 585 416 l 1,3,-1
 282 416 l 1,4,-1
 282 594 l 1,5,-1
 633 594 l 1,6,-1
 633 710 l 1,7,-1
 150 710 l 1,8,-1
 150 0 l 1,9,-1
 642 0 l 1,10,-1
 642 116 l 1,11,-1
 282 116 l 1,0,-1
140 972 m 1,12,-1
 49 746 l 1,13,-1
 118 716 l 1,14,-1
 239 903 l 1,15,-1
 140 972 l 1,12,-1
EndSplineSet
EndChar

StartChar: Etatonos
Encoding: 905 905 421
Width: 809
GlyphClass: 1
Flags: W
LayerCount: 2
Fore
SplineSet
612 710 m 1,0,-1
 612 421 l 1,1,-1
 282 421 l 1,2,-1
 282 710 l 1,3,-1
 150 710 l 1,4,-1
 150 0 l 1,5,-1
 282 0 l 1,6,-1
 282 305 l 1,7,-1
 612 305 l 1,8,-1
 612 0 l 1,9,-1
 744 0 l 1,10,-1
 744 710 l 1,11,-1
 612 710 l 1,0,-1
72 893 m 1,12,-1
 -20 668 l 1,13,-1
 49 637 l 1,14,-1
 170 824 l 1,15,-1
 72 893 l 1,12,-1
EndSplineSet
EndChar

StartChar: Iotatonos
Encoding: 906 906 422
Width: 374
GlyphClass: 1
Flags: W
LayerCount: 2
Fore
SplineSet
276 0 m 1,0,-1
 276 710 l 1,1,-1
 144 710 l 1,2,-1
 144 0 l 1,3,-1
 276 0 l 1,0,-1
81 889 m 1,4,-1
 -11 664 l 1,5,-1
 58 633 l 1,6,-1
 179 820 l 1,7,-1
 81 889 l 1,4,-1
EndSplineSet
EndChar

StartChar: Omicrontonos
Encoding: 908 908 423
Width: 835
GlyphClass: 1
Flags: W
LayerCount: 2
Fore
SplineSet
413 -5 m 0,0,1
 488 -5 488 -5 551.5 24.5 c 128,-1,2
 615 54 615 54 661 103.5 c 128,-1,3
 707 153 707 153 733 218 c 128,-1,4
 759 283 759 283 759 353 c 0,5,6
 759 421 759 421 734.5 485.5 c 128,-1,7
 710 550 710 550 664.5 601 c 128,-1,8
 619 652 619 652 556 683.5 c 128,-1,9
 493 715 493 715 416 715 c 0,10,11
 341 715 341 715 277.5 685.5 c 128,-1,12
 214 656 214 656 167.5 606 c 128,-1,13
 121 556 121 556 95 491 c 128,-1,14
 69 426 69 426 69 355 c 0,15,16
 69 287 69 287 94 222 c 128,-1,17
 119 157 119 157 164 106.5 c 128,-1,18
 209 56 209 56 272.5 25.5 c 128,-1,19
 336 -5 336 -5 413 -5 c 0,0,1
203 355 m 0,20,21
 203 400 203 400 217 443.5 c 128,-1,22
 231 487 231 487 258 521 c 128,-1,23
 285 555 285 555 324 575.5 c 128,-1,24
 363 596 363 596 414 596 c 0,25,26
 463 596 463 596 502 576 c 128,-1,27
 541 556 541 556 568.5 523 c 128,-1,28
 596 490 596 490 610.5 446 c 128,-1,29
 625 402 625 402 625 355 c 0,30,31
 625 311 625 311 611.5 267.5 c 128,-1,32
 598 224 598 224 571 189.5 c 128,-1,33
 544 155 544 155 505 133.5 c 128,-1,34
 466 112 466 112 415 112 c 0,35,36
 365 112 365 112 325.5 132.5 c 128,-1,37
 286 153 286 153 259 186.5 c 128,-1,38
 232 220 232 220 217.5 264 c 128,-1,39
 203 308 203 308 203 355 c 0,20,21
90 889 m 1,40,-1
 -2 664 l 1,41,-1
 67 633 l 1,42,-1
 188 820 l 1,43,-1
 90 889 l 1,40,-1
EndSplineSet
EndChar

StartChar: Upsilontonos
Encoding: 910 910 424
Width: 714
GlyphClass: 1
Flags: W
LayerCount: 2
Fore
SplineSet
330 0 m 1,0,-1
 453 0 l 1,1,-1
 453 233 l 2,2,3
 453 301 453 301 473.5 358 c 128,-1,4
 494 415 494 415 526 465 c 128,-1,5
 558 515 558 515 597.5 559 c 128,-1,6
 637 603 637 603 677 645 c 1,7,-1
 587 712 l 1,8,9
 544 670 544 670 512 635 c 128,-1,10
 480 600 480 600 457 567.5 c 128,-1,11
 434 535 434 535 418.5 501 c 128,-1,12
 403 467 403 467 393 427 c 1,13,-1
 388 427 l 1,14,15
 378 467 378 467 362.5 501.5 c 128,-1,16
 347 536 347 536 324.5 568.5 c 128,-1,17
 302 601 302 601 270.5 636 c 128,-1,18
 239 671 239 671 196 712 c 1,19,-1
 106 645 l 1,20,21
 144 605 144 605 183.5 562.5 c 128,-1,22
 223 520 223 520 256 470 c 128,-1,23
 289 420 289 420 309.5 361.5 c 128,-1,24
 330 303 330 303 330 233 c 2,25,-1
 330 0 l 1,0,-1
86 889 m 1,26,-1
 -5 664 l 1,27,-1
 63 633 l 1,28,-1
 184 820 l 1,29,-1
 86 889 l 1,26,-1
EndSplineSet
EndChar

StartChar: Omegatonos
Encoding: 911 911 425
Width: 718
GlyphClass: 1
Flags: W
LayerCount: 2
Fore
SplineSet
40 0 m 1,0,-1
 316 0 l 1,1,-1
 316 210 l 1,2,3
 284 220 284 220 258 238.5 c 128,-1,4
 232 257 232 257 213.5 283.5 c 128,-1,5
 195 310 195 310 185.5 342 c 128,-1,6
 176 374 176 374 176 410 c 0,7,8
 176 450 176 450 189.5 484.5 c 128,-1,9
 203 519 203 519 227 544 c 128,-1,10
 251 569 251 569 284 583.5 c 128,-1,11
 317 598 317 598 356 598 c 0,12,13
 396 598 396 598 429 583.5 c 128,-1,14
 462 569 462 569 486 544 c 128,-1,15
 510 519 510 519 523.5 485 c 128,-1,16
 537 451 537 451 537 411 c 0,17,18
 537 373 537 373 526.5 340 c 128,-1,19
 516 307 516 307 496.5 280.5 c 128,-1,20
 477 254 477 254 451 235.5 c 128,-1,21
 425 217 425 217 394 210 c 1,22,-1
 394 0 l 1,23,-1
 673 0 l 1,24,-1
 673 109 l 1,25,-1
 431 109 l 1,26,-1
 491 61 l 1,27,-1
 491 188 l 1,28,-1
 449 125 l 1,29,30
 497 138 497 138 537 164.5 c 128,-1,31
 577 191 577 191 605.5 229 c 128,-1,32
 634 267 634 267 650.5 314.5 c 128,-1,33
 667 362 667 362 667 415 c 0,34,35
 667 480 667 480 643 535 c 128,-1,36
 619 590 619 590 577 630.5 c 128,-1,37
 535 671 535 671 478 693.5 c 128,-1,38
 421 716 421 716 355 716 c 256,39,40
 289 716 289 716 232.5 693 c 128,-1,41
 176 670 176 670 134.5 630 c 128,-1,42
 93 590 93 590 70 534.5 c 128,-1,43
 47 479 47 479 47 413 c 0,44,45
 47 362 47 362 62 315.5 c 128,-1,46
 77 269 77 269 104.5 230.5 c 128,-1,47
 132 192 132 192 171 164 c 128,-1,48
 210 136 210 136 259 123 c 1,49,-1
 222 188 l 1,50,-1
 222 61 l 1,51,-1
 283 109 l 1,52,-1
 41 109 l 1,53,-1
 40 0 l 1,0,-1
77 889 m 1,54,-1
 -15 664 l 1,55,-1
 54 633 l 1,56,-1
 175 820 l 1,57,-1
 77 889 l 1,54,-1
EndSplineSet
EndChar

StartChar: iotadieresistonos
Encoding: 912 912 426
Width: 385
GlyphClass: 1
Flags: W
LayerCount: 2
Fore
SplineSet
233 -8 m 0,0,1
 255 -8 255 -8 277 -4.5 c 128,-1,2
 299 -1 299 -1 317 8 c 1,3,-1
 298 115 l 1,4,5
 289 111 289 111 278 107.5 c 128,-1,6
 267 104 267 104 258 103 c 0,7,8
 241 104 241 104 232.5 119.5 c 128,-1,9
 224 135 224 135 224 185 c 0,10,11
 224 208 224 208 225.5 248.5 c 128,-1,12
 227 289 227 289 229 335.5 c 128,-1,13
 231 382 231 382 233.5 431 c 128,-1,14
 236 480 236 480 237 520 c 1,15,-1
 117 520 l 1,16,17
 117 466 117 466 116 417 c 128,-1,18
 115 368 115 368 115 322 c 128,-1,19
 115 276 115 276 114.5 231 c 128,-1,20
 114 186 114 186 114 141 c 0,21,22
 114 103 114 103 122.5 75 c 128,-1,23
 131 47 131 47 146 28.5 c 128,-1,24
 161 10 161 10 183.5 1 c 128,-1,25
 206 -8 206 -8 233 -8 c 0,0,1
-49 661 m 0,26,27
 -49 630 -49 630 -28 608.5 c 128,-1,28
 -7 587 -7 587 24 587 c 0,29,30
 57 587 57 587 77 608.5 c 128,-1,31
 97 630 97 630 97 661 c 0,32,33
 97 693 97 693 77 713 c 128,-1,34
 57 733 57 733 24 733 c 0,35,36
 -7 733 -7 733 -28 713 c 128,-1,37
 -49 693 -49 693 -49 661 c 0,26,27
253 661 m 0,38,39
 254 630 254 630 275 608.5 c 128,-1,40
 296 587 296 587 327 587 c 0,41,42
 359 587 359 587 379.5 608.5 c 128,-1,43
 400 630 400 630 400 661 c 0,44,45
 400 693 400 693 379.5 713 c 128,-1,46
 359 733 359 733 327 733 c 0,47,48
 296 733 296 733 275 713 c 128,-1,49
 254 693 254 693 253 661 c 0,38,39
155 832 m 1,50,-1
 130 597 l 1,51,-1
 198 587 l 1,52,-1
 247 813 l 1,53,-1
 155 832 l 1,50,-1
EndSplineSet
EndChar

StartChar: Gamma
Encoding: 915 915 429
Width: 499
GlyphClass: 1
Flags: W
LayerCount: 2
Fore
SplineSet
564 708 m 1,0,-1
 564 594 l 1,1,-1
 204 594 l 1,2,-1
 204 10 l 1,3,-1
 74 10 l 1,4,-1
 74 708 l 1,5,-1
 564 708 l 1,0,-1
EndSplineSet
EndChar

StartChar: uni0394
Encoding: 916 916 430
Width: 649
GlyphClass: 1
Flags: W
LayerCount: 2
Fore
SplineSet
11 0 m 1,0,-1
 638 0 l 1,1,-1
 638 22 l 1,2,-1
 403 708 l 1,3,-1
 247 708 l 1,4,-1
 11 22 l 1,5,-1
 11 0 l 1,0,-1
156 103 m 1,6,-1
 255 381 l 1,7,-1
 323 602 l 1,8,-1
 327 602 l 1,9,-1
 396 381 l 1,10,-1
 491 103 l 1,11,-1
 156 103 l 1,6,-1
EndSplineSet
EndChar

StartChar: Theta
Encoding: 920 920 434
Width: 755
GlyphClass: 1
Flags: W
LayerCount: 2
Fore
SplineSet
226 299 m 1,0,-1
 520 299 l 1,1,-1
 520 411 l 1,2,-1
 226 411 l 1,3,-1
 226 299 l 1,0,-1
370 -5 m 0,4,5
 444 -5 444 -5 506 24 c 128,-1,6
 568 53 568 53 613.5 102 c 128,-1,7
 659 151 659 151 684.5 214.5 c 128,-1,8
 710 278 710 278 710 347 c 0,9,10
 710 414 710 414 685.5 477.5 c 128,-1,11
 661 541 661 541 617 591 c 128,-1,12
 573 641 573 641 510.5 672 c 128,-1,13
 448 703 448 703 373 703 c 0,14,15
 299 703 299 703 236.5 674 c 128,-1,16
 174 645 174 645 128.5 596 c 128,-1,17
 83 547 83 547 57.5 483 c 128,-1,18
 32 419 32 419 32 349 c 0,19,20
 32 282 32 282 56 218.5 c 128,-1,21
 80 155 80 155 124.5 105 c 128,-1,22
 169 55 169 55 231.5 25 c 128,-1,23
 294 -5 294 -5 370 -5 c 0,4,5
163 349 m 0,24,25
 163 393 163 393 177 435.5 c 128,-1,26
 191 478 191 478 217 511.5 c 128,-1,27
 243 545 243 545 282 565.5 c 128,-1,28
 321 586 321 586 371 586 c 0,29,30
 419 586 419 586 457.5 566.5 c 128,-1,31
 496 547 496 547 523 514 c 128,-1,32
 550 481 550 481 564.5 438.5 c 128,-1,33
 579 396 579 396 579 349 c 0,34,35
 579 306 579 306 565 263 c 128,-1,36
 551 220 551 220 524.5 186.5 c 128,-1,37
 498 153 498 153 459.5 132 c 128,-1,38
 421 111 421 111 372 111 c 256,39,40
 323 111 323 111 284 130.5 c 128,-1,41
 245 150 245 150 218.5 183.5 c 128,-1,42
 192 217 192 217 177.5 260 c 128,-1,43
 163 303 163 303 163 349 c 0,24,25
EndSplineSet
EndChar

StartChar: Lambda
Encoding: 923 923 437
Width: 676
GlyphClass: 1
Flags: W
LayerCount: 2
Fore
SplineSet
14 0 m 1,0,-1
 139 0 l 1,1,-1
 266 377 l 1,2,-1
 337 592 l 1,3,-1
 341 592 l 1,4,-1
 411 375 l 1,5,-1
 536 0 l 1,6,-1
 662 0 l 1,7,-1
 418 708 l 1,8,-1
 259 708 l 1,9,-1
 14 0 l 1,0,-1
EndSplineSet
EndChar

StartChar: Xi
Encoding: 926 926 440
Width: 644
GlyphClass: 1
Flags: W
LayerCount: 2
Fore
SplineSet
65 0 m 1,0,-1
 579 0 l 1,1,-1
 579 103 l 1,2,-1
 65 103 l 1,3,-1
 65 0 l 1,0,-1
137 303 m 1,4,-1
 506 303 l 1,5,-1
 506 405 l 1,6,-1
 137 405 l 1,7,-1
 137 303 l 1,4,-1
65 604 m 1,8,-1
 579 604 l 1,9,-1
 579 708 l 1,10,-1
 65 708 l 1,11,-1
 65 604 l 1,8,-1
EndSplineSet
EndChar

StartChar: Pi
Encoding: 928 928 442
Width: 657
GlyphClass: 1
Flags: W
LayerCount: 2
Fore
SplineSet
76 0 m 1,0,-1
 199 0 l 1,1,-1
 199 604 l 1,2,-1
 459 604 l 1,3,-1
 459 0 l 1,4,-1
 582 0 l 1,5,-1
 582 708 l 1,6,-1
 76 708 l 1,7,-1
 76 0 l 1,0,-1
EndSplineSet
EndChar

StartChar: Sigma
Encoding: 931 931 444
Width: 563
GlyphClass: 1
Flags: W
LayerCount: 2
Fore
SplineSet
50 0 m 1,0,-1
 518 0 l 1,1,-1
 518 103 l 1,2,-1
 217 103 l 1,3,-1
 411 361 l 1,4,-1
 220 604 l 1,5,-1
 496 604 l 1,6,-1
 496 708 l 1,7,-1
 53 708 l 1,8,-1
 53 633 l 1,9,-1
 281 359 l 1,10,-1
 50 73 l 1,11,-1
 50 0 l 1,0,-1
EndSplineSet
EndChar

StartChar: Upsilon
Encoding: 933 933 446
Width: 633
GlyphClass: 1
Flags: W
LayerCount: 2
Fore
SplineSet
255 0 m 1,0,-1
 378 0 l 1,1,-1
 378 233 l 2,2,3
 378 301 378 301 398.5 358 c 128,-1,4
 419 415 419 415 451 465 c 128,-1,5
 483 515 483 515 522.5 559 c 128,-1,6
 562 603 562 603 602 645 c 1,7,-1
 512 712 l 1,8,9
 469 670 469 670 437 635 c 128,-1,10
 405 600 405 600 382 567.5 c 128,-1,11
 359 535 359 535 343.5 501 c 128,-1,12
 328 467 328 467 318 427 c 1,13,-1
 313 427 l 1,14,15
 303 467 303 467 287.5 501.5 c 128,-1,16
 272 536 272 536 249.5 568.5 c 128,-1,17
 227 601 227 601 195.5 636 c 128,-1,18
 164 671 164 671 121 712 c 1,19,-1
 31 645 l 1,20,21
 69 605 69 605 108.5 562.5 c 128,-1,22
 148 520 148 520 181 470 c 128,-1,23
 214 420 214 420 234.5 361.5 c 128,-1,24
 255 303 255 303 255 233 c 2,25,-1
 255 0 l 1,0,-1
EndSplineSet
EndChar

StartChar: Phi
Encoding: 934 934 447
Width: 743
GlyphClass: 1
Flags: W
LayerCount: 2
Fore
SplineSet
350 174 m 1,0,1
 309 174 309 174 273.5 187.5 c 128,-1,2
 238 201 238 201 213 225 c 128,-1,3
 188 249 188 249 173.5 282.5 c 128,-1,4
 159 316 159 316 159 355 c 0,5,6
 159 395 159 395 173.5 428 c 128,-1,7
 188 461 188 461 213 485 c 128,-1,8
 238 509 238 509 273.5 522 c 128,-1,9
 309 535 309 535 350 535 c 1,10,-1
 350 637 l 1,11,12
 283 637 283 637 226.5 616.5 c 128,-1,13
 170 596 170 596 129.5 559 c 128,-1,14
 89 522 89 522 67 470 c 128,-1,15
 45 418 45 418 45 355 c 0,16,17
 45 293 45 293 67 241 c 128,-1,18
 89 189 89 189 129.5 152 c 128,-1,19
 170 115 170 115 226.5 94 c 128,-1,20
 283 73 283 73 350 73 c 1,21,-1
 350 174 l 1,0,1
430 -31 m 1,22,-1
 430 738 l 1,23,-1
 315 738 l 1,24,-1
 315 -31 l 1,25,-1
 430 -31 l 1,22,-1
398 73 m 1,26,27
 466 73 466 73 522 94 c 128,-1,28
 578 115 578 115 618 152 c 128,-1,29
 658 189 658 189 679.5 241 c 128,-1,30
 701 293 701 293 701 355 c 0,31,32
 701 418 701 418 679.5 470 c 128,-1,33
 658 522 658 522 618 559 c 128,-1,34
 578 596 578 596 522 616.5 c 128,-1,35
 466 637 466 637 398 637 c 1,36,-1
 398 535 l 1,37,38
 440 535 440 535 474.5 522 c 128,-1,39
 509 509 509 509 533.5 485 c 128,-1,40
 558 461 558 461 572 428 c 128,-1,41
 586 395 586 395 586 355 c 0,42,43
 586 316 586 316 572 282.5 c 128,-1,44
 558 249 558 249 533.5 225 c 128,-1,45
 509 201 509 201 474.5 187.5 c 128,-1,46
 440 174 440 174 398 174 c 1,47,-1
 398 73 l 1,26,27
EndSplineSet
EndChar

StartChar: Psi
Encoding: 936 936 449
Width: 777
GlyphClass: 1
Flags: W
LayerCount: 2
Fore
SplineSet
331 0 m 1,0,-1
 447 0 l 1,1,-1
 447 708 l 1,2,-1
 331 708 l 1,3,-1
 331 0 l 1,0,-1
77 437 m 2,4,5
 77 381 77 381 92.5 333.5 c 128,-1,6
 108 286 108 286 141.5 251 c 128,-1,7
 175 216 175 216 228 196.5 c 128,-1,8
 281 177 281 177 355 176 c 1,9,-1
 350 272 l 1,10,11
 305 272 305 272 274.5 284.5 c 128,-1,12
 244 297 244 297 225.5 318 c 128,-1,13
 207 339 207 339 198.5 367.5 c 128,-1,14
 190 396 190 396 190 429 c 0,15,16
 190 443 190 443 190.5 461 c 128,-1,17
 191 479 191 479 191.5 499 c 128,-1,18
 192 519 192 519 192.5 540 c 128,-1,19
 193 561 193 561 192 581 c 0,20,21
 194 617 194 617 192.5 651.5 c 128,-1,22
 191 686 191 686 182 708 c 1,23,-1
 64 708 l 1,24,25
 70 685 70 685 72.5 663.5 c 128,-1,26
 75 642 75 642 76 622.5 c 128,-1,27
 77 603 77 603 77 585 c 128,-1,28
 77 567 77 567 77 551 c 2,29,-1
 77 437 l 2,4,5
699 551 m 2,30,31
 699 569 699 569 699 587 c 128,-1,32
 699 605 699 605 700.5 624.5 c 128,-1,33
 702 644 702 644 704.5 664.5 c 128,-1,34
 707 685 707 685 711 708 c 1,35,-1
 594 708 l 1,36,37
 586 686 586 686 584.5 651.5 c 128,-1,38
 583 617 583 617 583 581 c 0,39,40
 583 561 583 561 583.5 540 c 128,-1,41
 584 519 584 519 584 499 c 128,-1,42
 584 479 584 479 584.5 461 c 128,-1,43
 585 443 585 443 585 429 c 0,44,45
 585 397 585 397 577.5 368 c 128,-1,46
 570 339 570 339 551.5 318 c 128,-1,47
 533 297 533 297 503 284.5 c 128,-1,48
 473 272 473 272 429 272 c 1,49,-1
 423 176 l 1,50,51
 498 177 498 177 550.5 197 c 128,-1,52
 603 217 603 217 636 252 c 128,-1,53
 669 287 669 287 684 334.5 c 128,-1,54
 699 382 699 382 699 437 c 2,55,-1
 699 551 l 2,30,31
EndSplineSet
EndChar

StartChar: uni03A9
Encoding: 937 937 450
Width: 712
GlyphClass: 1
Flags: W
LayerCount: 2
Fore
SplineSet
40 0 m 1,0,-1
 316 0 l 1,1,-1
 316 210 l 1,2,3
 284 220 284 220 258 238.5 c 128,-1,4
 232 257 232 257 213.5 283.5 c 128,-1,5
 195 310 195 310 185.5 342 c 128,-1,6
 176 374 176 374 176 410 c 0,7,8
 176 450 176 450 189.5 484.5 c 128,-1,9
 203 519 203 519 227 544 c 128,-1,10
 251 569 251 569 284 583.5 c 128,-1,11
 317 598 317 598 356 598 c 0,12,13
 396 598 396 598 429 583.5 c 128,-1,14
 462 569 462 569 486 544 c 128,-1,15
 510 519 510 519 523.5 485 c 128,-1,16
 537 451 537 451 537 411 c 0,17,18
 537 373 537 373 526.5 340 c 128,-1,19
 516 307 516 307 496.5 280.5 c 128,-1,20
 477 254 477 254 451 235.5 c 128,-1,21
 425 217 425 217 394 210 c 1,22,-1
 394 0 l 1,23,-1
 673 0 l 1,24,-1
 673 109 l 1,25,-1
 431 109 l 1,26,-1
 491 61 l 1,27,-1
 491 188 l 1,28,-1
 449 125 l 1,29,30
 497 138 497 138 537 164.5 c 128,-1,31
 577 191 577 191 605.5 229 c 128,-1,32
 634 267 634 267 650.5 314.5 c 128,-1,33
 667 362 667 362 667 415 c 0,34,35
 667 480 667 480 643 535 c 128,-1,36
 619 590 619 590 577 630.5 c 128,-1,37
 535 671 535 671 478 693.5 c 128,-1,38
 421 716 421 716 355 716 c 256,39,40
 289 716 289 716 232.5 693 c 128,-1,41
 176 670 176 670 134.5 630 c 128,-1,42
 93 590 93 590 70 534.5 c 128,-1,43
 47 479 47 479 47 413 c 0,44,45
 47 362 47 362 62 315.5 c 128,-1,46
 77 269 77 269 104.5 230.5 c 128,-1,47
 132 192 132 192 171 164 c 128,-1,48
 210 136 210 136 259 123 c 1,49,-1
 222 188 l 1,50,-1
 222 61 l 1,51,-1
 283 109 l 1,52,-1
 41 109 l 1,53,-1
 40 0 l 1,0,-1
EndSplineSet
EndChar

StartChar: Iotadieresis
Encoding: 938 938 451
Width: 340
GlyphClass: 1
Flags: W
LayerCount: 2
Fore
SplineSet
204 0 m 1,0,-1
 204 698 l 1,1,-1
 74 698 l 1,2,-1
 74 0 l 1,3,-1
 204 0 l 1,0,-1
11 837 m 0,4,5
 11 808 11 808 26.5 787.5 c 128,-1,6
 42 767 42 767 66 767 c 0,7,8
 88 767 88 767 104 787.5 c 128,-1,9
 120 808 120 808 120 837 c 0,10,11
 120 867 120 867 104 887 c 128,-1,12
 88 907 88 907 66 907 c 0,13,14
 42 907 42 907 26.5 887 c 128,-1,15
 11 867 11 867 11 837 c 0,4,5
157 837 m 0,16,17
 157 808 157 808 173 787.5 c 128,-1,18
 189 767 189 767 212 767 c 256,19,20
 235 767 235 767 250.5 787.5 c 128,-1,21
 266 808 266 808 266 837 c 0,22,23
 266 867 266 867 250.5 887 c 128,-1,24
 235 907 235 907 212 907 c 256,25,26
 189 907 189 907 173 887 c 128,-1,27
 157 867 157 867 157 837 c 0,16,17
EndSplineSet
EndChar

StartChar: alphatonos
Encoding: 940 940 453
Width: 654
GlyphClass: 1
Flags: W
LayerCount: 2
Fore
SplineSet
404 248 m 2,0,1
 397 227 397 227 388.5 201.5 c 128,-1,2
 380 176 380 176 365 154.5 c 128,-1,3
 350 133 350 133 328 119 c 128,-1,4
 306 105 306 105 272 105 c 0,5,6
 246 105 246 105 223 114.5 c 128,-1,7
 200 124 200 124 183.5 143.5 c 128,-1,8
 167 163 167 163 157 191.5 c 128,-1,9
 147 220 147 220 146 258 c 0,10,11
 147 298 147 298 157.5 328 c 128,-1,12
 168 358 168 358 184.5 378 c 128,-1,13
 201 398 201 398 222.5 408 c 128,-1,14
 244 418 244 418 265 418 c 256,15,16
 286 418 286 418 302.5 410 c 128,-1,17
 319 402 319 402 333.5 388 c 128,-1,18
 348 374 348 374 359.5 355 c 128,-1,19
 371 336 371 336 380 313.5 c 128,-1,20
 389 291 389 291 395.5 266 c 128,-1,21
 402 241 402 241 406 215 c 1,22,-1
 458 307 l 1,23,24
 450 356 450 356 431.5 397.5 c 128,-1,25
 413 439 413 439 386.5 468.5 c 128,-1,26
 360 498 360 498 325.5 514 c 128,-1,27
 291 530 291 530 251 530 c 0,28,29
 206 530 206 530 166.5 509.5 c 128,-1,30
 127 489 127 489 99 452.5 c 128,-1,31
 71 416 71 416 55 366 c 128,-1,32
 39 316 39 316 39 258 c 256,33,34
 39 200 39 200 55.5 151 c 128,-1,35
 72 102 72 102 102 67 c 128,-1,36
 132 32 132 32 172.5 12 c 128,-1,37
 213 -8 213 -8 260 -8 c 0,38,39
 302 -8 302 -8 337.5 6.5 c 128,-1,40
 373 21 373 21 402 47 c 128,-1,41
 431 73 431 73 452.5 108 c 128,-1,42
 474 143 474 143 487 184 c 2,43,-1
 599 522 l 1,44,-1
 489 522 l 1,45,-1
 404 248 l 2,0,1
611 95 m 1,46,-1
 588 105 l 2,47,48
 578 110 578 110 566.5 117.5 c 128,-1,49
 555 125 555 125 542.5 138 c 128,-1,50
 530 151 530 151 517 170 c 128,-1,51
 504 189 504 189 492 217 c 1,52,-1
 432 136 l 1,53,54
 436 105 436 105 445 82.5 c 128,-1,55
 454 60 454 60 467.5 43.5 c 128,-1,56
 481 27 481 27 497.5 16 c 128,-1,57
 514 5 514 5 533 -3 c 2,58,-1
 550 -8 l 1,59,-1
 611 95 l 1,46,-1
279 818 m 1,60,-1
 253 581 l 1,61,-1
 323 570 l 1,62,-1
 371 798 l 1,63,-1
 279 818 l 1,60,-1
EndSplineSet
EndChar

StartChar: epsilontonos
Encoding: 941 941 454
Width: 500
GlyphClass: 1
Flags: W
LayerCount: 2
Fore
SplineSet
431 126 m 1,0,1
 392 116 392 116 356 109 c 128,-1,2
 320 102 320 102 284 102 c 0,3,4
 227 102 227 102 195 119.5 c 128,-1,5
 163 137 163 137 163 166 c 0,6,7
 163 181 163 181 172.5 191 c 128,-1,8
 182 201 182 201 198.5 207 c 128,-1,9
 215 213 215 213 237 216 c 128,-1,10
 259 219 259 219 283 219 c 2,11,-1
 329 219 l 1,12,-1
 329 312 l 1,13,-1
 284 312 l 2,14,15
 262 312 262 312 243 316.5 c 128,-1,16
 224 321 224 321 210 327.5 c 128,-1,17
 196 334 196 334 188 344 c 128,-1,18
 180 354 180 354 180 366 c 0,19,20
 180 377 180 377 186 386 c 128,-1,21
 192 395 192 395 205 402 c 128,-1,22
 218 409 218 409 239.5 413 c 128,-1,23
 261 417 261 417 290 417 c 0,24,25
 308 417 308 417 325.5 415.5 c 128,-1,26
 343 414 343 414 360 411 c 128,-1,27
 377 408 377 408 391.5 404 c 128,-1,28
 406 400 406 400 417 395 c 1,29,-1
 450 505 l 1,30,31
 431 514 431 514 411 519.5 c 128,-1,32
 391 525 391 525 371 527.5 c 128,-1,33
 351 530 351 530 331.5 530.5 c 128,-1,34
 312 531 312 531 295 530 c 0,35,36
 240 531 240 531 198 520.5 c 128,-1,37
 156 510 156 510 127.5 490.5 c 128,-1,38
 99 471 99 471 84.5 444.5 c 128,-1,39
 70 418 70 418 70 387 c 0,40,41
 70 367 70 367 76.5 348.5 c 128,-1,42
 83 330 83 330 93 315 c 128,-1,43
 103 300 103 300 116 289.5 c 128,-1,44
 129 279 129 279 144 274 c 1,45,-1
 144 274 l 1,46,47
 125 268 125 268 108 255 c 128,-1,48
 91 242 91 242 78 225 c 128,-1,49
 65 208 65 208 57.5 187 c 128,-1,50
 50 166 50 166 50 143 c 0,51,52
 50 108 50 108 68 79.5 c 128,-1,53
 86 51 86 51 117.5 31 c 128,-1,54
 149 11 149 11 191.5 0.5 c 128,-1,55
 234 -10 234 -10 284 -10 c 0,56,57
 307 -10 307 -10 331.5 -8.5 c 128,-1,58
 356 -7 356 -7 379 -3.5 c 128,-1,59
 402 0 402 0 423 4 c 128,-1,60
 444 8 444 8 459 13 c 1,61,-1
 431 126 l 1,0,1
273 862 m 1,62,-1
 247 625 l 1,63,-1
 317 615 l 1,64,-1
 365 843 l 1,65,-1
 273 862 l 1,62,-1
EndSplineSet
EndChar

StartChar: etatonos
Encoding: 942 942 455
Width: 613
GlyphClass: 1
Flags: W
LayerCount: 2
Fore
SplineSet
181 0 m 1,0,1
 190 95 190 95 197.5 176 c 128,-1,2
 205 257 205 257 203 336 c 0,3,4
 204 374 204 374 198.5 404.5 c 128,-1,5
 193 435 193 435 179.5 458.5 c 128,-1,6
 166 482 166 482 144.5 500 c 128,-1,7
 123 518 123 518 93 530 c 1,8,-1
 31 428 l 1,9,10
 47 421 47 421 58 409 c 128,-1,11
 69 397 69 397 75 379 c 128,-1,12
 81 361 81 361 84 335.5 c 128,-1,13
 87 310 87 310 86 274 c 0,14,15
 87 214 87 214 80.5 143 c 128,-1,16
 74 72 74 72 65 0 c 1,17,-1
 181 0 l 1,0,1
490 -206 m 1,18,19
 500 -159 500 -159 508.5 -98 c 128,-1,20
 517 -37 517 -37 524 26.5 c 128,-1,21
 531 90 531 90 535 151 c 128,-1,22
 539 212 539 212 539 262 c 0,23,24
 538 404 538 404 500.5 467 c 128,-1,25
 463 530 463 530 380 530 c 0,26,27
 347 530 347 530 316 518.5 c 128,-1,28
 285 507 285 507 258.5 486.5 c 128,-1,29
 232 466 232 466 212 437 c 128,-1,30
 192 408 192 408 181 373 c 1,31,-1
 199 223 l 1,32,33
 203 261 203 261 215 294.5 c 128,-1,34
 227 328 227 328 245.5 353.5 c 128,-1,35
 264 379 264 379 287 394 c 128,-1,36
 310 409 310 409 336 409 c 0,37,38
 382 409 382 409 402.5 367.5 c 128,-1,39
 423 326 423 326 423 227 c 0,40,41
 423 190 423 190 420 145.5 c 128,-1,42
 417 101 417 101 411 47.5 c 128,-1,43
 405 -6 405 -6 395.5 -68 c 128,-1,44
 386 -130 386 -130 372 -202 c 1,45,-1
 490 -206 l 1,18,19
326 818 m 1,46,-1
 300 581 l 1,47,-1
 370 570 l 1,48,-1
 418 798 l 1,49,-1
 326 818 l 1,46,-1
EndSplineSet
EndChar

StartChar: iotatonos
Encoding: 943 943 456
Width: 316
GlyphClass: 1
Flags: W
LayerCount: 2
Fore
SplineSet
192 -8 m 0,0,1
 214 -8 214 -8 236.5 -4.5 c 128,-1,2
 259 -1 259 -1 277 8 c 1,3,-1
 258 116 l 1,4,5
 249 111 249 111 238 108 c 128,-1,6
 227 105 227 105 217 104 c 0,7,8
 201 105 201 105 192.5 120.5 c 128,-1,9
 184 136 184 136 183 187 c 0,10,11
 183 210 183 210 184.5 250.5 c 128,-1,12
 186 291 186 291 188 338.5 c 128,-1,13
 190 386 190 386 192.5 435 c 128,-1,14
 195 484 195 484 196 524 c 1,15,-1
 76 524 l 1,16,17
 75 470 75 470 74 420.5 c 128,-1,18
 73 371 73 371 72.5 324.5 c 128,-1,19
 72 278 72 278 72 233 c 128,-1,20
 72 188 72 188 72 142 c 0,21,22
 72 104 72 104 80.5 75.5 c 128,-1,23
 89 47 89 47 104.5 28.5 c 128,-1,24
 120 10 120 10 142.5 1 c 128,-1,25
 165 -8 165 -8 192 -8 c 0,0,1
124 831 m 1,26,-1
 98 593 l 1,27,-1
 168 583 l 1,28,-1
 216 811 l 1,29,-1
 124 831 l 1,26,-1
EndSplineSet
EndChar

StartChar: upsilondieresistonos
Encoding: 944 944 457
Width: 581
GlyphClass: 1
Flags: W
LayerCount: 2
Fore
SplineSet
73 183 m 0,0,1
 73 134 73 134 89.5 98.5 c 128,-1,2
 106 63 106 63 135 39 c 128,-1,3
 164 15 164 15 203.5 3.5 c 128,-1,4
 243 -8 243 -8 288 -8 c 0,5,6
 344 -8 344 -8 388 10 c 128,-1,7
 432 28 432 28 462.5 64.5 c 128,-1,8
 493 101 493 101 509 155.5 c 128,-1,9
 525 210 525 210 525 283 c 0,10,11
 525 310 525 310 525 342 c 128,-1,12
 525 374 525 374 522.5 406.5 c 128,-1,13
 520 439 520 439 517 469.5 c 128,-1,14
 514 500 514 500 508 524 c 1,15,-1
 393 524 l 1,16,17
 399 488 399 488 402.5 455 c 128,-1,18
 406 422 406 422 408 391.5 c 128,-1,19
 410 361 410 361 410.5 333.5 c 128,-1,20
 411 306 411 306 410 285 c 0,21,22
 412 186 412 186 380.5 144.5 c 128,-1,23
 349 103 349 103 287 102 c 0,24,25
 265 102 265 102 246 107.5 c 128,-1,26
 227 113 227 113 214 124.5 c 128,-1,27
 201 136 201 136 193.5 154.5 c 128,-1,28
 186 173 186 173 185 199 c 0,29,30
 186 209 186 209 186.5 223.5 c 128,-1,31
 187 238 187 238 188 255.5 c 128,-1,32
 189 273 189 273 190 294 c 128,-1,33
 191 315 191 315 191 339 c 0,34,35
 191 374 191 374 189.5 400 c 128,-1,36
 188 426 188 426 184.5 447.5 c 128,-1,37
 181 469 181 469 177 487 c 128,-1,38
 173 505 173 505 167 524 c 1,39,-1
 55 524 l 1,40,41
 63 492 63 492 71 449 c 128,-1,42
 79 406 79 406 79 340 c 0,43,44
 79 318 79 318 78 295 c 128,-1,45
 77 272 77 272 76 251 c 128,-1,46
 75 230 75 230 74 212.5 c 128,-1,47
 73 195 73 195 73 183 c 0,0,1
46 653 m 0,48,49
 46 622 46 622 67.5 600.5 c 128,-1,50
 89 579 89 579 120 579 c 0,51,52
 153 579 153 579 173.5 600.5 c 128,-1,53
 194 622 194 622 194 653 c 0,54,55
 194 686 194 686 173.5 706.5 c 128,-1,56
 153 727 153 727 120 727 c 0,57,58
 89 727 89 727 67.5 706.5 c 128,-1,59
 46 686 46 686 46 653 c 0,48,49
351 653 m 0,60,61
 352 622 352 622 373.5 600.5 c 128,-1,62
 395 579 395 579 427 579 c 0,63,64
 458 579 458 579 479 600.5 c 128,-1,65
 500 622 500 622 500 653 c 0,66,67
 500 686 500 686 479 706.5 c 128,-1,68
 458 727 458 727 427 727 c 0,69,70
 395 727 395 727 373.5 706.5 c 128,-1,71
 352 686 352 686 351 653 c 0,60,61
253 826 m 1,72,-1
 227 589 l 1,73,-1
 296 579 l 1,74,-1
 345 807 l 1,75,-1
 253 826 l 1,72,-1
EndSplineSet
EndChar

StartChar: alpha
Encoding: 945 945 458
Width: 635
GlyphClass: 1
Flags: W
LayerCount: 2
Fore
SplineSet
404 248 m 2,0,1
 397 227 397 227 388.5 201.5 c 128,-1,2
 380 176 380 176 365 154.5 c 128,-1,3
 350 133 350 133 328 119 c 128,-1,4
 306 105 306 105 272 105 c 0,5,6
 246 105 246 105 223 114.5 c 128,-1,7
 200 124 200 124 183.5 143.5 c 128,-1,8
 167 163 167 163 157 191.5 c 128,-1,9
 147 220 147 220 146 258 c 0,10,11
 147 298 147 298 157.5 328 c 128,-1,12
 168 358 168 358 184.5 378 c 128,-1,13
 201 398 201 398 222.5 408 c 128,-1,14
 244 418 244 418 265 418 c 256,15,16
 286 418 286 418 302.5 410 c 128,-1,17
 319 402 319 402 333.5 388 c 128,-1,18
 348 374 348 374 359.5 355 c 128,-1,19
 371 336 371 336 380 313.5 c 128,-1,20
 389 291 389 291 395.5 266 c 128,-1,21
 402 241 402 241 406 215 c 1,22,-1
 458 307 l 1,23,24
 450 356 450 356 431.5 397.5 c 128,-1,25
 413 439 413 439 386.5 468.5 c 128,-1,26
 360 498 360 498 325.5 514 c 128,-1,27
 291 530 291 530 251 530 c 0,28,29
 206 530 206 530 166.5 509.5 c 128,-1,30
 127 489 127 489 99 452.5 c 128,-1,31
 71 416 71 416 55 366 c 128,-1,32
 39 316 39 316 39 258 c 256,33,34
 39 200 39 200 55.5 151 c 128,-1,35
 72 102 72 102 102 67 c 128,-1,36
 132 32 132 32 172.5 12 c 128,-1,37
 213 -8 213 -8 260 -8 c 0,38,39
 302 -8 302 -8 337.5 6.5 c 128,-1,40
 373 21 373 21 402 47 c 128,-1,41
 431 73 431 73 452.5 108 c 128,-1,42
 474 143 474 143 487 184 c 2,43,-1
 599 522 l 1,44,-1
 489 522 l 1,45,-1
 404 248 l 2,0,1
611 95 m 1,46,-1
 588 105 l 2,47,48
 578 110 578 110 566.5 117.5 c 128,-1,49
 555 125 555 125 542.5 138 c 128,-1,50
 530 151 530 151 517 170 c 128,-1,51
 504 189 504 189 492 217 c 1,52,-1
 432 136 l 1,53,54
 436 105 436 105 445 82.5 c 128,-1,55
 454 60 454 60 467.5 43.5 c 128,-1,56
 481 27 481 27 497.5 16 c 128,-1,57
 514 5 514 5 533 -3 c 2,58,-1
 550 -8 l 1,59,-1
 611 95 l 1,46,-1
EndSplineSet
EndChar

StartChar: beta
Encoding: 946 946 459
Width: 673
GlyphClass: 1
Flags: W
LayerCount: 2
Fore
SplineSet
178 45 m 1,0,1
 196 31 196 31 219.5 21 c 128,-1,2
 243 11 243 11 268.5 4.5 c 128,-1,3
 294 -2 294 -2 320 -5 c 128,-1,4
 346 -8 346 -8 369 -8 c 0,5,6
 423 -8 423 -8 468.5 10.5 c 128,-1,7
 514 29 514 29 547 61 c 128,-1,8
 580 93 580 93 598 134 c 128,-1,9
 616 175 616 175 616 220 c 0,10,11
 616 256 616 256 605.5 287.5 c 128,-1,12
 595 319 595 319 573.5 344.5 c 128,-1,13
 552 370 552 370 520.5 387.5 c 128,-1,14
 489 405 489 405 447 411 c 1,15,-1
 447 415 l 1,16,17
 471 429 471 429 489.5 448.5 c 128,-1,18
 508 468 508 468 520 490.5 c 128,-1,19
 532 513 532 513 539 539 c 128,-1,20
 546 565 546 565 546 591 c 0,21,22
 546 627 546 627 530 659 c 128,-1,23
 514 691 514 691 485.5 714.5 c 128,-1,24
 457 738 457 738 418 751.5 c 128,-1,25
 379 765 379 765 332 764 c 0,26,27
 272 765 272 765 226 742.5 c 128,-1,28
 180 720 180 720 148 680.5 c 128,-1,29
 116 641 116 641 99.5 586.5 c 128,-1,30
 83 532 83 532 83 467 c 2,31,-1
 83 -206 l 1,32,-1
 203 -206 l 1,33,34
 200 -114 200 -114 195 -51 c 128,-1,35
 190 12 190 12 185 49 c 1,36,-1
 187 137 l 2,37,38
 190 178 190 178 191 212.5 c 128,-1,39
 192 247 192 247 192.5 284.5 c 128,-1,40
 193 322 193 322 193 366.5 c 128,-1,41
 193 411 193 411 193 472 c 0,42,43
 193 514 193 514 202 548.5 c 128,-1,44
 211 583 211 583 227.5 608 c 128,-1,45
 244 633 244 633 268.5 646.5 c 128,-1,46
 293 660 293 660 326 660 c 0,47,48
 352 660 352 660 372 652 c 128,-1,49
 392 644 392 644 405.5 630.5 c 128,-1,50
 419 617 419 617 426.5 599.5 c 128,-1,51
 434 582 434 582 434 562 c 0,52,53
 434 540 434 540 424 519.5 c 128,-1,54
 414 499 414 499 395 482.5 c 128,-1,55
 376 466 376 466 349.5 454 c 128,-1,56
 323 442 323 442 289 436 c 1,57,-1
 289 354 l 1,58,59
 292 355 292 355 299 355.5 c 128,-1,60
 306 356 306 356 315 356.5 c 128,-1,61
 324 357 324 357 334 357.5 c 128,-1,62
 344 358 344 358 351 357 c 0,63,64
 387 358 387 358 416.5 348 c 128,-1,65
 446 338 446 338 467 321 c 128,-1,66
 488 304 488 304 500 280.5 c 128,-1,67
 512 257 512 257 512 229 c 256,68,69
 512 201 512 201 500 177 c 128,-1,70
 488 153 488 153 466.5 134.5 c 128,-1,71
 445 116 445 116 416 105.5 c 128,-1,72
 387 95 387 95 354 95 c 0,73,74
 336 95 336 95 313.5 99 c 128,-1,75
 291 103 291 103 267 110.5 c 128,-1,76
 243 118 243 118 219.5 130 c 128,-1,77
 196 142 196 142 176 158 c 1,78,-1
 178 45 l 1,0,1
EndSplineSet
EndChar

StartChar: gamma
Encoding: 947 947 460
Width: 595
GlyphClass: 1
Flags: W
LayerCount: 2
Fore
SplineSet
327 -206 m 1,0,1
 335 -96 335 -96 335 14.5 c 128,-1,2
 335 125 335 125 315.5 224.5 c 128,-1,3
 296 324 296 324 251.5 406 c 128,-1,4
 207 488 207 488 125 542 c 1,5,-1
 58 445 l 1,6,7
 99 420 99 420 128 378 c 128,-1,8
 157 336 157 336 175.5 283.5 c 128,-1,9
 194 231 194 231 204 170 c 128,-1,10
 214 109 214 109 217.5 45 c 128,-1,11
 221 -19 221 -19 220 -83.5 c 128,-1,12
 219 -148 219 -148 214 -206 c 1,13,-1
 327 -206 l 1,0,1
318 -2 m 1,14,15
 376 75 376 75 417 140.5 c 128,-1,16
 458 206 458 206 486.5 268 c 128,-1,17
 515 330 515 330 534.5 392 c 128,-1,18
 554 454 554 454 569 524 c 1,19,-1
 446 524 l 1,20,21
 439 470 439 470 424.5 416.5 c 128,-1,22
 410 363 410 363 390 313 c 128,-1,23
 370 263 370 263 345.5 219 c 128,-1,24
 321 175 321 175 294 139 c 1,25,-1
 318 -2 l 1,14,15
EndSplineSet
EndChar

StartChar: delta
Encoding: 948 948 461
Width: 608
GlyphClass: 1
Flags: W
LayerCount: 2
Fore
SplineSet
309 -8 m 0,0,1
 363 -8 363 -8 409 11 c 128,-1,2
 455 30 455 30 489.5 64 c 128,-1,3
 524 98 524 98 543 146.5 c 128,-1,4
 562 195 562 195 563 253 c 0,5,6
 562 310 562 310 544.5 353 c 128,-1,7
 527 396 527 396 501 428 c 128,-1,8
 475 460 475 460 444.5 482.5 c 128,-1,9
 414 505 414 505 387 521 c 0,10,11
 363 534 363 534 339 547 c 128,-1,12
 315 560 315 560 295.5 573.5 c 128,-1,13
 276 587 276 587 264 600.5 c 128,-1,14
 252 614 252 614 252 628 c 0,15,16
 251 643 251 643 266 651.5 c 128,-1,17
 281 660 281 660 310 660 c 0,18,19
 335 660 335 660 362.5 653.5 c 128,-1,20
 390 647 390 647 418.5 635.5 c 128,-1,21
 447 624 447 624 475 608.5 c 128,-1,22
 503 593 503 593 527 574 c 1,23,-1
 578 664 l 1,24,25
 557 681 557 681 527 699 c 128,-1,26
 497 717 497 717 461 731 c 128,-1,27
 425 745 425 745 385 753.5 c 128,-1,28
 345 762 345 762 302 761 c 0,29,30
 221 763 221 763 175 729.5 c 128,-1,31
 129 696 129 696 129 638 c 0,32,33
 129 603 129 603 145 577 c 128,-1,34
 161 551 161 551 186 529.5 c 128,-1,35
 211 508 211 508 242 490 c 128,-1,36
 273 472 273 472 303 454 c 0,37,38
 332 437 332 437 359.5 417.5 c 128,-1,39
 387 398 387 398 408.5 374.5 c 128,-1,40
 430 351 430 351 442.5 322 c 128,-1,41
 455 293 455 293 455 256 c 0,42,43
 455 221 455 221 443.5 193 c 128,-1,44
 432 165 432 165 411.5 145.5 c 128,-1,45
 391 126 391 126 364 115.5 c 128,-1,46
 337 105 337 105 307 105 c 0,47,48
 276 105 276 105 248.5 116 c 128,-1,49
 221 127 221 127 199.5 147 c 128,-1,50
 178 167 178 167 166 194 c 128,-1,51
 154 221 154 221 154 254 c 256,52,53
 154 287 154 287 166 316 c 128,-1,54
 178 345 178 345 199.5 366.5 c 128,-1,55
 221 388 221 388 250 400.5 c 128,-1,56
 279 413 279 413 312 413 c 0,57,58
 339 413 339 413 368.5 405 c 128,-1,59
 398 397 398 397 417 379 c 1,60,-1
 361 480 l 1,61,62
 347 488 347 488 322 493 c 128,-1,63
 297 498 297 498 272 499 c 0,64,65
 222 500 222 500 180.5 480.5 c 128,-1,66
 139 461 139 461 109.5 427.5 c 128,-1,67
 80 394 80 394 63.5 349.5 c 128,-1,68
 47 305 47 305 47 255 c 0,69,70
 47 202 47 202 66.5 154 c 128,-1,71
 86 106 86 106 120.5 70 c 128,-1,72
 155 34 155 34 203 13 c 128,-1,73
 251 -8 251 -8 309 -8 c 0,0,1
EndSplineSet
EndChar

StartChar: epsilon
Encoding: 949 949 462
Width: 494
GlyphClass: 1
Flags: W
LayerCount: 2
Fore
SplineSet
431 126 m 1,0,1
 392 116 392 116 356 109 c 128,-1,2
 320 102 320 102 284 102 c 0,3,4
 227 102 227 102 195 119.5 c 128,-1,5
 163 137 163 137 163 166 c 0,6,7
 163 181 163 181 172.5 191 c 128,-1,8
 182 201 182 201 198.5 207 c 128,-1,9
 215 213 215 213 237 216 c 128,-1,10
 259 219 259 219 283 219 c 2,11,-1
 329 219 l 1,12,-1
 329 312 l 1,13,-1
 284 312 l 2,14,15
 262 312 262 312 243 316.5 c 128,-1,16
 224 321 224 321 210 327.5 c 128,-1,17
 196 334 196 334 188 344 c 128,-1,18
 180 354 180 354 180 366 c 0,19,20
 180 377 180 377 186 386 c 128,-1,21
 192 395 192 395 205 402 c 128,-1,22
 218 409 218 409 239.5 413 c 128,-1,23
 261 417 261 417 290 417 c 0,24,25
 308 417 308 417 325.5 415.5 c 128,-1,26
 343 414 343 414 360 411 c 128,-1,27
 377 408 377 408 391.5 404 c 128,-1,28
 406 400 406 400 417 395 c 1,29,-1
 450 505 l 1,30,31
 431 514 431 514 411 519.5 c 128,-1,32
 391 525 391 525 371 527.5 c 128,-1,33
 351 530 351 530 331.5 530.5 c 128,-1,34
 312 531 312 531 295 530 c 0,35,36
 240 531 240 531 198 520.5 c 128,-1,37
 156 510 156 510 127.5 490.5 c 128,-1,38
 99 471 99 471 84.5 444.5 c 128,-1,39
 70 418 70 418 70 387 c 0,40,41
 70 367 70 367 76.5 348.5 c 128,-1,42
 83 330 83 330 93 315 c 128,-1,43
 103 300 103 300 116 289.5 c 128,-1,44
 129 279 129 279 144 274 c 1,45,-1
 144 274 l 1,46,47
 125 268 125 268 108 255 c 128,-1,48
 91 242 91 242 78 225 c 128,-1,49
 65 208 65 208 57.5 187 c 128,-1,50
 50 166 50 166 50 143 c 0,51,52
 50 108 50 108 68 79.5 c 128,-1,53
 86 51 86 51 117.5 31 c 128,-1,54
 149 11 149 11 191.5 0.5 c 128,-1,55
 234 -10 234 -10 284 -10 c 0,56,57
 307 -10 307 -10 331.5 -8.5 c 128,-1,58
 356 -7 356 -7 379 -3.5 c 128,-1,59
 402 0 402 0 423 4 c 128,-1,60
 444 8 444 8 459 13 c 1,61,-1
 431 126 l 1,0,1
EndSplineSet
EndChar

StartChar: zeta
Encoding: 950 950 463
Width: 518
GlyphClass: 1
Flags: W
LayerCount: 2
Fore
SplineSet
333 -194 m 0,0,1
 372 -194 372 -194 406 -181.5 c 128,-1,2
 440 -169 440 -169 465.5 -146 c 128,-1,3
 491 -123 491 -123 505.5 -91.5 c 128,-1,4
 520 -60 520 -60 519 -22 c 0,5,6
 520 6 520 6 510 30 c 128,-1,7
 500 54 500 54 483 71.5 c 128,-1,8
 466 89 466 89 442 98.5 c 128,-1,9
 418 108 418 108 390 108 c 0,10,11
 374 108 374 108 346 105.5 c 128,-1,12
 318 103 318 103 290 103 c 0,13,14
 273 103 273 103 251.5 105.5 c 128,-1,15
 230 108 230 108 212 118.5 c 128,-1,16
 194 129 194 129 181.5 149 c 128,-1,17
 169 169 169 169 170 204 c 0,18,19
 170 239 170 239 183.5 278.5 c 128,-1,20
 197 318 197 318 220 359 c 128,-1,21
 243 400 243 400 273 441 c 128,-1,22
 303 482 303 482 337 519 c 128,-1,23
 371 556 371 556 406.5 586.5 c 128,-1,24
 442 617 442 617 475 639 c 1,25,-1
 473 719 l 1,26,-1
 303 719 l 2,27,28
 292 719 292 719 280.5 720.5 c 128,-1,29
 269 722 269 722 259.5 725.5 c 128,-1,30
 250 729 250 729 244 735.5 c 128,-1,31
 238 742 238 742 238 753 c 0,32,33
 238 761 238 761 241 773.5 c 128,-1,34
 244 786 244 786 250 796 c 1,35,-1
 151 834 l 1,36,37
 138 809 138 809 131 790 c 128,-1,38
 124 771 124 771 124 750 c 0,39,40
 124 693 124 693 167.5 660.5 c 128,-1,41
 211 628 211 628 286 629 c 2,42,-1
 367 629 l 1,43,-1
 334 672 l 1,44,45
 284 632 284 632 234 578 c 128,-1,46
 184 524 184 524 144 461 c 128,-1,47
 104 398 104 398 79 329.5 c 128,-1,48
 54 261 54 261 54 192 c 0,49,50
 54 132 54 132 73 93 c 128,-1,51
 92 54 92 54 122.5 31.5 c 128,-1,52
 153 9 153 9 190 0.5 c 128,-1,53
 227 -8 227 -8 264 -8 c 0,54,55
 280 -8 280 -8 296 -7 c 128,-1,56
 312 -6 312 -6 326.5 -5 c 128,-1,57
 341 -4 341 -4 353 -3.5 c 128,-1,58
 365 -3 365 -3 371 -3 c 0,59,60
 393 -3 393 -3 402 -13.5 c 128,-1,61
 411 -24 411 -24 411 -34 c 0,62,63
 411 -46 411 -46 403.5 -55 c 128,-1,64
 396 -64 396 -64 383 -71 c 128,-1,65
 370 -78 370 -78 351.5 -82 c 128,-1,66
 333 -86 333 -86 310 -86 c 0,67,68
 290 -86 290 -86 271 -83.5 c 128,-1,69
 252 -81 252 -81 238 -79 c 1,70,-1
 238 -184 l 1,71,72
 268 -190 268 -190 292.5 -192.5 c 128,-1,73
 317 -195 317 -195 333 -194 c 0,0,1
EndSplineSet
EndChar

